<svg width="29" height="28" viewBox="0 0 29 28" fill="none" xmlns="http://www.w3.org/2000/svg">
<path d="M14.614 26.0785C14.4571 26.0785 14.3006 26.0644 14.1485 26.0363C13.1694 25.8578 12.4398 25.1398 12.0001 24.5691C10.9667 23.2277 10.5229 21.5301 10.2516 20.2004C9.32492 15.6609 9.49156 10.9016 10.7333 6.43749C11.0772 5.20195 11.5658 3.80585 12.5842 2.81757C13.2828 2.13906 14.2451 1.73398 15.1579 1.73398C15.6776 1.73398 16.1522 1.86171 16.5688 2.11288C17.4333 2.63359 17.8914 3.57695 18.2257 4.43085C19.9089 8.73203 20.1665 13.9043 19.0129 20.2434C18.741 21.7379 18.3602 23.4391 17.2773 24.7113C16.5483 25.5676 15.5528 26.0785 14.614 26.0785ZM15.1579 2.33398C14.3978 2.33398 13.5922 2.67578 13.0029 3.24804C12.0874 4.13632 11.6344 5.44023 11.3123 6.59843C10.0957 10.9715 9.93261 15.6336 10.8403 20.0809C11.0987 21.3469 11.518 22.9594 12.4764 24.2035C12.8519 24.6906 13.4653 25.3019 14.2564 25.4465C15.1125 25.6012 16.1059 25.1605 16.8196 24.3227C17.8059 23.1641 18.1638 21.5543 18.4218 20.1363C19.5547 13.9098 19.3074 8.84374 17.6659 4.6496C17.3686 3.88945 16.9686 3.05468 16.2583 2.62656C15.9367 2.43242 15.5665 2.33398 15.1579 2.33398Z" fill="white"/>
<path d="M7.07689 21.7383C6.93137 21.7383 6.78605 21.7324 6.64073 21.7195C5.8003 21.6449 5.06313 21.3266 4.56517 20.8223C3.79397 20.041 3.54754 18.7387 3.93734 17.5043C4.28489 16.4047 5.01795 15.5148 5.75864 14.7172C9.76209 10.4047 15.1628 7.48086 20.9658 6.4832C21.4323 6.40312 21.9839 6.32109 22.5387 6.32109C22.9151 6.32109 23.2548 6.35781 23.5775 6.43281C24.5787 6.66601 25.3759 7.32109 25.6581 8.14257C25.9005 8.84765 25.7976 9.66953 25.3442 10.6555C24.7098 12.0348 23.6794 13.35 22.1014 14.7945C18.3696 18.2102 13.7732 20.5391 8.809 21.5289C8.26487 21.6379 7.67831 21.7383 7.07689 21.7383ZM22.5387 6.92109C22.029 6.92109 21.5092 6.99883 21.0679 7.07461C15.394 8.04961 10.1134 10.909 6.1991 15.125C5.50633 15.8715 4.82217 16.698 4.51041 17.6848C4.18671 18.7098 4.37623 19.7758 4.99311 20.4012C5.39093 20.8039 5.9951 21.0598 6.69412 21.1219C7.37007 21.182 8.05775 21.0672 8.69125 20.9406C13.5478 19.9723 18.0446 17.6937 21.6954 14.3523C23.2123 12.9637 24.1983 11.7094 24.7982 10.4047C25.1842 9.56601 25.2795 8.88945 25.0898 8.33711C24.8322 7.58711 24.0692 7.16367 23.441 7.01718C23.1634 6.95234 22.8685 6.92109 22.5387 6.92109Z" fill="white"/>
<path d="M22.2736 21.4199C20.7976 21.4199 19.2129 21.193 17.5635 20.7457C12.5082 19.375 8.02403 16.2926 4.9369 12.0672C4.29948 11.1949 3.66911 10.1477 3.82538 8.99218C4.01119 7.61953 5.24533 6.72265 6.38599 6.44296C6.76699 6.3496 7.16266 6.30429 7.59589 6.30429C8.45549 6.30429 9.31704 6.49335 9.97167 6.6582C15.2869 7.99804 20.1515 11.0484 23.6693 15.2469C24.3783 16.0934 25.069 17.0328 25.3193 18.168C25.4934 18.9562 25.4218 20.041 24.6981 20.7215C24.049 21.332 23.1059 21.4152 22.3566 21.4195L22.2736 21.4199ZM7.59589 6.90429C7.21176 6.90429 6.86283 6.94374 6.52916 7.02578C5.61695 7.2496 4.56782 7.98554 4.42074 9.07265C4.29303 10.0172 4.85534 10.9375 5.42234 11.7133C8.42928 15.8293 12.7969 18.8312 17.721 20.1668C19.3189 20.6 20.8508 20.8199 22.2736 20.8199L22.3531 20.8195C22.9922 20.816 23.7896 20.7519 24.2862 20.2848C24.8268 19.7762 24.8712 18.9246 24.7325 18.2969C24.51 17.2879 23.8685 16.4199 23.2085 15.632C19.7713 11.5297 15.018 8.54921 9.82459 7.24023C9.2038 7.08359 8.38938 6.90429 7.59589 6.90429Z" fill="white"/>
<path d="M14.9091 16.2855C14.9089 16.2855 14.9089 16.2855 14.9089 16.2855C14.834 16.2855 14.7589 16.2809 14.684 16.2723C14.1586 16.2098 13.6303 15.9312 13.1963 15.4879C12.8388 15.1219 12.5941 14.6996 12.4889 14.2664C12.3649 13.7562 12.4376 13.2273 12.6886 12.8156C12.8803 12.5012 13.1826 12.2387 13.5631 12.0562C14.3921 11.6598 15.4841 11.7789 16.1818 12.3418C16.9187 12.9363 17.2266 14 16.9136 14.8703C16.6191 15.6902 15.7759 16.2855 14.9091 16.2855ZM14.6437 12.416C14.3556 12.416 14.0716 12.4785 13.8226 12.5977C13.6307 12.6894 13.3673 12.8559 13.2018 13.1273C13.0332 13.4043 12.9861 13.768 13.0729 14.125C13.1527 14.4535 13.344 14.7797 13.6262 15.0687C13.9644 15.4141 14.3653 15.6301 14.755 15.6762C15.4332 15.7594 16.1188 15.3059 16.348 14.668C16.5774 14.0297 16.3486 13.2477 15.8041 12.8082C15.4904 12.5551 15.0785 12.416 14.6437 12.416Z" fill="white"/>
<path d="M14.9162 15.2379C14.8997 15.2379 14.8831 15.2367 14.8665 15.234C14.4462 15.1641 14.0544 14.9105 13.8187 14.5551C13.5684 14.1777 13.5134 13.7102 13.6752 13.3348C13.8702 12.8832 14.3754 12.6211 14.8237 12.7375C14.9842 12.7789 15.0805 12.943 15.0388 13.1031C14.997 13.2637 14.8327 13.359 14.6723 13.318C14.5131 13.2777 14.3036 13.3949 14.2269 13.5723C14.1458 13.7605 14.1821 14.0164 14.3196 14.2238C14.4648 14.4426 14.7061 14.5988 14.9651 14.6418C15.1288 14.6691 15.2393 14.8234 15.2121 14.9871C15.1877 15.134 15.0603 15.2379 14.9162 15.2379Z" fill="white"/>
</svg>
