<svg width="29" height="23" viewBox="0 0 29 23" fill="none" xmlns="http://www.w3.org/2000/svg">
<g clip-path="url(#clip0_25_789)">
<path d="M9.29948 0.341244C9.17024 0.387182 9.0169 0.531557 8.94461 0.675932C8.85918 0.846556 8.81756 1.04781 8.78908 1.44374C8.75403 1.89218 8.78032 2.14156 8.89861 2.52656C8.98185 2.79124 9.133 2.88531 9.30824 2.77812C9.42654 2.70593 9.50978 2.57031 9.6193 2.27062C9.64121 2.21374 9.64121 2.21374 9.86684 2.44343C10.2239 2.80656 10.4342 2.95968 10.754 3.08656C10.8438 3.12156 10.9687 3.17624 11.03 3.20906C11.2206 3.30531 11.5492 3.40593 11.8471 3.46062C12.1034 3.50656 12.1954 3.51093 12.8197 3.51093C13.7858 3.51093 14.1341 3.46499 15.3367 3.17406C16.2041 2.96187 16.4845 2.90281 16.8832 2.84593C18.0771 2.67312 18.9139 2.86343 19.6302 3.46718C20.0792 3.84562 20.4035 4.40781 20.4363 4.87156C20.4604 5.20187 20.3772 5.45562 20.1406 5.76624C19.7923 6.22562 18.9204 6.87093 18.1691 7.22312C17.9413 7.33031 17.5711 7.48124 17.536 7.48124C17.5272 7.48124 17.5163 7.30187 17.5163 7.08093C17.5119 6.36343 17.3849 5.77062 17.1286 5.26093C16.5853 4.17374 15.5798 3.87843 14.6817 4.54124C14.0114 5.03343 13.5295 6.09218 13.628 6.85781C13.6872 7.31937 13.8843 7.68249 14.2523 8.00187C14.7124 8.40218 15.3586 8.62531 16.1231 8.64499L16.3728 8.65156L16.3619 8.72812C16.3115 9.06062 16.0552 9.94656 15.8427 10.5372C15.7682 10.7384 15.6981 10.9353 15.685 10.9725C15.6653 11.0316 15.6434 11.0447 15.4725 11.0994C15.0563 11.2284 14.3728 11.6528 13.9851 12.0203C13.8646 12.1362 13.8274 12.1516 13.8274 12.0794C13.8274 12.005 13.7222 11.8169 13.6521 11.7687C13.5514 11.6966 13.4199 11.69 13.3126 11.7512C13.1768 11.83 13.1461 11.9153 13.1352 12.2434C13.122 12.6897 13.0651 12.8734 12.857 13.1272C12.7518 13.2562 12.7496 13.2584 11.9764 13.6084C11.6171 13.7725 11.4024 13.9081 11.26 14.0591C11.0081 14.3303 10.9796 14.5534 11.1439 14.9472C11.1571 14.98 11.1439 14.9844 11.0213 14.9844C10.4013 14.9844 9.64559 14.7875 8.97528 14.455C8.57222 14.2537 7.95667 13.8075 7.95667 13.7156C7.95667 13.6062 8.05743 13.1709 8.14506 12.9062C8.23049 12.6481 8.51526 12.0094 8.54374 12.0094C8.55031 12.0094 8.64012 12.0662 8.74308 12.1384C9.42654 12.6044 10.11 12.6962 10.7694 12.4141C11.2009 12.2303 11.6105 11.7381 11.7354 11.2547C11.7858 11.06 11.777 10.9834 11.6697 10.6444C11.6171 10.4759 11.5536 10.2637 11.5295 10.1762C11.4769 9.98812 11.3783 9.85687 11.1702 9.69937C10.6773 9.32968 10.0903 9.24437 9.60397 9.47187C9.29729 9.61624 8.92052 9.92468 8.59193 10.3053L8.46707 10.4497L8.38821 10.3162C8.19982 9.99031 8.01581 9.55718 7.89095 9.14374C7.85371 9.01687 7.81866 8.90093 7.81428 8.88562C7.80771 8.86593 7.81647 8.85937 7.84276 8.86812C7.86247 8.87468 8.03772 8.88999 8.23049 8.90312C9.47035 8.98624 10.9796 8.60343 11.8559 7.98656C12.0464 7.85312 12.3641 7.54468 12.4802 7.38281C12.6992 7.07437 12.7847 6.81624 12.7869 6.46406C12.7869 6.25624 12.7781 6.19718 12.7233 6.02874C12.5459 5.48843 12.0443 5.02906 11.3586 4.78406C10.1166 4.33781 8.41888 4.62656 7.25569 5.48187C7.10235 5.59343 7.10454 5.59562 7.04539 5.41406C6.87234 4.88906 6.55252 4.27656 6.2086 3.82156C6.00926 3.55687 5.62372 3.15437 5.39371 2.96843C4.94026 2.60312 4.35538 2.29906 3.82745 2.15249L3.69602 2.11531L3.90193 2.06281C4.32909 1.95562 4.47805 1.79156 4.26557 1.66468C4.18671 1.61874 3.90631 1.50937 3.6084 1.41093C3.28419 1.30156 2.73655 1.19874 2.46931 1.19437C2.24806 1.19218 2.21739 1.19656 2.09691 1.25343C1.937 1.32781 1.83842 1.41968 1.76175 1.56406C1.70699 1.66249 1.70261 1.69531 1.70261 1.91406C1.70261 2.10874 1.71137 2.18312 1.75518 2.30781C1.88223 2.68187 2.08158 2.99906 2.39702 3.32281C2.66207 3.59406 2.8198 3.66406 2.94685 3.56562C3.05857 3.47812 3.07171 3.30968 2.99723 2.95749C2.97094 2.83281 2.97313 2.81968 3.0038 2.82843C3.25353 2.90499 3.79898 3.11499 4.01365 3.21781C5.11332 3.74499 5.91068 4.78187 6.26993 6.14906L6.31813 6.33718L6.17793 6.52531C6.10126 6.63031 5.98516 6.80312 5.91944 6.91249C5.85373 7.01968 5.79239 7.10718 5.78363 7.10937C5.77487 7.10937 5.61934 7.04156 5.43971 6.95843C5.08484 6.79218 4.78692 6.67624 4.56129 6.61499C4.45177 6.58437 4.34005 6.57343 4.07937 6.57343C3.76612 6.57343 3.72669 6.57781 3.57992 6.63249C3.32582 6.72437 3.12428 6.85781 2.87675 7.09624C2.61169 7.35437 2.41454 7.61031 2.15825 8.02593C1.43755 9.19406 1.08487 10.3906 1.16373 11.3947C1.26011 12.6022 1.81652 13.58 2.98628 14.6016C3.47039 15.0259 3.93917 15.3759 4.9775 16.0934C5.62372 16.5397 6.00707 16.8153 6.23926 16.9991L6.40137 17.1281L6.31593 17.2441C6.26993 17.3053 6.2086 17.4016 6.18231 17.4562C6.15602 17.5109 6.12974 17.5569 6.12755 17.5612C6.11221 17.5787 5.68286 17.3447 5.44847 17.1872C5.04322 16.9181 4.72997 16.6666 3.95889 15.9906C3.15714 15.2884 2.6555 15.0172 2.00491 14.9384L1.78366 14.9122L1.83842 14.7962C1.98519 14.4769 1.94576 14.2122 1.74642 14.1619C1.6106 14.1269 1.24259 14.3041 0.962197 14.5359L0.81543 14.6606L0.819811 15.6581L0.826383 16.6578L1.06296 16.835C1.43974 17.1172 1.92605 17.3469 2.15167 17.3469C2.39044 17.3469 2.45397 17.2047 2.32473 16.9619C2.20644 16.7409 1.99833 16.4697 1.7749 16.2466C1.65661 16.1284 1.56022 16.0278 1.56022 16.0234C1.56022 16.0059 1.72451 16.0125 1.90195 16.0366C2.33568 16.0956 2.58321 16.2531 3.47696 17.0362C3.72888 17.2594 4.05965 17.5372 4.20861 17.6575C4.7694 18.1059 5.38933 18.4712 5.93697 18.6812C6.07278 18.7337 6.18231 18.7862 6.18231 18.7994C6.18231 18.8344 6.38165 19.2434 6.45175 19.3528C6.48461 19.4031 6.50213 19.4491 6.49118 19.4556C6.48242 19.4622 6.38165 19.4841 6.26774 19.5037C6.0443 19.5409 5.40904 19.5584 4.81978 19.5409L4.47586 19.53L4.61606 19.3703C4.78692 19.1734 4.84388 19.0859 4.91836 18.8956C4.99064 18.7184 4.99503 18.5741 4.93369 18.5172C4.89426 18.4822 4.87893 18.48 4.79568 18.5041C4.53501 18.5806 3.80774 19.0641 3.50544 19.3616C3.27762 19.5847 3.2141 19.7181 3.2141 19.9631C3.2141 20.1228 3.22286 20.1556 3.29734 20.3066C3.45068 20.615 3.72888 20.9234 3.96546 21.0416C4.28747 21.2034 4.52186 21.2384 4.62044 21.14C4.67082 21.0897 4.6752 21.0722 4.66644 20.9541C4.65987 20.8534 4.63139 20.7725 4.5372 20.5844C4.47148 20.4509 4.42767 20.3459 4.43862 20.3525C5.05417 20.6216 5.40466 20.6894 6.05526 20.6653C6.46708 20.65 6.80005 20.5909 7.11549 20.4706L7.31483 20.3962L7.45503 20.5144C8.00267 20.9737 8.80003 21.3784 9.58864 21.5972C9.80988 21.6606 10.2502 21.7547 10.4276 21.7766C10.524 21.7897 10.5437 21.7984 10.5328 21.8291C10.5262 21.8487 10.489 21.9581 10.4473 22.0719C10.4057 22.1856 10.3663 22.3059 10.3575 22.3409L10.3444 22.4H14.7671H19.1921L19.2162 22.3191C19.2293 22.2731 19.2578 22.1441 19.2819 22.0325C19.3038 21.9187 19.3257 21.8247 19.3301 21.8181C19.3366 21.8137 19.4133 21.8269 19.5031 21.8509C19.7682 21.9187 20.0595 21.9603 20.4188 21.9844C21.3498 22.0478 22.651 21.8291 23.72 21.4287C24.4604 21.1531 24.8525 20.93 25.1833 20.5975C25.4856 20.2912 25.6586 19.9237 25.6937 19.5147L25.7112 19.3112L26.1756 19.1603C26.6926 18.9919 26.8875 18.9547 27.0759 18.9853C27.4593 19.0466 27.7418 19.2609 27.9258 19.6262C27.9959 19.7662 28.0003 19.7859 28.0003 20.0047C28.0003 20.1316 27.9938 20.2344 27.9872 20.2344C27.9784 20.2344 27.8711 20.1797 27.7484 20.1141C27.2336 19.8384 26.9291 19.7772 26.9861 19.9609C27.0299 20.1053 27.3892 20.4947 27.617 20.6478C27.8273 20.7878 27.9872 20.8469 28.158 20.8469C28.4669 20.8469 28.6663 20.6412 28.7999 20.1775C28.8525 19.9959 28.8546 19.9631 28.8546 19.4009C28.8546 18.8212 28.8546 18.8147 28.8065 18.7819C28.6706 18.6856 28.5195 18.7994 28.4713 19.0312C28.4384 19.1997 28.4143 19.2172 28.3727 19.1056C28.3618 19.0772 28.3421 19.0553 28.3333 19.0575C28.3223 19.0619 28.2698 19.0006 28.215 18.9219C27.974 18.5697 27.5206 18.34 27.0255 18.3159C26.7232 18.3006 26.5261 18.3356 26.088 18.4822C25.8799 18.5522 25.7659 18.5806 25.7725 18.5631C25.7791 18.5478 25.801 18.4275 25.8207 18.2962C25.8755 17.9528 25.858 17.4366 25.7813 17.15C25.6696 16.7234 25.5053 16.3931 25.2468 16.0737L25.1044 15.8966L25.4352 15.5662C25.6148 15.3847 25.8141 15.1747 25.8755 15.1003L25.9894 14.9669L26.1099 15.0194C26.675 15.2687 27.3629 15.2731 27.847 15.0281C28.112 14.8947 28.3596 14.6562 28.4822 14.4156C28.6684 14.0481 28.6597 13.5428 28.4582 13.1403C28.2982 12.8209 27.9894 12.4928 27.6389 12.2631C27.5315 12.1909 27.4352 12.1275 27.4264 12.1187C27.4176 12.1122 27.4373 11.9875 27.4724 11.8453C27.6498 11.1191 27.7594 10.2244 27.7594 9.48718V9.16562L27.9149 8.90749C28.1953 8.44374 28.3924 7.98218 28.5261 7.46812C28.6027 7.17718 28.6794 6.70249 28.6794 6.51874C28.6794 6.37218 28.6991 6.39187 28.7802 6.61718L28.8437 6.79218L28.8503 5.85374C28.8525 5.21281 28.8481 4.90656 28.8327 4.89124C28.8196 4.87812 28.721 4.86718 28.6071 4.86718C28.4209 4.86718 28.3946 4.87374 28.2632 4.93937C28.0003 5.07499 27.3673 5.58906 27.1416 5.85156L27.0168 5.99593L26.9401 5.84281C26.3202 4.61781 25.2862 3.48249 24.2063 2.83937C23.9303 2.67749 23.5995 2.51562 23.4483 2.47187C23.3979 2.45656 23.3607 2.43906 23.3651 2.43468C23.3695 2.43031 23.5053 2.40624 23.6652 2.38218C23.8273 2.36031 24.0245 2.32093 24.1055 2.29687C24.3443 2.22468 24.4516 2.09999 24.3377 2.02562C24.2106 1.94468 23.536 1.79812 23.0168 1.73906C22.0902 1.63624 21.6871 1.61874 21.4965 1.67562C21.2841 1.73906 21.1 1.96874 21.1 2.17437C21.1 2.29249 21.1789 2.46531 21.3629 2.74531C21.4724 2.91374 21.6499 3.23093 21.7638 3.46499C21.9828 3.91343 22.1931 4.28968 22.2676 4.36843C22.3333 4.44062 22.4429 4.43624 22.4976 4.35749C22.6948 4.07749 22.6181 3.35562 22.3268 2.77812L22.237 2.59874L22.4735 2.72562C23.0606 3.03843 23.8645 3.62906 24.3947 4.13437C25.4899 5.18218 26.2523 6.49906 26.5524 7.86624C26.6246 8.20312 26.686 8.62531 26.686 8.80249C26.686 8.91624 26.686 8.91624 26.4845 9.13062C26.3749 9.24874 26.1099 9.49812 25.8996 9.68624C25.3848 10.1412 24.9533 10.5787 24.7824 10.8172C24.6247 11.0403 24.4582 11.3597 24.3881 11.5784C24.3465 11.7031 24.3289 11.7272 24.2807 11.7381C24.0135 11.7972 23.6477 11.8956 23.4111 11.9766C23.0825 12.0859 22.5108 12.3266 22.3092 12.4403C22.2326 12.4819 22.1647 12.5125 22.1603 12.5059C22.1537 12.5016 22.1625 12.4294 22.1756 12.3462C22.215 12.1209 22.2085 11.5587 22.1625 11.2984C22.0157 10.4519 21.5184 9.76937 20.8678 9.52437C20.3312 9.32312 19.7529 9.38656 19.2709 9.70156C19.0825 9.82406 18.7364 10.1762 18.605 10.3797C18.1735 11.0381 18.0595 11.8147 18.2939 12.4797C18.318 12.5475 18.3312 12.6 18.3224 12.5956C18.3137 12.5912 18.2173 12.5431 18.1077 12.4862C17.398 12.1209 16.8284 11.9547 16.3509 11.97C16.1253 11.9766 16.099 11.9678 16.1581 11.9022C16.2063 11.8497 16.5524 11.1431 16.6861 10.8303C16.9708 10.1566 17.2096 9.40624 17.341 8.76749L17.3914 8.52031L17.4988 8.49187C18.3772 8.25999 19.1351 7.88812 19.9128 7.30624C20.4998 6.86874 20.9555 6.39187 21.1745 5.99156C21.5206 5.35718 21.5141 4.58937 21.1548 3.87187C20.8766 3.31843 20.4429 2.83062 19.9171 2.48281C18.9533 1.84406 17.8602 1.69312 16.3312 1.99281C16.1406 2.02999 15.6214 2.14593 15.1746 2.25312C13.9435 2.54843 13.5711 2.60312 12.7891 2.60312C12.294 2.60312 11.961 2.58124 11.6478 2.52656C11.4287 2.48937 10.8964 2.36468 10.8526 2.34281C10.8241 2.32749 10.3575 1.70406 10.2918 1.59468L10.2546 1.53343L10.3816 1.58812C10.7606 1.75656 11.2798 1.92499 11.4199 1.92499C11.4988 1.92499 11.5711 1.87468 11.5711 1.81781C11.5711 1.76968 11.4791 1.60781 11.3739 1.47656C11.2469 1.31687 10.9052 0.986557 10.7277 0.850931C10.4298 0.623432 10.0443 0.406868 9.82084 0.341244C9.67407 0.297493 9.42215 0.299681 9.29948 0.341244ZM15.8493 5.17999C16.1954 5.36374 16.4582 6.02218 16.5218 6.86218C16.5481 7.19468 16.5305 7.68031 16.4911 7.70437C16.4561 7.72843 15.9435 7.72406 15.766 7.69999C15.019 7.59281 14.5327 7.22093 14.4911 6.72437C14.4473 6.18843 14.8526 5.42281 15.3038 5.19749C15.5273 5.08374 15.6631 5.08156 15.8493 5.17999ZM10.5174 5.61312C10.9555 5.67656 11.306 5.82531 11.5426 6.04406C11.8537 6.33499 11.8471 6.60624 11.5207 6.93656C11.1089 7.35218 10.3685 7.66062 9.39149 7.82249C9.04538 7.88156 8.1801 7.88156 7.82961 7.82249C7.6938 7.80062 7.57989 7.77656 7.57551 7.76781C7.57113 7.76124 7.52513 7.51406 7.47474 7.21874L7.38274 6.68281L7.5317 6.54499C7.92162 6.18624 8.5985 5.82531 9.14614 5.68531C9.55359 5.58249 10.1078 5.55187 10.5174 5.61312ZM28.158 6.05281C28.1383 6.08999 27.6827 7.09624 27.5841 7.31718L27.5359 7.42656L27.4439 7.12031C27.3913 6.95187 27.3191 6.73093 27.2818 6.63031C27.2424 6.52749 27.2139 6.44437 27.2183 6.44218C27.2205 6.43999 27.284 6.42249 27.3563 6.40281C27.5863 6.34156 27.7199 6.28249 27.9478 6.14906C28.066 6.07687 28.1668 6.01781 28.1712 6.01562C28.1734 6.01562 28.169 6.03312 28.158 6.05281ZM4.31814 7.61468C4.44738 7.64312 4.77597 7.77656 5.11112 7.93624L5.38495 8.06531L5.31485 8.35187C5.08922 9.24437 5.10893 10.1544 5.3718 11.1672C5.6281 12.1581 6.09469 13.0353 6.79129 13.8294L6.96872 14.035L6.97968 14.3391C7.00596 15.0478 7.17025 15.7544 7.45065 16.3537C7.50103 16.4587 7.53608 16.5484 7.52951 16.555C7.52294 16.5616 7.4616 16.5134 7.39369 16.4478C7.08263 16.1547 6.68614 15.8594 5.58429 15.1003C4.02022 14.0262 3.38934 13.4947 2.90961 12.8559C2.62922 12.4819 2.45835 12.1406 2.3554 11.7534C2.27215 11.4341 2.25901 10.9047 2.32692 10.5109C2.46054 9.72562 2.87675 8.75656 3.35648 8.11562C3.47039 7.96249 3.71793 7.71093 3.80993 7.65406C3.93479 7.57531 4.09251 7.56437 4.31814 7.61468ZM6.5328 8.55093C6.76062 8.63406 6.76281 8.63624 6.78033 8.71937C6.87672 9.16781 7.15492 9.98374 7.34331 10.3753C7.47255 10.6444 7.64123 10.9419 7.77266 11.13C7.82523 11.2066 7.86904 11.2766 7.86904 11.2853C7.86904 11.2962 7.80114 11.4297 7.7179 11.5828C7.54046 11.9087 7.38055 12.2697 7.26226 12.6175C7.21626 12.7509 7.17464 12.8625 7.16806 12.8625C7.1374 12.8625 6.85919 12.3944 6.70805 12.0859C6.4408 11.5434 6.30717 11.1387 6.20203 10.5547C6.13631 10.1872 6.12097 9.49812 6.16917 9.12843C6.19764 8.91187 6.28527 8.46562 6.29841 8.46562C6.3006 8.46562 6.40575 8.50499 6.5328 8.55093ZM10.489 10.3359C10.8285 10.5022 10.9665 10.8544 10.8132 11.165C10.6686 11.4625 10.4298 11.62 10.1034 11.6331C9.7836 11.6484 9.5514 11.5653 9.22062 11.3181L9.05195 11.1934L9.11109 11.1147C9.26662 10.9047 9.47254 10.6772 9.6215 10.5503C9.98513 10.2375 10.1845 10.1872 10.489 10.3359ZM26.6268 10.6028C26.5896 10.8784 26.4275 11.7075 26.4056 11.7272C26.3968 11.7359 26.2829 11.7228 26.1493 11.7009C26.0179 11.6769 25.7966 11.6506 25.6608 11.6419L25.4111 11.6266L25.4987 11.4953C25.6323 11.2962 25.8908 11.0316 26.2873 10.6837C26.4866 10.5109 26.6487 10.3687 26.6531 10.3687C26.6553 10.3687 26.6422 10.4737 26.6268 10.6028ZM20.4538 10.4716C20.6838 10.5437 20.927 10.8719 21.0343 11.2481C21.0957 11.4581 21.1154 11.8759 21.0781 12.1428C21.0365 12.4512 20.9182 12.8931 20.7934 13.2103L20.6795 13.4991L20.5349 13.4181C19.893 13.0637 19.433 12.6284 19.26 12.2172C19.0672 11.7556 19.2008 11.1409 19.5842 10.7362C19.8646 10.4409 20.1121 10.3644 20.4538 10.4716ZM25.9346 12.6241C26.0288 12.6372 26.1077 12.6503 26.1121 12.6547C26.123 12.6656 25.8842 13.1928 25.7857 13.3744L25.6937 13.5428L25.6214 13.44C25.4702 13.2278 25.2621 12.7597 25.2621 12.6306C25.2621 12.5912 25.6761 12.5869 25.9346 12.6241ZM24.3289 12.8362C24.3881 13.2081 24.6926 13.8097 25.008 14.1837C25.0781 14.2647 25.1307 14.3434 25.1241 14.3566C25.1022 14.4112 24.6707 14.8684 24.5151 15.0041C24.4253 15.0828 24.3333 15.1637 24.307 15.1856C24.2632 15.225 24.2588 15.2228 24.0551 15.1003C23.7638 14.9253 22.8919 14.5053 22.272 14.2406C21.9828 14.1181 21.7375 14.0087 21.7265 14C21.7025 13.9759 22.3552 13.545 22.6773 13.3722C22.9927 13.2016 23.4089 13.0134 23.6959 12.915C23.9434 12.8275 24.2807 12.7334 24.3005 12.7444C24.3092 12.7487 24.3202 12.7903 24.3289 12.8362ZM27.2314 13.1119C27.5556 13.3503 27.7353 13.6762 27.6717 13.9103C27.6126 14.1312 27.4154 14.2428 27.0606 14.2581C26.8371 14.2669 26.5546 14.2209 26.5546 14.175C26.5546 14.1641 26.6137 14.0503 26.6838 13.9234C26.7977 13.7178 26.9686 13.3634 27.0671 13.1184C27.0847 13.0747 27.1066 13.0375 27.1153 13.0375C27.1219 13.0375 27.1745 13.0703 27.2314 13.1119ZM19.4681 13.9344C19.5513 13.9956 19.6915 14.0919 19.7791 14.1466C19.8668 14.2034 19.9391 14.2537 19.9391 14.2603C19.9391 14.2669 19.8843 14.3412 19.8164 14.4266C19.5491 14.7569 19.3213 15.1506 19.2205 15.4481C19.1964 15.5247 19.157 15.5925 19.122 15.6209L19.0628 15.6647V15.6187C19.0628 15.5575 19.0059 15.4481 18.9314 15.3672C18.8503 15.2819 18.8197 15.1659 18.8591 15.0937C18.9423 14.9341 18.8635 14.7328 18.5699 14.3369C18.4451 14.1706 18.3465 14.0306 18.3487 14.0284C18.3509 14.0241 18.4122 14.0328 18.4845 14.0437C18.7364 14.0853 19.1724 13.9912 19.2556 13.8797C19.2753 13.8491 19.2972 13.825 19.3038 13.825C19.3104 13.825 19.3848 13.8753 19.4681 13.9344ZM8.14506 14.9625C8.51088 15.1944 8.99938 15.4066 9.46158 15.54C10.2042 15.7522 11.0454 15.7719 11.5404 15.5859C11.6215 15.5553 11.6916 15.5334 11.696 15.5378C11.7003 15.5422 11.6565 15.7391 11.6018 15.9753C11.547 16.2116 11.5076 16.4194 11.5141 16.4325C11.5229 16.4478 11.582 16.5594 11.6478 16.6797C11.7135 16.8 11.8909 17.1456 12.0399 17.4475C12.3422 18.0491 12.3597 18.1081 12.3597 18.4844C12.3597 18.8781 12.2546 19.3528 12.1297 19.5366L12.0684 19.6219L11.8362 19.4972C10.283 18.6725 9.06947 17.4869 8.41669 16.1547C8.23268 15.7828 8.12315 15.4897 8.04648 15.1703C7.97857 14.8925 7.97638 14.875 7.99172 14.875C8.00048 14.875 8.06839 14.9144 8.14506 14.9625ZM21.4002 14.9822C22.2632 15.3628 23.3366 15.8769 23.3651 15.9228C23.3717 15.9337 23.3213 15.9841 23.2512 16.0366C22.962 16.2553 22.4516 16.6972 22.1975 16.9531C21.5228 17.6247 21.1088 18.2831 20.9095 18.9984C20.8284 19.2937 20.8131 19.7816 20.8788 20.0375C20.9511 20.3219 21.0781 20.5581 21.2709 20.7616C21.4505 20.9541 21.5579 21.035 21.7879 21.1553L21.939 21.2362L21.8207 21.2603C21.1373 21.4003 20.1778 21.4309 19.4747 21.3325L19.1964 21.2953L19.1329 21.2078C19.0979 21.1597 19.0124 21.0678 18.9445 21.0022L18.8241 20.8819L18.9818 20.7966C19.4768 20.5297 19.8602 20.1162 20.1252 19.5672C20.3268 19.1472 20.4078 18.7644 20.4078 18.2109C20.41 17.7625 20.4013 17.6969 20.2348 16.9859C20.1691 16.7081 20.1099 16.4281 20.1012 16.3625L20.088 16.2422L20.3114 16.0125C20.5568 15.7587 20.8394 15.4066 21.0431 15.1003C21.1176 14.9887 21.1833 14.8969 21.1921 14.8969C21.2008 14.8969 21.295 14.9341 21.4002 14.9822ZM17.7178 16.0016C17.731 16.0366 17.6258 16.2094 17.593 16.2094C17.582 16.2094 17.593 16.1766 17.6171 16.1372C17.6411 16.1 17.6609 16.0453 17.6609 16.0169C17.6609 15.9622 17.7003 15.9512 17.7178 16.0016ZM16.7189 16.0781C16.7189 16.0891 16.7145 16.1 16.7102 16.1C16.7036 16.1 16.6926 16.0891 16.6861 16.0781C16.6795 16.065 16.6839 16.0562 16.6948 16.0562C16.708 16.0562 16.7189 16.065 16.7189 16.0781ZM24.4078 16.7169C24.5195 16.8547 24.6991 17.1894 24.7276 17.3141L24.743 17.3797L24.6378 17.2856C24.4648 17.1347 24.2063 16.9794 23.9522 16.8744C23.9062 16.8569 23.9149 16.8459 24.0726 16.7191C24.1668 16.6447 24.2545 16.5834 24.2698 16.5834C24.2851 16.5812 24.3465 16.6425 24.4078 16.7169ZM19.2425 17.0756C19.3958 17.6575 19.4243 17.8369 19.4221 18.2219C19.4221 18.4887 19.4133 18.6222 19.3848 18.7316C19.2906 19.1034 19.0628 19.4994 18.8043 19.7312L18.6576 19.8647L18.6422 19.8034C18.6335 19.7684 18.6116 19.4556 18.5919 19.1078C18.5743 18.7578 18.5524 18.375 18.5459 18.2547L18.5327 18.0359L18.64 17.7844C18.7014 17.6466 18.7956 17.4234 18.8547 17.2922C18.9117 17.1587 18.9752 17.01 18.9949 16.9597C19.0278 16.8722 19.1001 16.8153 19.1592 16.8306C19.1702 16.8328 19.2074 16.9422 19.2425 17.0756ZM15.0979 17.3775C15.0979 17.3841 15.0891 17.395 15.076 17.4016C15.065 17.4081 15.0541 17.4037 15.0541 17.3928C15.0541 17.3797 15.065 17.3687 15.076 17.3687C15.0891 17.3687 15.0979 17.3731 15.0979 17.3775ZM14.9665 17.4344C14.9489 17.4453 14.9292 17.4497 14.9248 17.4431C14.9183 17.4366 14.927 17.4234 14.9446 17.4125C14.9621 17.4016 14.9818 17.3972 14.9862 17.4037C14.9928 17.4103 14.984 17.4234 14.9665 17.4344ZM23.893 17.5941C24.0288 17.6641 24.1165 17.7341 24.2895 17.9047C24.41 18.025 24.5568 18.1956 24.6137 18.2809L24.7167 18.4384L24.6794 18.5609L24.64 18.6834L24.5633 18.6703C24.2829 18.6178 23.8733 18.3991 23.7178 18.2175C23.5579 18.0316 23.4746 17.745 23.5294 17.5656C23.5557 17.4759 23.5579 17.4737 23.6367 17.4891C23.6805 17.4978 23.7966 17.5437 23.893 17.5941ZM16.5262 17.885C16.5174 17.9987 16.4232 18.2 16.3816 18.2C16.3553 18.2 16.1844 18.13 16.1297 18.0972C16.1253 18.095 16.1384 18.0775 16.1581 18.0578C16.1932 18.0228 16.2085 17.9769 16.2195 17.8719C16.226 17.8216 16.237 17.8172 16.3575 17.8041C16.5349 17.7887 16.5327 17.7887 16.5262 17.885ZM22.9708 18.2787C23.0957 18.5522 23.3191 18.7994 23.6192 18.9984C23.7835 19.1078 24.0485 19.2303 24.2172 19.2741C24.2742 19.2894 24.3202 19.3112 24.3202 19.3222C24.3202 19.3506 24.1844 19.5387 24.0617 19.6831C23.6696 20.1447 23.0277 20.3984 22.5261 20.2912C22.0004 20.1797 21.7945 19.8253 21.9347 19.2719C22.042 18.8497 22.2786 18.4384 22.686 17.9616L22.8394 17.7822L22.8766 17.9681C22.8963 18.0709 22.9401 18.2109 22.9708 18.2787ZM16.6904 17.8544C16.754 17.8784 16.7627 17.8894 16.7627 17.9637C16.7627 18.0709 16.6751 18.1737 16.5612 18.1978C16.5152 18.2087 16.478 18.2131 16.478 18.2087C16.478 18.2044 16.4999 18.1606 16.524 18.1125C16.5502 18.0622 16.5765 17.9791 16.5831 17.9244C16.5941 17.8172 16.5919 17.8194 16.6904 17.8544ZM14.8745 18.0075C14.9227 18.0097 14.9533 18.0228 14.9599 18.0447C14.9643 18.0644 14.984 18.1125 15.0015 18.1497L15.0322 18.2219H14.9555C14.8197 18.2219 14.7737 18.1912 14.7387 18.0666C14.6905 17.9091 14.6948 17.8806 14.754 17.9484C14.7868 17.9878 14.8263 18.0053 14.8745 18.0075ZM15.4725 18.06C15.5207 18.1016 15.5032 18.1716 15.4396 18.1869C15.4112 18.1934 15.3213 18.2044 15.2359 18.2131L15.0826 18.2284L15.0563 18.1562C15.0431 18.1169 15.0322 18.0819 15.0322 18.0797C15.0322 18.0753 15.0672 18.0906 15.1089 18.1125C15.1987 18.1584 15.2972 18.1431 15.3695 18.0687C15.4221 18.0162 15.4243 18.0162 15.4725 18.06ZM15.7879 18.0906C15.7945 18.1016 15.7814 18.1125 15.7595 18.1125C15.7354 18.1125 15.6762 18.1278 15.6236 18.1453C15.5601 18.1672 15.536 18.1694 15.5404 18.1519C15.5448 18.1387 15.5886 18.1147 15.6368 18.0994C15.7485 18.0666 15.7704 18.0644 15.7879 18.0906ZM9.49006 18.9569C9.84493 19.2478 10.2633 19.5409 10.6204 19.7487C10.811 19.8581 11.2447 20.0747 11.4462 20.1578C11.5317 20.1928 11.5908 20.23 11.5842 20.2453C11.5799 20.2584 11.4703 20.4072 11.3411 20.5734C11.2118 20.7419 11.1001 20.8906 11.0957 20.9059C11.0804 20.9453 11.0169 20.9409 10.7124 20.8797C9.93913 20.7222 9.22281 20.4575 8.71241 20.1359C8.46707 19.9828 8.19982 19.7816 8.18449 19.7422C8.17791 19.7247 8.20201 19.67 8.23706 19.6175C8.37506 19.4162 8.49555 19.1209 8.53498 18.8781C8.54593 18.8212 8.57222 18.7862 8.63574 18.7403C8.68393 18.7075 8.76937 18.6266 8.82632 18.5609L8.92928 18.4428L9.11767 18.6222C9.22062 18.7206 9.3871 18.8716 9.49006 18.9569ZM17.4352 19.0094C17.4265 19.1844 17.4111 19.39 17.398 19.4687C17.3389 19.8275 17.2819 20.1031 17.2644 20.1031C17.2556 20.1031 17.1899 20.0681 17.1176 20.0287C17.0475 19.9872 16.938 19.9325 16.8745 19.9062C16.8131 19.8822 16.7058 19.8253 16.6379 19.7794L16.513 19.6984L16.5218 19.5672C16.5305 19.4097 16.5349 19.3222 16.5393 19.1603L16.5437 19.0378L16.6488 18.9984C16.8241 18.9328 17.0891 18.7884 17.2534 18.6681L17.4089 18.5544L17.4287 18.6222C17.4374 18.6616 17.4418 18.8344 17.4352 19.0094ZM14.1757 18.8234C14.3181 18.8847 14.432 18.9503 14.4451 18.9744C14.4758 19.0291 14.3991 19.6372 14.3575 19.6787C14.2085 19.8275 14.0727 19.9062 13.6587 20.0791L13.3915 20.1906L13.2644 20.1425C13.1943 20.1162 13.1352 20.0944 13.1308 20.09C13.1264 20.0878 13.1505 20.02 13.1834 19.9391C13.2513 19.7684 13.4199 19.5081 13.5207 19.4141C13.685 19.2609 13.8931 18.9 13.8931 18.7644C13.8931 18.7294 13.9019 18.7031 13.9106 18.7075C13.9194 18.7097 14.0377 18.7622 14.1757 18.8234Z" fill="white"/>
<path d="M27.8252 17.2462C27.8252 17.2812 27.915 17.3096 27.9676 17.29C27.9983 17.2768 27.9895 17.2681 27.9347 17.2462C27.8449 17.2069 27.8252 17.2091 27.8252 17.2462Z" fill="white"/>
</g>
<defs>
<clipPath id="clip0_25_789">
<rect width="28.0392" height="22.4" fill="white" transform="translate(0.81543)"/>
</clipPath>
</defs>
</svg>
