<svg xmlns="http://www.w3.org/2000/svg" version="1.1" xmlns:xlink="http://www.w3.org/1999/xlink" xmlns:svgjs="http://svgjs.com/svgjs" width="512" height="512" x="0" y="0" viewBox="0 0 511.996 511.996" style="enable-background:new 0 0 512 512" xml:space="preserve" class=""><g><g xmlns="http://www.w3.org/2000/svg"><path d="m172.155 419.926-42.445-14.385-1.687-11.458 65.107-10.783v-82.523c0-21.699-10.25-43.708-28.123-60.383-17.43-16.263-39.878-25.59-61.589-25.59s-44.16 9.327-61.59 25.589c-17.873 16.675-28.123 38.684-28.123 60.384v82.523l65.107 10.783-1.687 11.458-42.446 14.385c-23.833 8.077-35.104 17.136-34.668 46.745l-.01 45.3h206.831l-.01-45.299c.438-29.61-10.834-38.669-34.667-46.746zm-31.497 5.163-16.158 21.788-11.234-15.027 11.762-12.058zm5.252-80.412c0 21.392-25.712 38.753-42.492 38.753-23.456 0-42.492-23.45-42.492-38.753v-26.583l24.578-23.356 60.406 25.139zm-52.43 52.765c3.279.643 6.601.988 9.938.988s6.658-.345 9.937-.988l1.642 11.15-11.579 11.872-11.58-11.871zm-64.774-96.665c0-17.556 8.513-35.568 23.355-49.416 14.683-13.7 33.402-21.557 51.357-21.557 17.954 0 36.673 7.857 51.356 21.558 14.843 13.849 23.355 31.86 23.355 49.416v69.803l-29.568 4.897c7.807-9.617 12.347-20.762 12.347-30.799v-34.804l-78.659-32.736-36.325 34.519v33.021c0 10.037 4.54 21.182 12.347 30.799l-29.567-4.897v-69.804zm53.103 119.015 11.762 12.059-11.234 15.026-16.158-21.788zm110.022 77.178h-176.826l.007-30.354-.001-.116c-.307-20.143 3.583-25.286 24.484-32.369l11.76-3.985 31.033 41.847 21.13-28.263 21.13 28.263 31.033-41.846 11.759 3.985c20.901 7.083 24.791 12.226 24.484 32.369l-.001.058z" fill="#ffffff" data-original="#000000" class=""></path><path d="m431.079 511.97h80.915l-.01-45.299c.278-18.891-4.218-29.412-13.693-36.654v-129.24c0-21.699-10.25-43.708-28.123-60.383-17.43-16.263-39.879-25.59-61.59-25.59s-44.16 9.327-61.589 25.589c-17.873 16.675-28.123 38.684-28.123 60.384v129.24c-9.475 7.243-13.972 17.763-13.694 36.654l-.009 45.3h80.916v-15h-65.913l.006-30.354-.001-.116c-.306-20.143 3.583-25.286 24.484-32.369l11.76-3.985 31.033 41.847 21.13-28.263 21.13 28.263 31.033-41.846 11.759 3.985c20.901 7.083 24.791 12.226 24.484 32.369l-.001.058.007 30.411h-65.912v14.999zm-59.74-86.881 15.63-5.297 11.762 12.059-11.234 15.026zm37.239-41.659c-23.456 0-42.492-23.45-42.492-38.753v-26.583l24.578-23.356 60.406 25.139v24.799c0 21.393-25.712 38.754-42.492 38.754zm0 15c3.337 0 6.659-.345 9.938-.988l1.642 11.15-11.58 11.872-11.579-11.872 1.642-11.15c3.279.643 6.6.988 9.937.988zm21.082 48.447-11.234-15.026 11.762-12.059 15.63 5.297zm5.21-41.336-1.929-13.101c5.815-2.954 11.306-6.952 16.255-11.917 10.566-10.598 16.874-23.998 16.874-35.847v-34.804l-78.659-32.736-36.325 34.519v33.021c0 11.849 6.308 25.25 16.874 35.847 4.95 4.965 10.44 8.963 16.255 11.917l-1.929 13.1-42.446 14.385c-2.09.708-4.077 1.425-5.975 2.162v-121.31c0-17.556 8.513-35.567 23.355-49.416 14.683-13.7 33.402-21.557 51.356-21.557s36.673 7.857 51.357 21.558c14.843 13.849 23.355 31.86 23.355 49.416v121.311c-1.897-.737-3.885-1.454-5.975-2.162z" fill="#ffffff" data-original="#000000" class=""></path><path d="m401.079 496.97h15v15h-15z" fill="#ffffff" data-original="#000000" class=""></path><path d="m237.441 124.564c12.406 0 22.5-10.093 22.5-22.5v-37.5c0-12.406-10.093-22.5-22.499-22.5-12.407 0-22.5 10.093-22.5 22.5v37.501c-.001 12.406 10.092 22.499 22.499 22.499zm-7.5-60c0-4.135 3.365-7.5 7.5-7.5s7.499 3.364 7.499 7.5v37.501c0 4.135-3.364 7.5-7.5 7.5s-7.5-3.364-7.5-7.5v-37.501z" fill="#ffffff" data-original="#000000" class=""></path><path d="m237.441 184.563c12.406 0 22.5-10.093 22.5-22.5s-10.093-22.5-22.5-22.5-22.5 10.093-22.5 22.5 10.093 22.5 22.5 22.5zm0-29.999c4.135 0 7.5 3.365 7.5 7.5s-3.364 7.5-7.5 7.5-7.5-3.364-7.5-7.5 3.365-7.5 7.5-7.5z" fill="#ffffff" data-original="#000000" class=""></path><path d="m361.827 195.639h53.187l-19.168-44.854c4.926-12.025 7.422-24.616 7.422-37.474 0-29.892-13.476-58.086-37.945-79.39-24.073-20.955-56.238-32.992-90.572-33.891l-.196-.005-.196.005c-6.138.16-12.289.7-18.316 1.576-6.041-.88-12.187-1.414-18.406-1.576l-.196-.005-.196.005c-29.658.776-57.421 9.712-80.29 25.842l8.646 12.258c20.39-14.382 45.228-22.368 71.841-23.1 30.783.848 59.514 11.571 80.917 30.204 21.148 18.412 32.795 42.588 32.795 68.077 0 25.685-12.938 50.263-36.43 69.208-21.658 17.466-50.534 28.327-77.283 29.077-30.15-.831-58.458-11.191-79.726-29.184l-2.097-1.774h-35.912l12.79-29.926-1.341-2.995c-4.926-11.003-7.424-22.579-7.424-34.406 0-24.473 10.854-47.938 30.563-66.073l-10.157-11.038c-22.832 21.009-35.406 48.394-35.406 77.111 0 12.858 2.496 25.449 7.421 37.474l-19.168 44.854h53.188c23.644 19.133 54.446 30.104 87.075 30.958l.196.005.196-.005c6.074-.159 12.217-.778 18.355-1.815 6.442 1.07 13.013 1.6 19.639 1.6 30.391.001 61.833-11.009 86.194-30.743zm4.326-82.327c0-29.892-13.476-58.086-37.945-79.39-5.706-4.968-11.871-9.427-18.408-13.363 17.124 5.049 32.738 13.415 45.672 24.676 21.148 18.411 32.795 42.588 32.795 68.076 0 11.828-2.498 23.403-7.425 34.406l-1.341 2.995 12.79 29.927h-35.912l-2.097 1.774c-14.317 12.112-32.017 20.809-50.378 25.34 35.224-19.743 62.249-53.526 62.249-94.441z" fill="#ffffff" data-original="#000000" class=""></path><path d="m299.825 58.687h15v15h-15z" fill="#ffffff" data-original="#000000" class=""></path><path d="m314.826 88.686h15v15h-15z" fill="#ffffff" data-original="#000000" class=""></path></g></g></svg>