<svg xmlns="http://www.w3.org/2000/svg" version="1.1" xmlns:xlink="http://www.w3.org/1999/xlink" xmlns:svgjs="http://svgjs.com/svgjs" width="512" height="512" x="0" y="0" viewBox="0 0 512 512" style="enable-background:new 0 0 512 512" xml:space="preserve" class=""><g><g xmlns="http://www.w3.org/2000/svg"><g><circle cx="196" cy="75" r="15" fill="#ffffff" data-original="#000000" class=""></circle><path d="m196 150h120c8.271 0 15 6.729 15 15s-6.729 15-15 15c-4.007 0-7.773-1.56-10.606-4.393-5.856-5.858-15.354-5.858-21.213 0-5.858 5.858-5.858 15.355 0 21.213 8.499 8.499 19.799 13.18 31.819 13.18 24.813 0 45-20.187 45-45 0-24.4-19.518-44.326-43.762-44.983-.237-.011-.476-.017-.716-.017h-120.522c-8.284 0-15 6.716-15 15s6.716 15 15 15z" fill="#ffffff" data-original="#000000" class=""></path><path d="m256 90h60.962v-.01c24.371-.513 44.038-20.498 44.038-44.99 0-24.813-20.187-45-45-45-12.02 0-23.32 4.681-31.819 13.18-5.858 5.858-5.858 15.355 0 21.213 5.857 5.858 15.355 5.858 21.213 0 2.833-2.833 6.599-4.393 10.606-4.393 8.271 0 15 6.729 15 15s-6.729 15-15 15h-60c-8.284 0-15 6.716-15 15s6.716 15 15 15z" fill="#ffffff" data-original="#000000" class=""></path><path d="m85.787 346.944c14.815.721 42.126-7.037 62.286-27.558 17.365-17.675 26.927-40.985 26.927-65.638 0-65.478-52.821-118.748-117.748-118.748h-5.252c-5.532 0-10.615 3.045-13.226 7.922-2.609 4.877-2.323 10.796.745 15.398 5.322 7.984 7.086 17.637 4.964 27.18-2.169 9.757-8.028 17.961-16.5 23.1-12.765 7.745-27.983 23.687-27.983 55.652 0 45.44 38.263 84.256 85.787 82.692zm.485-30.052c-7.459-.86-13.272-7.206-13.272-14.892 0-2.674.67-5.189 1.991-7.477.025-.041 13.009-23.026 13.009-23.026s12.982 22.98 13.006 23.02c1.323 2.293 1.994 4.811 1.994 7.483 0 7.725-4.776 14.211-16.728 14.892zm-42.728-82.643c15.305-9.285 26.321-24.68 30.225-42.239 1.888-8.492 2.098-17.047.696-25.296 40.173 8.112 70.535 44.054 70.535 87.034 0 14.561-4.88 27.978-13.049 38.681-.977-4.494-2.62-8.833-4.922-12.837l-25.97-45.969c-2.66-4.711-7.65-7.623-13.059-7.623s-10.399 2.913-13.061 7.622l-25.964 45.961c-3.351 5.824-5.336 12.351-5.838 19.053-8.133-9.311-13.137-21.384-13.137-34.384 0-14.659 4.431-24.474 13.544-30.003z" fill="#ffffff" data-original="#000000" class=""></path><path d="m436 362c41.457 0 76-33.535 76-75 0-13.621-3.558-27.282-10.018-38.464-.008-.014-.017-.029-.024-.043l-52.994-91.039c-2.697-4.634-7.693-7.462-13.025-7.454-5.362.022-10.305 2.905-12.964 7.561l-51.957 90.975c-6.46 11.182-10.018 24.843-10.018 38.464 0 41.355 33.645 75 75 75zm-38.969-98.522 39.093-68.448 39.891 68.528c3.803 6.592 5.985 15.135 5.985 23.442 0 24.393-21.065 45-46 45-24.813 0-45-20.187-45-45 0-8.313 2.185-16.864 6.031-23.522z" fill="#ffffff" data-original="#000000" class=""></path><path d="m271 422h15c41.355 0 75-33.645 75-75 0-8.284-6.716-15-15-15h-30c-32.178 0-59.68 20.372-70.305 48.894-13.243-11.743-30.645-18.894-49.695-18.894h-30c-8.284 0-15 6.716-15 15 0 41.355 33.645 75 75 75h15v30h-45c-8.284 0-15 6.716-15 15s6.716 15 15 15h120c8.284 0 15-6.716 15-15s-6.716-15-15-15h-45zm45-60.01 12.43.01c-6.181 17.434-22.883 30-42.43 30h-12.43c6.191-17.461 22.873-30.01 42.43-30.01zm-90 60.01c-19.557 0-36.239-12.539-42.43-30h12.43c19.557 0 36.239 12.539 42.43 30z" fill="#ffffff" data-original="#000000" class=""></path><path d="m406 90c8.271 0 15 6.729 15 15 0 8.284 6.716 15 15 15s15-6.716 15-15c0-24.813-20.187-45-45-45-8.284 0-15 6.716-15 15s6.716 15 15 15z" fill="#ffffff" data-original="#000000" class=""></path><path d="m76 120c8.284 0 15-6.716 15-15 0-8.271 6.729-15 15-15 8.284 0 15-6.716 15-15s-6.716-15-15-15c-24.813 0-45 20.187-45 45 0 8.284 6.716 15 15 15z" fill="#ffffff" data-original="#000000" class=""></path><path d="m421 407c0 8.271-6.729 15-15 15-8.284 0-15 6.716-15 15s6.716 15 15 15c24.813 0 45-20.187 45-45 0-8.284-6.716-15-15-15s-15 6.716-15 15z" fill="#ffffff" data-original="#000000" class=""></path><path d="m91 407c0-8.284-6.716-15-15-15s-15 6.716-15 15c0 24.813 20.187 45 45 45 8.284 0 15-6.716 15-15s-6.716-15-15-15c-8.271 0-15-6.729-15-15z" fill="#ffffff" data-original="#000000" class=""></path></g></g></g></svg>