<svg xmlns="http://www.w3.org/2000/svg" version="1.1" xmlns:xlink="http://www.w3.org/1999/xlink" xmlns:svgjs="http://svgjs.com/svgjs" width="512" height="512" x="0" y="0" viewBox="0 0 64 64" style="enable-background:new 0 0 512 512" xml:space="preserve" class=""><g><title xmlns="http://www.w3.org/2000/svg">Easter</title><path xmlns="http://www.w3.org/2000/svg" d="M35,12h5a1,1,0,0,0,1-1V7a1,1,0,0,0-1-1H35V1a1,1,0,0,0-1-1H30a1,1,0,0,0-1,1V6H24a1,1,0,0,0-1,1v4a1,1,0,0,0,1,1h5V23a1,1,0,0,0,1,1h4a1,1,0,0,0,1-1Zm-1-2a1,1,0,0,0-1,1V22H31V11a1,1,0,0,0-1-1H25V8h5a1,1,0,0,0,1-1V2h2V7a1,1,0,0,0,1,1h5v2Z" fill="#ffffff" data-original="#000000"></path><path xmlns="http://www.w3.org/2000/svg" d="M61.5742,11.9375a4.0147,4.0147,0,0,0-3.2832-.876H58.29a3.6561,3.6561,0,0,0-.7028.1991,3.9752,3.9752,0,0,0-7.1748.0042A3.9377,3.9377,0,0,0,49,11a4.0039,4.0039,0,0,0-4,4v3.1462A3.9027,3.9027,0,0,0,44,18a4.0039,4.0039,0,0,0-4,4v8.5431L38.0645,33.085A15.0869,15.0869,0,0,0,35,42.1709V63a1,1,0,0,0,1,1H53a1,1,0,0,0,1-1V53.3223l6.7383-9.3594A11.9289,11.9289,0,0,0,63,36.9521V15A3.9941,3.9941,0,0,0,61.5742,11.9375ZM54,11a1.9922,1.9922,0,0,1,1.9247,1.5075A4.3054,4.3054,0,0,0,55,15.17V30.78a4.0093,4.0093,0,0,1-2.3447,3.6416L52,34.72V13A2.0027,2.0027,0,0,1,54,11ZM50,35.6288l-2.5527,1.16L50,32.4135ZM49,13a1.9614,1.9614,0,0,1,1,.2813v10.888a4.3149,4.3149,0,0,0-2.9443-.7084c-.0192.0024-.0366.01-.0557.0125V15A2.0027,2.0027,0,0,1,49,13Zm-7,9a2.0027,2.0027,0,0,1,2-2,1.9593,1.9593,0,0,1,1,.2814v4.0174a4.38,4.38,0,0,0-.9.86L42,27.9165ZM61,36.9521a9.94,9.94,0,0,1-1.8848,5.8428L52.1885,52.416A1.0009,1.0009,0,0,0,52,53v9H37V42.1709a13.08,13.08,0,0,1,2.6562-7.875L45.6914,26.37a2.3912,2.3912,0,0,1,3.3975-.418,2.4056,2.4056,0,0,1,.5713,3.0733l-5.5245,9.4707A1,1,0,0,0,45.4141,39.91l8.0693-3.668A6.0124,6.0124,0,0,0,57,30.78V15.17a2.1186,2.1186,0,0,1,1.6328-2.1377A2.003,2.003,0,0,1,61,15Z" fill="#ffffff" data-original="#000000"></path><path xmlns="http://www.w3.org/2000/svg" d="M24,30.5431V22a4.0039,4.0039,0,0,0-4-4,3.9027,3.9027,0,0,0-1,.1462V15a4.0039,4.0039,0,0,0-4-4,3.9377,3.9377,0,0,0-1.4124.2648,3.9752,3.9752,0,0,0-7.1748-.0042,3.6561,3.6561,0,0,0-.7028-.1991H5.709A4.0013,4.0013,0,0,0,1,15V36.9521a11.9289,11.9289,0,0,0,2.2617,7.0108L10,53.3223V63a1,1,0,0,0,1,1H28a1,1,0,0,0,1-1V42.1709a15.0869,15.0869,0,0,0-3.0645-9.0859ZM20,20a2.0027,2.0027,0,0,1,2,2v5.9165l-2.1-2.7573a4.3825,4.3825,0,0,0-.9-.86V20.2815A1.9582,1.9582,0,0,1,20,20Zm-3-5v8.4734c-.0191-.0026-.0365-.01-.0557-.0125A4.3142,4.3142,0,0,0,14,24.1694V13.2813A1.9614,1.9614,0,0,1,15,13,2.0027,2.0027,0,0,1,17,15ZM14,32.4135l2.5527,4.3756L14,35.6288ZM10,11a2.0027,2.0027,0,0,1,2,2V34.72l-.6553-.2978A4.0093,4.0093,0,0,1,9,30.78V15.17a4.3054,4.3054,0,0,0-.9247-2.6624A1.9922,1.9922,0,0,1,10,11ZM27,62H12V53a1.0009,1.0009,0,0,0-.1885-.584L4.8848,42.7949A9.94,9.94,0,0,1,3,36.9521V15a2.003,2.003,0,0,1,2.3672-1.9678A2.1186,2.1186,0,0,1,7,15.17V30.78a6.0124,6.0124,0,0,0,3.5166,5.4619l8.0693,3.668a1,1,0,0,0,1.2784-1.4141L14.34,29.0254a2.4056,2.4056,0,0,1,.5713-3.0733,2.3912,2.3912,0,0,1,3.3975.418l6.0352,7.9258A13.08,13.08,0,0,1,27,42.1709Z" fill="#ffffff" data-original="#000000"></path></g></svg>