<svg width="29" height="28" viewBox="0 0 29 28" fill="none" xmlns="http://www.w3.org/2000/svg">
<g clip-path="url(#clip0_29_854)">
<path d="M21.4093 0.826958C18.4889 0.826958 16.279 2.53848 14.3995 4.32696C12.6085 2.42909 10.3102 0.826958 7.38969 0.826958C3.27667 0.826958 0.379883 4.35843 0.379883 8.20935C0.379883 10.2752 1.2272 11.7636 2.1551 13.161L13.0492 26.2037C14.2724 27.4961 14.5029 27.4961 15.7261 26.2037L26.6447 13.161C27.7356 11.7636 28.4191 10.2752 28.4191 8.20935C28.4191 4.35848 25.5223 0.826958 21.4093 0.826958ZM24.9142 12.7987L14.3995 25.3269L3.88478 12.7471C2.62742 11.0015 2.13233 9.82374 2.13233 8.20935C2.13233 5.20109 4.28347 2.49296 7.38969 2.46756C9.94478 2.44656 12.8407 5.0523 14.3995 7.01669C15.9171 5.12056 18.8542 2.46756 21.4093 2.46756C24.4331 2.46756 26.6666 5.20109 26.6666 8.20935C26.6666 9.82374 26.275 11.089 24.9142 12.7987Z" fill="white"/>
</g>
<defs>
<clipPath id="clip0_29_854">
<rect width="28.0392" height="28" fill="white" transform="translate(0.379883)"/>
</clipPath>
</defs>
</svg>
