<svg width="29" height="28" viewBox="0 0 29 28" fill="none" xmlns="http://www.w3.org/2000/svg">
<path d="M8.75282 28C6.88409 24.117 7.87926 21.892 9.31552 19.7957C10.8884 17.5 11.2937 15.2275 11.2937 15.2275C11.2937 15.2275 12.5301 16.8326 12.0355 19.343C14.2198 16.9149 14.6321 13.0463 14.3022 11.5647C19.2396 15.0102 21.3498 22.4709 18.506 28C33.6312 19.4543 22.2683 6.66719 20.29 5.2268C20.9495 6.66714 21.0745 9.1055 19.7424 10.2889C17.4874 1.74998 11.9119 0 11.9119 0C12.5713 4.40354 9.5216 9.2188 6.58074 12.8168C6.47744 11.0609 6.36766 9.84927 5.443 8.16895C5.23544 11.3587 2.79429 13.9589 2.13323 17.1549C1.2378 21.483 2.80396 24.652 8.75282 28Z" fill="white"/>
</svg>
