<svg xmlns="http://www.w3.org/2000/svg" version="1.1" xmlns:xlink="http://www.w3.org/1999/xlink" xmlns:svgjs="http://svgjs.com/svgjs" width="512" height="512" x="0" y="0" viewBox="0 0 512 512" style="enable-background:new 0 0 512 512" xml:space="preserve" class=""><g><g xmlns="http://www.w3.org/2000/svg"><g><path d="m482.523 377.146c-5.702-13.413-20.371-24.21-40.28-18.103 0 0-11.103 3.443-12.635 3.443-.016 0-.031-.001-.046-.001-.184-.132-12.248-13.168-12.248-13.168-17.081-18.634-21.009-34.793-25.557-53.504-1.135-4.667-2.308-9.494-3.716-14.444-4.626-16.273-13.452-31.251-24.853-42.175-13.129-12.581-28.856-19.231-45.482-19.231h-18.458v-16.699c27.803-15.315 46.685-44.908 46.685-78.832v-34.496c.001-49.591-40.343-89.936-89.933-89.936s-89.934 40.345-89.934 89.936v34.497c0 33.924 18.881 63.517 46.685 78.832v16.699h-18.458c-16.626 0-32.354 6.65-45.482 19.231-11.4 10.924-20.227 25.901-24.852 42.173-1.409 4.952-2.582 9.779-3.717 14.446-4.548 18.711-8.476 34.87-25.554 53.5 0 0-12.281 13.173-12.297 13.173-1.532 0-5.905-1.358-9.786-2.563l-2.848-.881c-19.914-6.109-34.579 4.689-40.281 18.103-6.344 14.92-2.743 36.513 16.425 47.143l20.905 11.598c-2.932 7.78-4.426 16.952-4.426 27.505 0 29.982 22.6 48.607 58.98 48.607h110.404 69.049c5.522 0 10-4.478 10-10s-4.478-10-10-10h-11.187l-6.169-38.927 89.964-23.05c.134-.035.268-.072.4-.112 19.497-5.869 35.213-5.406 44.245 1.31 7.666 5.698 11.553 16.522 11.553 32.173 0 24.891-24.423 28.607-38.98 28.607-5.522 0-10 4.478-10 10s4.478 10 10 10c36.381 0 58.98-18.625 58.98-48.607 0-10.553-1.494-19.725-4.426-27.505l20.903-11.597c19.171-10.632 22.771-32.225 16.427-47.145zm-226.523-357.146c38.562 0 69.934 31.373 69.934 69.936v3.933c-10.99.025-27.126-2.904-43.352-8.063-24.405-7.76-36.632-16.322-38.606-19.896-1.76-3.186-5.113-5.164-8.753-5.164-3.641 0-6.993 1.979-8.753 5.165-6.552 11.86-22.958 27.082-40.403 27.894v-3.868c-.001-38.564 31.372-69.937 69.933-69.937zm-69.934 104.433v-10.563c21.122-.502 39.412-14.096 50.514-27.561 11.592 8.628 28.809 15.017 39.941 18.557 7.574 2.408 30.104 9.013 49.141 9.013.09 0 .182 0 .271-.001v10.556c0 38.563-31.372 69.936-69.934 69.936s-69.933-31.375-69.933-69.937zm93.183 86.882v9.692c0 12.836-10.43 23.278-23.249 23.278s-23.249-10.442-23.249-23.278v-9.692c7.419 1.987 15.211 3.053 23.249 3.053s15.83-1.066 23.249-3.053zm-201.694 207.664-21.952-12.179c-9.032-5.009-10.721-14.772-7.721-21.827 1.646-3.872 5.914-9.907 16.01-6.808l2.785.86c12.12 3.763 21.693 6.731 31.724-4.171l4.266-4.65 23.367 21.438-13.019 14.19c-12.31.114-22.794 3.228-31.012 9.336-1.579 1.173-3.059 2.447-4.448 3.811zm121.813 64.908c.359 2.856 1.081 5.571 2.107 8.113h-80.115c-14.558 0-38.98-3.717-38.98-28.607 0-15.65 3.887-26.475 11.553-32.173 9.033-6.714 24.748-7.179 44.245-1.31.084.025 46.246 11.857 80.137 20.543-14.912 7.806-20.44 21.559-18.947 33.434zm-62.078-74.931 26.48-28.862v35.737c.001 0-24.359-6.352-26.48-6.875zm94.475 83.044c-7.708 0-11.91-5.499-12.553-10.608-.905-7.2 4.713-13.072 15.035-15.71l29.751-7.623 5.378 33.941zm106.465-184.305c-5.522 0-10 4.478-10 10v103.26l-72.233 18.508-72.226-18.507v-103.26c0-5.522-4.478-10-10-10s-10 4.478-10 10v32.816l-24.216 26.393-23.656-21.703c15.205-19.434 19.56-37.311 23.777-54.663 1.09-4.483 2.217-9.118 3.521-13.7 6.418-22.576 25.145-46.875 51.097-46.875h22.837c7.036 14.387 21.813 24.321 38.87 24.321s31.834-9.934 38.87-24.321h22.837c25.952 0 44.679 24.299 51.098 46.877 1.303 4.58 2.43 9.215 3.52 13.698 4.217 17.351 8.571 35.228 23.777 54.663l-23.656 21.703-24.216-26.393v-32.816c-.001-5.523-4.479-10.001-10.001-10.001zm30.03 103.003-20.03 5.132v-35.736l26.48 28.862c-2.121.523-4.262 1.087-6.45 1.742zm88.136-3.897-21.95 12.178c-1.389-1.365-2.869-2.638-4.447-3.811-8.218-6.108-18.702-9.223-31.012-9.336l-13.019-14.189 23.367-21.438 4.275 4.659c10.021 10.894 19.594 7.925 31.714 4.161l2.786-.86c10.095-3.099 14.363 2.936 16.009 6.808 2.999 7.054 1.311 16.818-7.723 21.828z" fill="#ffffff" data-original="#000000" class=""></path><path d="m345.741 492c-5.522 0-10 4.478-10 10s4.478 10 10 10h.028c5.522 0 9.985-4.478 9.985-10s-4.49-10-10.013-10z" fill="#ffffff" data-original="#000000" class=""></path></g></g></g></svg>