<svg width="26" height="25" viewBox="0 0 26 25" fill="none" xmlns="http://www.w3.org/2000/svg">
<path d="M9.57162 1.78075C9.48499 2.63 9.40338 3.38325 9.38911 3.4505C9.37459 3.53675 9.29298 3.61375 9.14402 3.70475C9.01909 3.77675 8.89893 3.83425 8.87489 3.83425C8.85086 3.83425 8.76924 3.676 8.7019 3.47925C8.54818 3.0475 8.30785 2.6395 8.07728 2.41875C7.92356 2.27 6.58294 1.33425 6.52536 1.33425C6.51084 1.33425 6.63576 1.579 6.804 1.8765C7.65919 3.40725 7.85622 3.959 7.93808 5.0865C7.97664 5.667 8.03422 5.95975 8.14938 6.238C8.17817 6.31475 8.1301 6.32425 7.64968 6.334L7.11143 6.34825L7.85146 6.9L8.58674 7.447L8.42827 7.65825C8.236 7.90775 8.13511 8.24375 8.10156 8.71375C8.08228 9.03525 8.06801 9.0785 7.89026 9.2895C7.17902 10.1292 6.63626 11.6023 6.51609 13.0275L6.47754 13.4257H6.98675H7.49121L7.55379 13.6032C7.66921 13.968 7.87574 14.3663 8.0968 14.6588L8.32262 14.961L8.2698 15.3305C8.18342 15.9303 8.03447 16.6693 7.8805 17.245C7.7363 17.7873 7.70275 18.219 7.78437 18.5022L7.83243 18.6558H7.61588H7.40459V21.7025V24.75H10.8161H14.2276L14.2324 23.44C14.2324 22.6915 14.2517 22.1973 14.2757 22.2787C14.295 22.3555 14.4054 22.9457 14.516 23.5888L14.7226 24.75H16.981H19.2394L19.2106 24.4332C19.1913 24.2605 19.1385 24.0495 19.0904 23.963C18.9655 23.747 18.605 23.5215 18.216 23.4255L17.8795 23.339V20.0043V16.6742L18.0092 16.4103C18.0813 16.2663 18.1484 16.036 18.1581 15.8968C18.1774 15.6713 18.1629 15.6328 18.0284 15.4792L17.8795 15.3065V12.308V9.30425L18.1341 9.28975L18.3839 9.27525L18.3985 8.685L18.413 8.0995H17.4952H16.5822V8.69925V9.299H16.8463H17.1107L17.1011 12.2595L17.0866 15.2255L16.7264 15.211C16.2362 15.1965 15.924 15.1245 15.4098 14.923C15.1697 14.8317 14.6697 14.6637 14.3 14.5535L13.6273 14.352L13.4207 13.757C13.0695 12.7302 12.6947 11.8138 12.5027 11.5213C12.4066 11.3678 12.2096 11.1423 12.0751 11.0175C11.83 10.8015 11.8253 10.792 11.8253 10.528C11.8253 10.2833 11.8348 10.2593 11.9262 10.2593C12.0318 10.2593 12.0318 10.2545 12.0078 9.42925C11.9742 8.412 11.8683 8.0185 11.5033 7.6155L11.3879 7.49075L12.1472 6.91975L12.9065 6.34875L12.3635 6.3345C11.9214 6.325 11.8253 6.3105 11.8686 6.25775C11.96 6.14725 12.0558 5.63875 12.0896 5.10125C12.1522 4.0265 12.3588 3.42675 13.1804 1.96325C13.3629 1.637 13.5071 1.3635 13.4926 1.35375C13.4638 1.325 12.1472 2.2415 11.9549 2.4285C11.7051 2.6685 11.4793 3.057 11.3208 3.50325C11.2487 3.7095 11.1766 3.8775 11.1573 3.87275C11.1428 3.87275 11.0131 3.79125 10.8689 3.69525L10.6096 3.51775L10.1867 1.896C9.95615 0.998751 9.75913 0.25975 9.74936 0.25025C9.73985 0.240499 9.65799 0.931499 9.57162 1.78075ZM10.72 4.511C10.8401 4.5925 11.0179 4.7365 11.1188 4.82775C11.2918 4.99575 11.2965 5.01 11.2965 5.3315C11.2965 6.02725 11.1188 6.14725 10.0473 6.14725C9.30725 6.14725 9.00933 6.0945 8.87014 5.941C8.81255 5.87875 8.76924 5.706 8.73069 5.4325L8.68262 5.015L8.91795 4.80875C9.05239 4.6985 9.35031 4.48725 9.58113 4.3385L10.004 4.0745L10.2538 4.22325C10.3885 4.29975 10.5998 4.43425 10.72 4.511ZM10.5517 7.841C10.7392 7.90825 10.9601 8.10975 11.0562 8.28725C11.1571 8.48875 11.2485 8.959 11.2485 9.28525C11.2485 9.458 11.2339 9.4915 11.1523 9.4915C11.066 9.4915 11.0562 9.525 11.0562 9.7795V10.0675H10.6238H10.1865L10.201 10.533L10.2155 10.9985L10.5663 11.085C11.0131 11.1905 11.3639 11.392 11.6473 11.6895C11.9837 12.0492 12.0846 12.275 12.6419 13.9062L13.0167 14.9858L13.579 15.1392C14.1988 15.3073 14.9965 15.571 15.3327 15.7245L15.549 15.8253L15.3567 15.7965C14.1938 15.6285 13.0312 15.259 12.7763 14.9808C12.6609 14.8513 12.2191 13.9923 11.8491 13.1863C11.6713 12.8025 11.5031 12.476 11.4743 12.457C11.3636 12.385 11.114 12.4185 10.9939 12.5195C10.917 12.577 10.8354 12.721 10.7873 12.865C10.6864 13.1912 10.6336 14.5205 10.6624 15.859L10.6864 16.8763L10.9556 16.929C12.0271 17.145 13.5071 17.6055 14.2517 17.9558C14.7226 18.1765 14.9148 18.354 14.9965 18.6467C15.0588 18.877 15.1647 19.7552 15.2656 20.8635C15.4288 22.7347 15.6691 23.4978 16.1688 23.7425C16.2792 23.7952 16.5101 23.8672 16.6781 23.9057C16.9905 23.973 16.9857 23.973 16.1784 23.968L15.3615 23.9585L15.227 23.2147C15.1549 22.807 15.0252 22.0393 14.9484 21.5115C14.7754 20.3983 14.6312 19.8705 14.3959 19.5203C14.2469 19.2995 14.2276 19.2373 14.2276 18.9638V18.6568H11.4455H8.6636L8.58674 18.4647C8.47608 18.1865 8.4906 17.9753 8.67311 17.2603C8.8461 16.5885 9.00457 15.7008 9.08143 15.0147L9.12474 14.6165L8.95175 14.463C8.58649 14.1415 8.26454 13.4937 8.19244 12.9085L8.15889 12.659H7.76008C7.27966 12.659 7.29393 12.6925 7.47168 11.9633C7.72629 10.9317 8.09155 10.1975 8.68738 9.53525C8.92271 9.27625 8.92271 9.27625 8.8844 9.03625C8.84109 8.7435 8.90844 8.33575 9.03812 8.1245C9.12449 7.98525 9.34555 7.851 9.59064 7.7935C9.72533 7.76425 10.4366 7.79775 10.5517 7.841ZM12.2671 15.523C12.6324 15.8925 13.4155 16.2093 14.511 16.4203C15.0828 16.5355 16.2217 16.6698 16.8223 16.6985L17.0866 16.713L17.1011 19.947L17.1107 23.181L16.8703 23.1522C16.7406 23.1377 16.5917 23.0995 16.5389 23.0755C16.3083 22.9508 16.1593 22.2215 15.9816 20.3358C15.7893 18.2485 15.6789 17.9175 15.0398 17.5047C14.516 17.1687 13.3484 16.7323 12.1567 16.4253L11.4553 16.2478L11.4312 15.5185C11.4167 15.1202 11.4167 14.6598 11.4312 14.4918L11.4505 14.1895L11.7579 14.7558C11.9262 15.0623 12.152 15.4078 12.2671 15.523ZM13.2523 19.539L13.4348 19.6015L13.4493 21.7943L13.4588 23.9822H10.8161H8.17341V21.7128V19.448L10.6238 19.4625C12.4834 19.472 13.1176 19.491 13.2523 19.539Z" fill="white"/>
</svg>
