<svg version="1.1" xmlns="http://www.w3.org/2000/svg" xmlns:xlink="http://www.w3.org/1999/xlink" viewBox="0 0 172 172"><g fill="none" fill-rule="nonzero" stroke="none" stroke-width="1" stroke-linecap="butt" stroke-linejoin="miter" stroke-miterlimit="10" stroke-dasharray="" stroke-dashoffset="0" font-family="none" font-weight="none" font-size="none" text-anchor="none" style="mix-blend-mode: normal"><path d="M0,172v-172h172v172z" fill="none"></path><g fill="#ffffff"><path d="M85.92126,5.375c-1.45343,0.0426 -2.60939,1.23345 -2.60876,2.6875v8.0625h-2.6875c-1.48427,0 -2.6875,1.20323 -2.6875,2.6875v9.48499c-9.65049,3.41195 -16.10841,12.52915 -16.125,22.76501v2.6875h-8.0625c-1.48427,0 -2.6875,1.20323 -2.6875,2.6875c0,1.48427 1.20323,2.6875 2.6875,2.6875h2.6875v26.875h-5.375c-1.48427,0 -2.6875,1.20323 -2.6875,2.6875v8.0625h-10.75c-1.48427,0 -2.6875,1.20323 -2.6875,2.6875v13.4375h-26.875c-1.48427,0 -2.6875,1.20323 -2.6875,2.6875v10.75c0,1.48427 1.20323,2.6875 2.6875,2.6875h2.6875v34.9375c0,1.48427 1.20323,2.6875 2.6875,2.6875c1.48427,0 2.6875,-1.20323 2.6875,-2.6875v-34.9375h18.8125v34.9375c0,1.48427 1.20323,2.6875 2.6875,2.6875c1.48427,0 2.6875,-1.20323 2.6875,-2.6875v-61.8125h91.375v61.8125c0,1.48427 1.20323,2.6875 2.6875,2.6875c1.48427,0 2.6875,-1.20323 2.6875,-2.6875v-34.9375h18.8125v34.9375c0,1.48427 1.20323,2.6875 2.6875,2.6875c1.48427,0 2.6875,-1.20323 2.6875,-2.6875v-34.9375h2.6875c1.48427,0 2.6875,-1.20323 2.6875,-2.6875v-10.75c0,-1.48427 -1.20323,-2.6875 -2.6875,-2.6875h-26.875v-13.4375c0,-1.48427 -1.20323,-2.6875 -2.6875,-2.6875h-10.75v-8.0625c0,-1.48427 -1.20323,-2.6875 -2.6875,-2.6875h-5.375v-26.875h2.6875c1.48427,0 2.6875,-1.20323 2.6875,-2.6875c0,-1.48427 -1.20323,-2.6875 -2.6875,-2.6875h-51.0625v-2.6875c0.04202,-9.44085 7.07486,-17.38836 16.44047,-18.57865c9.36561,-1.1903 18.16289,4.74533 20.56514,13.87553c0.37107,1.44078 1.83986,2.30796 3.28064,1.93689c1.44078,-0.37107 2.30796,-1.83986 1.93689,-3.28064c-2.01416,-7.78598 -7.76652,-14.06163 -15.34815,-16.74439v-9.45874c0,-1.48427 -1.20323,-2.6875 -2.6875,-2.6875h-2.6875v-8.0625c0.00031,-0.72662 -0.29362,-1.42241 -0.81478,-1.92874c-0.52116,-0.50633 -1.22514,-0.78005 -1.95145,-0.75876zM83.3125,21.5h5.375v5.53772c-0.88687,0 -1.77375,-0.16272 -2.6875,-0.16272c-0.8983,-0.00019 -1.79578,0.05415 -2.6875,0.16272zM61.8125,59.125h48.375v26.875h-48.375zM69.875,64.5c-1.48427,0 -2.6875,1.20323 -2.6875,2.6875v10.75c0,1.48427 1.20323,2.6875 2.6875,2.6875h10.75c1.48427,0 2.6875,-1.20323 2.6875,-2.6875v-10.75c0,-1.48427 -1.20323,-2.6875 -2.6875,-2.6875zM91.375,64.5c-1.48427,0 -2.6875,1.20323 -2.6875,2.6875v10.75c0,1.48427 1.20323,2.6875 2.6875,2.6875h10.75c1.48427,0 2.6875,-1.20323 2.6875,-2.6875c0,-1.48427 -1.20323,-2.6875 -2.6875,-2.6875h-8.0625v-5.375h8.0625c1.48427,0 2.6875,-1.20323 2.6875,-2.6875c0,-1.48427 -1.20323,-2.6875 -2.6875,-2.6875zM72.5625,69.875h5.375v5.375h-5.375zM53.75,91.375h64.5v5.375h-64.5zM48.375,107.5c-1.48427,0 -2.6875,1.20323 -2.6875,2.6875v43c0,1.48427 1.20323,2.6875 2.6875,2.6875c1.48427,0 2.6875,-1.20323 2.6875,-2.6875v-40.3125h5.375v40.3125c0,1.48427 1.20323,2.6875 2.6875,2.6875c1.48427,0 2.6875,-1.20323 2.6875,-2.6875v-43c0,-1.48427 -1.20323,-2.6875 -2.6875,-2.6875zM69.875,107.5c-1.48427,0 -2.6875,1.20323 -2.6875,2.6875v43c0,1.48427 1.20323,2.6875 2.6875,2.6875c1.48427,0 2.6875,-1.20323 2.6875,-2.6875v-40.3125h5.375v40.3125c0,1.48427 1.20323,2.6875 2.6875,2.6875c1.48427,0 2.6875,-1.20323 2.6875,-2.6875v-43c0,-1.48427 -1.20323,-2.6875 -2.6875,-2.6875zM91.375,107.5c-1.48427,0 -2.6875,1.20323 -2.6875,2.6875v43c0,1.48427 1.20323,2.6875 2.6875,2.6875c1.48427,0 2.6875,-1.20323 2.6875,-2.6875v-40.3125h5.375v40.3125c0,1.48427 1.20323,2.6875 2.6875,2.6875c1.48427,0 2.6875,-1.20323 2.6875,-2.6875v-43c0,-1.48427 -1.20323,-2.6875 -2.6875,-2.6875zM112.875,107.5c-1.48427,0 -2.6875,1.20323 -2.6875,2.6875v43c0,1.48427 1.20323,2.6875 2.6875,2.6875c1.48427,0 2.6875,-1.20323 2.6875,-2.6875v-40.3125h5.375v40.3125c0,1.48427 1.20323,2.6875 2.6875,2.6875c1.48427,0 2.6875,-1.20323 2.6875,-2.6875v-43c0,-1.48427 -1.20323,-2.6875 -2.6875,-2.6875zM10.75,118.25h24.1875v5.375h-24.1875zM137.0625,118.25h24.1875v5.375h-24.1875zM24.1875,134.375c-1.48427,0 -2.6875,1.20323 -2.6875,2.6875v16.125c0,1.48427 1.20323,2.6875 2.6875,2.6875c1.48427,0 2.6875,-1.20323 2.6875,-2.6875v-16.125c0,-1.48427 -1.20323,-2.6875 -2.6875,-2.6875zM147.8125,134.375c-1.48427,0 -2.6875,1.20323 -2.6875,2.6875v16.125c0,1.48427 1.20323,2.6875 2.6875,2.6875c1.48427,0 2.6875,-1.20323 2.6875,-2.6875v-16.125c0,-1.48427 -1.20323,-2.6875 -2.6875,-2.6875z"></path></g></g></svg>