<svg width="29" height="28" viewBox="0 0 29 28" fill="none" xmlns="http://www.w3.org/2000/svg">
<path d="M17.4401 14.7897C19.7767 13.3538 21.2865 10.5179 21.2865 7.89744C21.2865 4.1641 18.2309 0 14.0969 0C9.96295 0 6.9074 4.1641 6.9074 7.89744C6.9074 10.5179 8.4172 13.3538 10.7538 14.7897C5.21785 16.2615 1.15576 21.3231 1.15576 27.2821C1.15576 27.6769 1.47929 28 1.87472 28H26.3192C26.7146 28 27.0381 27.6769 27.0381 27.2821C27.0381 21.3231 22.976 16.2615 17.4401 14.7897ZM8.3453 7.89744C8.3453 4.2 11.4009 1.4359 14.0969 1.4359C16.793 1.4359 19.8486 4.2 19.8486 7.89744C19.8486 11.5949 16.793 14.359 14.0969 14.359C11.4009 14.359 8.3453 11.5949 8.3453 7.89744ZM2.62962 26.5641C2.98909 20.5692 8.02177 15.7949 14.0969 15.7949C20.1721 15.7949 25.2048 20.5692 25.5643 26.5641H2.62962Z" fill="white"/>
</svg>
