<svg width="29" height="28" viewBox="0 0 29 28" fill="none" xmlns="http://www.w3.org/2000/svg">
<g clip-path="url(#clip0_29_871)">
<path d="M24.0394 12.4776L23.8403 11.5968L28.4427 10.5442L28.6457 11.429L24.0394 12.4776Z" fill="white"/>
<path d="M26.0898 5.67595L25.5239 4.96664L21.833 7.90311L22.3989 8.61242L26.0898 5.67595Z" fill="white"/>
<path d="M21.2955 1.59824L20.4756 1.20456L18.4302 5.44572L19.2458 5.8394L21.2955 1.59824Z" fill="white"/>
<path d="M15.1942 0H14.2886V4.71296H15.1942V0Z" fill="white"/>
<path d="M11.0525 5.44572L9.00737 1.20456L8.1875 1.59824L10.2369 5.8394L11.0525 5.44572Z" fill="white"/>
<path d="M7.64902 7.90585L3.95996 4.96655L3.39352 5.67549L7.08258 8.61479L7.64902 7.90585Z" fill="white"/>
<path d="M5.64226 11.5968L1.0399 10.5442L0.84082 11.429L5.44318 12.4776L5.64226 11.5968Z" fill="white"/>
<path d="M11.8643 25.7079L17.9535 24.6084C17.9614 24.5344 17.9653 24.4563 17.9653 24.3785V23.7899L11.5791 24.9396C11.6341 25.2129 11.7316 25.4702 11.8643 25.7079Z" fill="white"/>
<path d="M11.521 24.3552L17.9658 23.1935V22.379L11.521 23.5368V24.3552Z" fill="white"/>
<path d="M17.8333 25.2286L12.2432 26.2343C12.4265 26.437 12.6374 26.6087 12.8754 26.749V28H16.615V26.7487C17.1854 26.4057 17.6225 25.8678 17.8333 25.2286Z" fill="white"/>
<path d="M22.0179 14.1344C22.0179 10.1231 18.7623 6.87204 14.7418 6.87204C10.7288 6.87204 7.46924 10.1231 7.46924 14.1344C7.46924 16.9915 9.12047 19.4592 11.5212 20.648V22.944L17.9657 21.7826V20.648C20.3667 19.4592 22.0179 16.9918 22.0179 14.1344Z" fill="white"/>
</g>
<defs>
<clipPath id="clip0_29_871">
<rect width="27.8051" height="28" fill="white" transform="translate(0.84082)"/>
</clipPath>
</defs>
</svg>
