<svg xmlns="http://www.w3.org/2000/svg" version="1.1" xmlns:xlink="http://www.w3.org/1999/xlink" xmlns:svgjs="http://svgjs.com/svgjs" width="512" height="512" x="0" y="0" viewBox="0 0 510 510" style="enable-background:new 0 0 512 512" xml:space="preserve" class=""><g><g xmlns="http://www.w3.org/2000/svg"><path d="m75 352.824c-41.421 0-75 33.578-75 75s33.579 75 75 75h435v-30h-60v-30h-375v-30h375v-30h60v-30c-34.122 0-414.838 0-435 0z" fill="#ffffff" data-original="#000000" class=""></path><path d="m420 277.783v45.041h90v-45.041c-26.652 20.053-63.319 20.075-90 0z" fill="#ffffff" data-original="#000000" class=""></path><path d="m390 149.646-135 40.124-135-31.616v59.67h270z" fill="#ffffff" data-original="#000000" class=""></path><path d="m120 247.824h270v45h-270z" fill="#ffffff" data-original="#000000" class=""></path><path d="m450 100.516v74.889c-17.459 6.192-30 22.865-30 42.42 0 24.812 20.186 45 45 45 24.813 0 45-20.188 45-45 0-19.555-12.541-36.228-30-42.42v-83.805l29.525-8.775-254.525-75.649-254.526 75.648 254.526 75.649z" fill="#ffffff" data-original="#000000" class=""></path></g></g></svg>