<svg xmlns="http://www.w3.org/2000/svg" version="1.1" xmlns:xlink="http://www.w3.org/1999/xlink" xmlns:svgjs="http://svgjs.com/svgjs" width="512" height="512" x="0" y="0" viewBox="0 0 16.933333 16.933334" style="enable-background:new 0 0 512 512" xml:space="preserve" class=""><g transform="matrix(1.05,0,0,1.05,-0.4233334451913784,-0.4233154296874968)"><g xmlns="http://www.w3.org/2000/svg" id="layer1" transform="translate(0 -280.067)"><path id="path3876" d="m8.4666668 280.59582c-.4351608 0-.7927166.35807-.7927166.79323v1.0666c-.2841474.21539-.4825169.53897-.5219319.91106-.6270585.12249-1.1274565.31508-1.6174722.49092-.4886143.17534-.9820643.32879-1.6283245.39946-.1210127-.28423-.4037563-.48524-.7301881-.48524-.3094424 0-.578052.18244-.7090005.44338-.6006698-.139-.9973551-.39997-.9973551-.39997-.043957-.0302-.096014-.0464-.1493449-.0465-.2639493-.00048-.36580545.34344-.1441773.48679 0 0 .4955322.32707 1.2267985.48628.039466.16896.1345584.31579.2635498.42478l-2.12028406 5.65495c-.011224.0297-.017.0612-.017053.093 0 0-.00284.59318.33176271 1.18804.33460775.59486 1.04505055 1.19321 2.31407065 1.19321 1.26902 0 1.979463-.59835 2.3140707-1.19321s.3317626-1.18804.3317626-1.18804c-.0000529-.0318-.00583-.0633-.017052-.093l-2.120285-5.65444c.1173869-.0992.2049311-.23025.249597-.38085.7179059-.0756 1.2737204-.2487 1.7802532-.43047.4879608-.1751.9418688-.34811 1.4965495-.46095.1677776.53785.6653964.93328 1.2567709.93328.5914014 0 1.089533-.39539 1.2572875-.93328.5544993.11288 1.0080693.28586 1.4960333.46095.506573.18178 1.062696.35495 1.78077.43047.04464.15052.131778.28166.24908.38085l-2.120284 5.65444c-.01122.0297-.017.0612-.01705.093 0 0-.0028.59318.331762 1.18804.334607.59486 1.04505 1.19321 2.31407 1.19321s1.979464-.59835 2.314071-1.19321c.334608-.59486.331763-1.18804.331763-1.18804-.000053-.0318-.0058-.0633-.01705-.093l-2.120285-5.65444c.129282-.10903.224547-.25608.264067-.42529.730996-.15925 1.226282-.48628 1.226282-.48628.225367-.14547.116176-.49533-.151929-.48679-.05068.002-.09983.0178-.141594.0465 0 0-.396439.26094-.996838.39997-.130919-.26102-.399497-.44338-.709001-.44338-.326431 0-.609175.20101-.730188.48524-.646452-.0706-1.140197-.22412-1.628841-.39946-.489871-.17578-.990226-.36838-1.6169553-.49092-.03941-.37209-.2377848-.69567-.5219322-.91106v-1.0666c0-.43516-.3580726-.79323-.7932333-.79323zm0 .52968c.1511554 0 .2635499.1124.2635499.26355v.82114c-.085245-.0174-.1733426-.0264-.2635499-.0264-.090936 0-.1797302.009-.2656168.0269v-.82166c0-.15116.1144614-.26355.2656168-.26355zm0 1.5875c.4415099 0 .7932333.35172.7932333.79323s-.3517234.79272-.7932333.79272c-.44151 0-.7927166-.35121-.7927166-.79272s.3512066-.79323.7927166-.79323zm-5.2906333 1.58595c.1492594 0 .2635499.11636.2635499.26562s-.1142905.26355-.2635499.26355c-.1492591 0-.2661335-.11429-.2661335-.26355s.1168744-.26562.2661335-.26562zm10.5817835 0c.14926 0 .265617.11636.265617.26562-.000001.14926-.116357.26355-.265617.26355-.149259 0-.263549-.11429-.263549-.26355s.11429-.26562.263549-.26562zm-5.824451 1.05472c-.146131.003-.262283.12362-.2594158.26975v8.20105h-1.8536335c-.4351607 0-.7927166.35962-.7927166.79478v.26355c-.4351604 0-.7953002.36014-.7953002.7953v.5271c-.0005556.14693.1186892.26618.2656168.26562h7.9375013c.146119-.00059.264107-.1195.263549-.26562v-.5271c0-.43516-.357555-.7953-.792716-.7953v-.26355c0-.43516-.357556-.79478-.792717-.79478h-1.8536339v-8.20105c.00291-.14936-.1183087-.27152-.267684-.26975-.147147.001-.2648654.12262-.2619994.26975v8.20105h-.5291667v-8.20105c.00291-.14936-.1183087-.27152-.267684-.26975zm-4.7723185.003c.0051.0001.00986.002.014986.002.00461 0 .00884-.001.013436-.002l1.9854085 5.29425h-3.9997558zm10.5833345 0c.0046.00008.0088.002.01343.002.0049 0 .0095-.001.01447-.002l1.985926 5.29425h-3.999757zm-12.6550427 5.82392h4.1713215c-.028349.1696-.088098.40622-.2325439.66301-.2607048.46348-.7408868.92346-1.8531168.92346s-1.592412-.45998-1.8531168-.92346c-.1444456-.25679-.204195-.49341-.232544-.66301zm10.5833347 0h4.171321c-.02835.1696-.0881.40622-.232544.66301-.260705.46348-.740887.92346-1.853117.92346s-1.592412-.45998-1.853117-.92346c-.144445-.25679-.204195-.49341-.232543-.66301zm-5.8523573 3.17345c1.7822542.0113 3.5048976 0 5.2932173 0 .151157 0 .26355.11447.26355.26562v.26355h-1.3224c-.3531223 0-.3531223.52968 0 .52968h1.851567c.151155 0 .26355.11447.26355.26562v.26355h-7.4083344v-.26355c0-.15115.1149781-.26562.2661335-.26562h3.9687501c.3531222 0 .3531222-.52968 0-.52968h-3.4395834v-.26355c0-.15115.1123945-.26562.2635499-.26562z" font-variant-ligatures="normal" font-variant-position="normal" font-variant-caps="normal" font-variant-numeric="normal" font-variant-alternates="normal" font-feature-settings="normal" text-indent="0" text-align="start" text-decoration-line="none" text-decoration-style="solid" text-decoration-color="rgb(0,0,0)" text-transform="none" text-orientation="mixed" white-space="normal" shape-padding="0" isolation="auto" mix-blend-mode="normal" solid-color="rgb(0,0,0)" solid-opacity="1" vector-effect="none" fill="#ffffff" data-original="#000000" class=""></path></g></g></svg>