<svg xmlns="http://www.w3.org/2000/svg" version="1.1" xmlns:xlink="http://www.w3.org/1999/xlink" xmlns:svgjs="http://svgjs.com/svgjs" width="512" height="512" x="0" y="0" viewBox="0 0 512 512" style="enable-background:new 0 0 512 512" xml:space="preserve" class="hovered-paths"><g>
<g xmlns="http://www.w3.org/2000/svg">
	<g>
		<g>
			<path d="M367.5,256c0-61.481-50.019-111.5-111.5-111.5S144.5,194.519,144.5,256S194.519,367.5,256,367.5S367.5,317.481,367.5,256     z M256,352.5c-53.21,0-96.5-43.29-96.5-96.5c0-53.21,43.29-96.5,96.5-96.5c53.21,0,96.5,43.29,96.5,96.5     C352.5,309.21,309.21,352.5,256,352.5z" fill="#ffffff" data-original="#000000" class="hovered-path"></path>
			<path d="M431.716,149.623c38.233,0,69.339-31.105,69.339-69.339s-31.105-69.339-69.339-69.339     c-38.234,0-69.339,31.105-69.339,69.339S393.482,149.623,431.716,149.623z M431.716,25.945c29.963,0,54.339,24.376,54.339,54.339     c0,29.962-24.376,54.339-54.339,54.339c-29.963,0-54.339-24.376-54.339-54.339S401.753,25.945,431.716,25.945z" fill="#ffffff" data-original="#000000" class="hovered-path"></path>
			<path d="M449.328,39.781c-5.565-2.416-11.472-3.646-17.555-3.657l-0.027,15c4.025,0.007,7.932,0.82,11.609,2.417L449.328,39.781z     " fill="#ffffff" data-original="#000000" class="hovered-path"></path>
			<path d="M454.377,61.934c4.252,5.251,6.499,11.588,6.499,18.327c0,2.367-0.287,4.731-0.854,7.028l14.564,3.591     c0.855-3.47,1.289-7.043,1.289-10.619c0-10.067-3.495-19.929-9.841-27.767c-1.924-2.375-4.091-4.551-6.441-6.467l-9.477,11.627     C451.669,58.92,453.103,60.36,454.377,61.934z" fill="#ffffff" data-original="#000000" class="hovered-path"></path>
			<path d="M423.889,52.185l-4.016-14.452c-5.839,1.623-11.204,4.392-15.946,8.232l9.439,11.657     C416.502,55.083,420.042,53.254,423.889,52.185z" fill="#ffffff" data-original="#000000" class="hovered-path"></path>
			<path d="M399.983,110.996c4.23,4.379,9.226,7.777,14.846,10.098l5.727-13.864c-3.703-1.529-6.994-3.769-9.783-6.656     L399.983,110.996z" fill="#ffffff" data-original="#000000" class="hovered-path"></path>
			<path d="M392.889,101.329l13.18-7.162c-1.911-3.517-3.056-7.329-3.403-11.331l-14.943,1.296     C388.248,90.203,389.986,95.989,392.889,101.329z" fill="#ffffff" data-original="#000000" class="hovered-path"></path>
			<path d="M192.5,256h-15c0,30.229,16.878,57.264,44.047,70.554l6.592-13.475C206.156,302.326,192.5,280.455,192.5,256z" fill="#ffffff" data-original="#000000" class="hovered-path"></path>
			<path d="M283.075,182.296l-5.174,14.08c4.186,1.538,8.224,3.53,12.002,5.921l8.021-12.675     C293.251,186.665,288.254,184.2,283.075,182.296z" fill="#ffffff" data-original="#000000" class="hovered-path"></path>
			<path d="M256,192.5c4.49,0,8.972,0.47,13.32,1.398l3.129-14.67c-5.375-1.146-10.909-1.728-16.449-1.728V192.5z" fill="#ffffff" data-original="#000000" class="hovered-path"></path>
			<path d="M306.819,196.168l-9.715,11.429c14.232,12.1,22.396,29.742,22.396,48.403h15     C334.5,232.931,324.411,211.123,306.819,196.168z" fill="#ffffff" data-original="#000000" class="hovered-path"></path>
			<path d="M240.015,387.672c-66.495-7.983-116.64-64.59-116.64-131.672h-15c0,74.668,55.824,137.678,129.853,146.565     L240.015,387.672z" fill="#ffffff" data-original="#000000" class="hovered-path"></path>
			<path d="M351.245,143.205l-9.684,11.456c3.604,3.046,7.083,6.319,10.338,9.726l10.846-10.361     C359.124,150.235,355.255,146.594,351.245,143.205z" fill="#ffffff" data-original="#000000" class="hovered-path"></path>
			<path d="M305.861,117.01l-5.066,14.118c4.434,1.591,8.832,3.442,13.074,5.502l6.553-13.492     C315.698,120.843,310.799,118.781,305.861,117.01z" fill="#ffffff" data-original="#000000" class="hovered-path"></path>
			<path d="M391.666,197.705c-2.074-4.82-4.434-9.582-7.013-14.154l-13.064,7.371c2.316,4.106,4.437,8.383,6.3,12.712     L391.666,197.705z" fill="#ffffff" data-original="#000000" class="hovered-path"></path>
			<path d="M358.191,171.458c3.011,3.636,5.856,7.47,8.457,11.396l12.506-8.282c-2.895-4.37-6.061-8.637-9.41-12.682     L358.191,171.458z" fill="#ffffff" data-original="#000000" class="hovered-path"></path>
			<path d="M322.229,141.067c4.081,2.357,8.082,4.962,11.892,7.744l8.846-12.114c-4.24-3.096-8.692-5.996-13.235-8.619     L322.229,141.067z" fill="#ffffff" data-original="#000000" class="hovered-path"></path>
			<path d="M72.25,256h15c0-4.78,0.202-9.607,0.601-14.347l-14.947-1.257C72.47,245.553,72.25,250.803,72.25,256z" fill="#ffffff" data-original="#000000" class="hovered-path"></path>
			<path d="M91.536,218.034l-14.619-3.359c-1.161,5.052-2.119,10.223-2.847,15.368l14.852,2.102     C89.591,227.419,90.47,222.672,91.536,218.034z" fill="#ffffff" data-original="#000000" class="hovered-path"></path>
			<path d="M256,87.25v-15c-40.584,0-79.056,12.967-111.257,37.498c-31.161,23.741-54.317,57.421-65.201,94.838l14.402,4.189     C114.759,137.223,181.398,87.25,256,87.25z" fill="#ffffff" data-original="#000000" class="hovered-path"></path>
			<path d="M409.211,357.476l-12.498-8.294c-21.467,32.349-53.604,56.487-90.49,67.97l4.459,14.322     C350.851,418.97,385.843,392.69,409.211,357.476z" fill="#ffffff" data-original="#000000" class="hovered-path"></path>
			<path d="M422.038,334.807l-13.547-6.441c-2.047,4.306-4.306,8.576-6.713,12.691l12.947,7.573     C417.348,344.147,419.808,339.497,422.038,334.807z" fill="#ffffff" data-original="#000000" class="hovered-path"></path>
			<path d="M431.52,310.538l-14.326-4.446c-1.412,4.549-3.04,9.097-4.841,13.517l13.893,5.658     C428.206,320.451,429.98,315.495,431.52,310.538z" fill="#ffffff" data-original="#000000" class="hovered-path"></path>
			<path d="M474.12,283.904c1.164-9.187,1.755-18.575,1.755-27.904c0-34.238-7.654-67.044-22.751-97.507l-13.439,6.66     c14.061,28.375,21.19,58.939,21.19,90.847c0,8.701-0.551,17.455-1.636,26.019L474.12,283.904z" fill="#ffffff" data-original="#000000" class="hovered-path"></path>
			<path d="M280.609,37.487l-1.66,14.908c4.778,0.532,9.594,1.242,14.313,2.108l2.709-14.753     C290.906,38.82,285.738,38.059,280.609,37.487z" fill="#ffffff" data-original="#000000" class="hovered-path"></path>
			<path d="M169.224,53.914c-4.734,2.036-9.457,4.268-14.037,6.635l6.887,13.326c4.267-2.205,8.666-4.284,13.076-6.181     L169.224,53.914z" fill="#ffffff" data-original="#000000" class="hovered-path"></path>
			<path d="M218.748,39.269c-5.086,0.868-10.2,1.929-15.202,3.153l3.566,14.57c4.658-1.14,9.423-2.128,14.159-2.937L218.748,39.269z     " fill="#ffffff" data-original="#000000" class="hovered-path"></path>
			<path d="M244.446,36.423c-5.155,0.267-10.356,0.72-15.459,1.345l1.824,14.889c4.757-0.583,9.605-1.005,14.412-1.254     L244.446,36.423z" fill="#ffffff" data-original="#000000" class="hovered-path"></path>
			<path d="M193.554,45.122c-4.94,1.461-9.895,3.119-14.724,4.929l5.264,14.046c4.498-1.686,9.111-3.23,13.712-4.59L193.554,45.122z     " fill="#ffffff" data-original="#000000" class="hovered-path"></path>
			<path d="M269.337,51.552l0.961-14.969c-4.728-0.304-9.538-0.458-14.308-0.458l-1.2,0.003l0.074,15L256,51.125     C260.44,51.125,264.927,51.269,269.337,51.552z" fill="#ffffff" data-original="#000000" class="hovered-path"></path>
			<path d="M181.731,463.014l5.066-14.119c-4.518-1.621-9.038-3.426-13.435-5.367l-6.057,13.723     C172.027,459.334,176.881,461.273,181.731,463.014z" fill="#ffffff" data-original="#000000" class="hovered-path"></path>
			<path d="M144.295,445.424c4.442,2.625,9.032,5.123,13.641,7.423l6.699-13.421c-4.294-2.143-8.569-4.47-12.709-6.916     L144.295,445.424z" fill="#ffffff" data-original="#000000" class="hovered-path"></path>
			<path d="M206.566,470.294l3.359-14.619c-4.682-1.076-9.384-2.334-13.977-3.74l-4.391,14.343     C196.49,467.788,201.54,469.139,206.566,470.294z" fill="#ffffff" data-original="#000000" class="hovered-path"></path>
			<path d="M143.739,427.41c-4.015-2.635-7.988-5.448-11.811-8.361l-9.092,11.93c4.1,3.125,8.363,6.144,12.672,8.971L143.739,427.41     z" fill="#ffffff" data-original="#000000" class="hovered-path"></path>
			<path d="M242.402,475.461c4.501,0.275,9.076,0.414,13.598,0.414c0.642,0,1.283-0.002,1.925-0.008l-0.131-14.999     c-4.803,0.041-9.685-0.086-14.478-0.379L242.402,475.461z" fill="#ffffff" data-original="#000000" class="hovered-path"></path>
			<path d="M268.265,475.539c5.156-0.284,10.357-0.753,15.461-1.396l-1.873-14.883c-4.756,0.599-9.605,1.036-14.412,1.301     L268.265,475.539z" fill="#ffffff" data-original="#000000" class="hovered-path"></path>
			<path d="M232.087,474.589l1.613-14.913c-4.783-0.518-9.604-1.212-14.328-2.064l-2.662,14.762     C221.78,473.288,226.954,474.034,232.087,474.589z" fill="#ffffff" data-original="#000000" class="hovered-path"></path>
			<path d="M103.22,414.125c3.704,3.58,7.585,7.075,11.535,10.389l9.641-11.491c-3.682-3.089-7.299-6.347-10.75-9.683     L103.22,414.125z" fill="#ffffff" data-original="#000000" class="hovered-path"></path>
			<path d="M486.021,143.54l-13.471,6.6C488.773,183.253,497,218.87,497,256c0,132.888-108.112,241-241,241S15,388.888,15,256     S123.112,15,256,15c37.13,0,72.746,8.226,105.86,24.45l6.6-13.47C333.273,8.741,295.437,0,256,0     C187.62,0,123.333,26.629,74.98,74.98C26.629,123.333,0,187.62,0,256s26.629,132.667,74.98,181.02     C123.333,485.371,187.62,512,256,512s132.667-26.629,181.02-74.98C485.371,388.667,512,324.38,512,256     C512,216.563,503.259,178.726,486.021,143.54z" fill="#ffffff" data-original="#000000" class="hovered-path"></path>
		</g>
	</g>
</g>
<g xmlns="http://www.w3.org/2000/svg">
</g>
<g xmlns="http://www.w3.org/2000/svg">
</g>
<g xmlns="http://www.w3.org/2000/svg">
</g>
<g xmlns="http://www.w3.org/2000/svg">
</g>
<g xmlns="http://www.w3.org/2000/svg">
</g>
<g xmlns="http://www.w3.org/2000/svg">
</g>
<g xmlns="http://www.w3.org/2000/svg">
</g>
<g xmlns="http://www.w3.org/2000/svg">
</g>
<g xmlns="http://www.w3.org/2000/svg">
</g>
<g xmlns="http://www.w3.org/2000/svg">
</g>
<g xmlns="http://www.w3.org/2000/svg">
</g>
<g xmlns="http://www.w3.org/2000/svg">
</g>
<g xmlns="http://www.w3.org/2000/svg">
</g>
<g xmlns="http://www.w3.org/2000/svg">
</g>
<g xmlns="http://www.w3.org/2000/svg">
</g>
</g></svg>