<svg version="1.1" xmlns="http://www.w3.org/2000/svg" xmlns:xlink="http://www.w3.org/1999/xlink" viewBox="0 0 172 172"><g fill="none" fill-rule="nonzero" stroke="none" stroke-width="1" stroke-linecap="butt" stroke-linejoin="miter" stroke-miterlimit="10" stroke-dasharray="" stroke-dashoffset="0" font-family="none" font-weight="none" font-size="none" text-anchor="none" style="mix-blend-mode: normal"><path d="M0,172v-172h172v172z" fill="none"></path><g fill="#ffffff"><path d="M83.87015,3.47359c-5.31604,-0.25203 -11.04492,1.27926 -16.13172,4.70984c-4.50459,-1.24186 -9.40182,-0.86207 -13.74656,1.15563c-4.14517,1.92501 -7.4377,5.49772 -9.16437,9.96391c-5.0122,0.06103 -9.66681,2.03602 -12.90672,5.50938c-3.20856,3.43974 -4.99304,7.93483 -5.47578,12.5775c-6.80814,2.09365 -11.19316,7.85836 -12.44984,14.19c-1.27425,6.4201 0.45517,13.28968 4.68297,18.49672c-1.07264,6.23224 -0.59303,11.90527 2.09625,16.33328c2.46578,4.06001 6.79839,6.52607 11.88547,7.83406c0.33149,2.83058 1.72874,11.47211 8.19016,18.50344c0.01961,3.28451 0.33107,6.41597 1.6864,8.77469c1.31971,2.29671 3.33363,3.75527 5.33469,5.15328c0.17344,6.76077 3.11163,12.14896 8.33797,15.72187c-0.0172,2.92417 0.81562,5.75299 2.5464,8.04235c1.73371,2.29323 4.31152,3.91077 7.24953,4.73c1.51267,4.02361 4.36401,7.18637 8.0289,8.50594c3.69672,1.33103 7.81236,0.89134 11.56297,-0.77265c2.73851,1.48039 5.92417,2.27901 9.36594,1.89469c3.72561,-0.41602 7.4922,-2.50537 10.12515,-6.06703c7.27208,-2.26638 11.68351,-8.80517 10.81047,-15.45984c3.9158,-2.77607 6.01959,-6.57062 5.99985,-9.75563c-0.01066,-1.69453 -0.37168,-1.82474 -0.73235,-2.98985c3.02384,-1.17834 5.83789,-2.92084 7.7736,-5.69078c2.28641,-3.27179 3.00333,-7.68964 2.20375,-12.34234c5.36133,-5.21886 7.56174,-12.1026 7.35031,-19.39031c4.75876,-1.55647 8.51172,-4.35935 10.44094,-8.0625c2.03798,-3.91191 2.3847,-8.25434 1.94172,-12.3289c5.41334,-5.51758 7.83992,-12.0538 6.93375,-18.06c-0.88863,-5.88995 -4.59585,-10.81248 -9.50031,-14.18328c0.07174,-5.47853 -1.75171,-10.45518 -5.33469,-13.74656c-3.45875,-3.17727 -8.21482,-4.56544 -13.20906,-4.54188c-1.63568,-3.52587 -4.21016,-6.46215 -7.44437,-8.27078c-3.3249,-1.85935 -7.0798,-2.552 -10.75,-2.21047c-2.22876,-2.51393 -5.03437,-4.14531 -7.80719,-4.52172c-2.53828,-0.34457 -4.61913,0.37474 -6.67844,1.02797c-3.53758,-2.71955 -8.08728,-4.48686 -13.21578,-4.73zM83.54094,10.34688c4.37781,0.20755 8.32631,1.87902 10.36703,3.80953l1.74016,1.63937l2.14328,-1.05484c1.0472,-0.51534 3.20617,-1.00314 5.0525,-0.7525c1.84633,0.25064 3.3098,0.93621 4.42094,2.83531l1.29672,2.21719l2.49265,-0.61141c2.0755,-0.51134 5.23523,-0.0098 7.90797,1.48484c2.67274,1.49464 4.73181,3.82491 5.38172,6.33578l0.75922,2.93609l3.01,-0.38969c4.07687,-0.52289 7.72718,0.70679 10.2125,2.98984c2.48531,2.28305 3.91075,5.56343 3.37953,9.92359l-0.27547,2.28437l2.00219,1.12875c4.07348,2.29895 6.92728,6.28165 7.57203,10.55515c0.64476,4.2735 -0.66094,8.9541 -5.82515,13.47109l-1.44453,1.26313l0.3225,1.9014c0.54868,3.24296 0.1925,6.83066 -1.22281,9.54735c-1.4153,2.71669 -3.66746,4.74772 -8.04906,5.5161l-3.23172,0.56437l0.40984,3.2586c0.89812,7.06658 -1.09108,12.79892 -6.51719,17.39484l-1.72672,1.47141l0.66515,2.16344c1.13593,3.69728 0.44125,6.47153 -1.08844,8.66047c-1.52969,2.18893 -4.06501,3.70567 -6.61797,4.09844l-4.79719,0.73906l2.29109,4.28656c0,0 0.83504,1.68888 0.84656,3.5475c0.01135,1.85862 -0.15707,3.50725 -3.99765,5.20031l-2.91594,1.28328l1.05485,3.00328c1.20321,3.41787 -1.19222,8.14337 -6.71203,9.46l-1.46469,0.34938l-0.73906,1.31687c-1.37302,2.45243 -3.53677,3.50909 -6.04688,3.78938c-2.51011,0.28029 -5.21329,-0.56568 -6.28875,-1.3975l-1.89469,-1.46469l-2.02906,1.26984c-2.34669,1.46206 -5.26642,1.68021 -7.61906,0.83313c-2.35265,-0.84709 -4.08028,-2.52105 -4.6225,-5.41531l-0.48375,-2.58672l-2.62703,-0.20828c-1.51751,-0.11968 -3.21583,-1.15805 -4.38735,-2.70765c-1.17152,-1.54961 -1.62842,-3.43505 -1.38406,-4.60235l0.53078,-2.53969l-2.29781,-1.20938c-5.34823,-2.81687 -7.13164,-5.95915 -6.74563,-12.78578l0.12094,-2.06937l-1.77375,-1.075c-1.95303,-1.17778 -3.31897,-2.39683 -4.1925,-3.91703c-0.87353,-1.5202 -1.38462,-3.4641 -1.13547,-6.5911l0.12766,-1.59906l-1.14219,-1.12875c-5.62594,-5.53444 -7.2764,-17.42844 -7.2764,-17.42844l-0.27547,-2.66062l-2.64719,-0.38969c-4.86034,-0.71546 -7.77525,-2.61523 -9.50031,-5.45563c-1.72506,-2.84039 -2.34363,-7.03018 -1.15562,-12.67828l0.38969,-1.84094l-1.34375,-1.31688c-3.35365,-3.29943 -4.78532,-9.0984 -3.79609,-14.0825c0.98923,-4.98409 3.82655,-8.75374 9.15094,-9.5339l3.09063,-0.45015l-0.15453,-3.1175c-0.16356,-3.37418 1.46698,-7.47062 4.1186,-10.31328c2.6516,-2.84266 5.98214,-4.34635 9.43312,-3.72891l3.38625,0.60469l0.60469,-3.39297c0.55527,-3.12859 3.07395,-5.80815 6.51047,-7.40406c3.43652,-1.59592 7.55835,-1.83222 10.15203,-0.7525l1.84766,0.77266l1.58562,-1.22953c3.97073,-3.08948 8.69016,-4.23208 13.06797,-4.02453zM69.31063,41.42781c-0.74399,-0.05452 -1.50897,-0.04434 -2.29781,0.04703c-3.15536,0.36548 -6.3409,2.06366 -9.35922,5.13312c-13.10674,13.32796 -15.14293,27.59562 -10.69625,43.74578c2.28338,8.29316 6.28216,14.77512 10.01765,19.14172c1.86775,2.1833 3.65186,3.8327 5.28094,4.9786c0.81454,0.57295 1.57126,1.03274 2.4725,1.3639c0.90124,0.33117 2.25845,0.90663 4.09172,-0.30906c0.74303,-0.49101 1.12827,-0.87861 1.80735,-1.45125c0.67908,-0.57263 1.50076,-1.25427 2.45235,-1.98203c1.69741,-1.29817 3.89783,-2.63667 6.16781,-3.6886c2.57334,0.94807 4.77406,1.67297 6.75906,1.67297c2.10136,0 4.25414,-0.65005 6.98078,-1.5789c2.22212,1.05749 4.36358,2.38262 6.02,3.655c0.93065,0.71488 1.73373,1.3873 2.3986,1.94844c0.66486,0.56113 1.04967,0.93637 1.77375,1.41765c0.00224,0.00224 0.00448,0.00448 0.00672,0.00672c1.83327,1.21571 3.19048,0.64024 4.09172,0.30906c0.90124,-0.33117 1.65796,-0.79096 2.4725,-1.3639c1.62908,-1.1459 3.41319,-2.7953 5.28094,-4.9786c3.7355,-4.36659 7.73427,-10.84856 10.01765,-19.14172c4.43184,-16.09626 2.83986,-30.39113 -10.29312,-43.74578c-3.02605,-3.07732 -6.24562,-4.77081 -9.4264,-5.13312c-3.18079,-0.36231 -6.02147,0.56633 -8.41188,1.69984c-4.78098,2.26688 -8.44035,4.98531 -10.91125,4.98531c-2.4709,0 -5.99588,-2.69421 -10.68281,-4.97187c-1.7576,-0.85412 -3.78131,-1.59676 -6.01328,-1.76031zM68.84031,48.28765c1.04985,0.07954 2.16454,0.45229 3.47359,1.08844c3.49081,1.69639 7.63939,5.6639 13.69281,5.6639c6.05342,0 10.2609,-3.94343 13.86078,-5.65047c1.79994,-0.85352 3.27426,-1.23546 4.68297,-1.075c1.40871,0.16044 3.04846,0.8267 5.3011,3.1175c11.73133,11.92935 12.65889,22.23048 8.5664,37.09422c-1.97877,7.18684 -5.49731,12.85195 -8.61344,16.49453c-1.54739,1.80881 -3.00584,3.11081 -3.98422,3.80281c-0.68072,-0.57442 -1.56421,-1.31188 -2.62031,-2.12313c-2.12996,-1.63614 -4.93432,-3.55023 -8.25735,-4.97187c-0.84154,-0.35983 -1.79178,-0.3695 -2.64047,-0.02688c-4.24306,1.7113 -3.62603,1.49828 -6.29547,1.49828c-2.57312,0 -1.95669,0.25277 -5.90578,-1.54531c-0.86968,-0.39676 -1.86522,-0.4138 -2.74797,-0.04703c-3.4042,1.41174 -6.27121,3.35091 -8.45219,5.01891c-1.09049,0.834 -2.00891,1.6078 -2.70765,2.19703l-0.00672,0.00672c-0.97838,-0.69154 -2.43553,-1.99919 -3.98422,-3.80953c-3.11612,-3.64259 -6.62794,-9.30769 -8.60672,-16.49453c-4.07764,-14.80984 -2.79477,-25.13818 8.96281,-37.09422c2.26036,-2.29866 3.88932,-2.96692 5.24735,-3.12422c0.3395,-0.03933 0.68474,-0.04667 1.03469,-0.02016zM68.86719,67.94672c-2.58,0.00654 -5.17025,0.32976 -7.74672,0.94735c-1.20729,0.27453 -2.17395,1.17659 -2.53119,2.36204c-0.35724,1.18545 -0.04995,2.47143 0.80464,3.36731c0.85458,0.89588 2.12464,1.26347 3.32562,0.96252c4.20387,-1.00769 8.18073,-1.0395 12.09375,-0.02015c1.20954,0.37406 2.52679,0.05356 3.42928,-0.83437c0.90249,-0.88793 1.24437,-2.19979 0.89003,-3.41525c-0.35433,-1.21546 -1.34761,-2.13809 -2.58587,-2.40195c-2.53269,-0.65986 -5.09953,-0.97397 -7.67953,-0.9675zM103.26719,67.94672c-2.58,0.00654 -5.17025,0.32976 -7.74672,0.94735c-1.20729,0.27453 -2.17395,1.17659 -2.53119,2.36204c-0.35724,1.18545 -0.04995,2.47143 0.80464,3.36731c0.85458,0.89588 2.12464,1.26347 3.32562,0.96252c4.20387,-1.00769 8.18073,-1.0395 12.09375,-0.02015c1.20954,0.37406 2.52679,0.05356 3.42928,-0.83437c0.90249,-0.88793 1.24437,-2.19979 0.89003,-3.41525c-0.35433,-1.21546 -1.34761,-2.13809 -2.58587,-2.40195c-2.53269,-0.65986 -5.09953,-0.97397 -7.67953,-0.9675zM68.8,79.12c-1.89986,0 -3.44,1.54014 -3.44,3.44c0,1.89986 1.54014,3.44 3.44,3.44c1.89986,0 3.44,-1.54014 3.44,-3.44c0,-1.89986 -1.54014,-3.44 -3.44,-3.44zM103.2,79.12c-1.89986,0 -3.44,1.54014 -3.44,3.44c0,1.89986 1.54014,3.44 3.44,3.44c1.89986,0 3.44,-1.54014 3.44,-3.44c0,-1.89986 -1.54014,-3.44 -3.44,-3.44zM106.97594,109.7911c0.00894,0.00585 0.00449,-0.00585 0.01344,0v0.00672c0.00142,0.00094 -0.01481,-0.00741 -0.01344,-0.00672zM75.45828,117.18844c-1.60551,0.06399 -2.95292,1.23079 -3.24573,2.81067c-0.29281,1.57988 0.54697,3.15205 2.02292,3.78714c7.67224,3.54074 15.85682,3.54074 23.52906,0c1.47239,-0.65302 2.29462,-2.24019 1.97873,-3.81962c-0.31589,-1.57943 -1.68531,-2.72827 -3.29561,-2.76475c-0.54378,-0.01166 -1.08258,0.10577 -1.57219,0.34266c-6.08776,2.8095 -11.66318,2.8095 -17.75094,0c-0.51677,-0.25654 -1.08976,-0.37899 -1.66625,-0.3561z"></path></g></g></svg>