<svg xmlns="http://www.w3.org/2000/svg" version="1.1" xmlns:xlink="http://www.w3.org/1999/xlink" xmlns:svgjs="http://svgjs.com/svgjs" width="512" height="512" x="0" y="0" viewBox="0 0 512 512" style="enable-background:new 0 0 512 512" xml:space="preserve" class=""><g transform="matrix(1,0,0,1,50,0)"><path xmlns="http://www.w3.org/2000/svg" d="m282.703125 222.730469c1.789063 1.328125 3.878906 1.96875 5.949219 1.96875 3.058594 0 6.078125-1.398438 8.039062-4.042969 3.289063-4.433594 2.363282-10.699219-2.074218-13.988281-4.015626-2.980469-6.726563-7.328125-7.640626-12.246094l-.035156-.191406c-1.003906-5.429688-6.21875-9.019531-11.652344-8.011719-5.433593 1.007812-9.019531 6.222656-8.011718 11.652344l.035156.191406c1.832031 9.90625 7.300781 18.667969 15.390625 24.667969zm0 0" fill="#ffffff" data-original="#000000" class=""></path><path xmlns="http://www.w3.org/2000/svg" d="m406.960938 196.964844c4.746093-8.589844 7.230468-18.195313 7.230468-28.144532 0-21.410156-11.398437-40.578124-29.632812-50.828124.15625-1.628907.234375-3.261719.234375-4.898438 0-25.507812-18.8125-46.707031-43.292969-50.445312-4.128906-14.941407-17.847656-25.945313-34.085938-25.945313-.269531 0-.542968.003906-.8125.011719-5.71875-12.09375-18.117187-20.371094-32.003906-20.371094-2.835937 0-5.667968.347656-8.417968 1.023438-6.515626-6.328126-15.261719-9.941407-24.585938-9.941407-5.039062 0-9.957031 1.066407-14.460938 3.085938-6.53125-6.644531-15.511718-10.511719-25.179687-10.511719-11.484375 0-21.929687 5.523438-28.445313 14.332031-4.4375-1.957031-9.273437-2.988281-14.277343-2.988281-12.859375 0-24.328125 6.910156-30.523438 17.488281-3.617187-1.003906-7.375-1.523437-11.175781-1.523437-19.574219 0-36.042969 13.558594-40.503906 31.78125-17.976563 1.195312-32.308594 15.890625-32.953125 34.011718-5.328125 22.824219-8.039063 46.269532-8.039063 69.707032v53.875l-35.484375 102.359375c-1.058593 3.054687-.5742185 6.4375 1.300781 9.074219 1.878907 2.636718 4.914063 4.199218 8.148438 4.199218h34.042969v16.183594c0 9.410156 2.054687 18.523438 5.867187 26.792969-11.703125 5.234375-19.878906 16.980469-19.878906 30.609375 0 10.089844 4.527344 19.316406 11.804688 25.527344-4.347657 6.210937-6.800782 13.703124-6.800782 21.519531 0 20.261719 16.140625 36.820312 36.234375 37.507812 6.859375 11.9375 19.636719 19.539063 33.828125 19.539063 7.609375 0 14.957032-2.214844 21.210938-6.269532 6.507812 5.292969 14.703125 8.273438 23.332031 8.273438 4.84375 0 9.652344-.957031 14.109375-2.789062 3.121094.523437 6.277344.785156 9.414062.785156 31.457032 0 57.050782-25.589844 57.050782-57.046875 0-.230469-.003906-.460938-.003906-.691407 16.527343-3.265624 29.03125-17.871093 29.03125-35.34375 0-6.894531-1.960938-13.515624-5.519532-19.175781 7.816406-6.71875 12.65625-16.671875 12.65625-27.371093 0-18.183594-13.152344-33.066407-30.667968-35.628907-7.898438-7.617187-18.433594-11.910156-29.511719-11.910156-16.421875 0-32.125 10.292969-39.488281 24.96875-7.382813-1.238281-14.316407-4.511719-19.988282-9.542969l-12.496094-11.085937c-10.796874-9.578125-24.6875-14.851563-39.117187-14.851563h-38.5625c-.425781 0-.839844.035156-1.25.089844-.410156-.050781-.828125-.089844-1.25-.089844h-29.996094l31.433594-90.671875c.367187-1.050781.550781-2.160156.550781-3.273437v-55.5625c0-11.644532.722656-23.289063 2.140625-34.851563 1.722657 1 3.527344 1.867188 5.398438 2.59375 9.722656 3.78125 20.328125 3.460938 29.625-.675781 2.695312 1.960938 5.640625 3.578125 8.75 4.785156 10.136719 3.941406 21.152343 3.417969 30.617187-1.121094 3.910156 4.152344 8.71875 7.417969 14.132813 9.519532 5.429687 2.113281 11.128906 2.957031 16.761719 2.546875 2.921874 11.992187 11.519531 22.183593 23.554687 26.863281 1.011719.394531 2.03125.742188 3.0625 1.046875-1.578125 19.6875 9.75 38.628906 29.097656 46.144531 5.316407 2.070313 10.867188 3.113282 16.527344 3.113282.820313 0 2.492187.761718 2.472656-.066407 0-.003906 0-.007812 0-.011719 3.753907-.203124 7.234375-2.511718 8.738281-6.226562l11.992188-29.648438c4.109375-8.914062 13.078125-14.664062 22.902344-14.664062 3.457031 0 6.816406.695312 9.988281 2.0625l1.480469.636719c9.25 3.992187 15.230468 13.082031 15.230468 23.160156 0 23.15625-4.394531 45.789063-13.058593 67.261719l-5.097657 12.632812c-3.117187 7.726563-10.519531 12.71875-18.851562 12.71875-5.152344 0-9.34375-4.191406-9.34375-9.347656 0-5.152344 4.191406-9.34375 9.34375-9.34375h3.15625c5.523438 0 10-4.476562 10-10s-4.476562-10-10-10h-3.15625c-16.179688 0-29.34375 13.164062-29.34375 29.34375 0 16.183594 13.164062 29.347656 29.34375 29.347656 16.53125 0 31.210938-9.90625 37.398438-25.234375l5.097656-12.632812c9.628906-23.863281 14.511718-49.011719 14.511718-74.746094 0-18.066406-10.71875-34.367187-27.308593-41.523437l-1.480469-.636719c-5.367188-2.316407-11.039062-3.539063-16.867188-3.671875-3.992187-13.898438-12.933593-25.800782-25.433593-33.566406.363281-1.347657.449219-2.785157.207031-4.230469-2.992188-17.949219-13.855469-33.238281-29.808594-41.949219-2.332031-1.273438-4.722656-2.359375-7.15625-3.292969-3.015625-17.671875-13.671875-32.769531-29.347656-41.492187-.65625-.363282-1.324219-.695313-1.988281-1.035156 2.804687-4.050782 7.46875-6.617188 12.628906-6.617188 5.832031 0 11.085937 3.242188 13.71875 8.460938 1.40625 2.785156 4.027344 4.757812 7.09375 5.328124 3.070313.574219 6.226563-.316406 8.539063-2.40625 2.824218-2.554687 6.480468-3.957031 10.289062-3.957031 5.269531 0 10.113281 2.660157 12.957031 7.117188 2.78125 4.359375 8.425781 5.878906 13.019531 3.507812 2.1875-1.132812 4.554688-1.707031 7.027344-1.707031 7.542969 0 14.070313 5.609375 15.183594 13.050781.4375 2.898438 2.121094 5.460938 4.613281 7.011719 2.492188 1.546875 5.535157 1.921875 8.328125 1.027344 1.515625-.484375 3.09375-.730469 4.691406-.730469 8.4375 0 15.308594 6.839844 15.359376 15.265625v.117188c0 2.695312 1.085937 5.273437 3.011718 7.15625 1.925782 1.878906 4.523438 2.894531 7.226563 2.84375l.753906-.023438c17.109375 0 31.027344 13.917969 31.027344 31.03125 0 2.714844-.355469 5.429688-1.0625 8.0625-1.320313 4.921875 1.273437 10.050781 6.023437 11.902344 14.84375 5.796875 24.4375 19.835937 24.4375 35.765625 0 8.058593-2.480468 15.773437-7.167968 22.316406-2.496094 3.484375-2.496094 8.167969 0 11.648437 4.6875 6.546876 7.167968 14.261719 7.167968 22.320313 0 5.253906-1.046875 10.351563-3.105468 15.144531-1.085938 2.523438-1.085938 5.378906 0 7.902344 2.0625 4.792969 3.105468 9.886719 3.105468 15.144531 0 21.164063-17.222656 38.386719-38.386718 38.386719-5.523438 0-10 4.476562-10 10s4.476562 10 10 10c1.195312 0 2.382812-.046875 3.5625-.121094v180.433594c0 5.523438 4.476562 10 10 10 5.523437 0 10-4.476562 10-10v-185.296875c20.488281-9.074219 34.824218-29.589844 34.824218-53.402344 0-6.566406-1.074218-12.96875-3.203125-19.097656 2.125-6.125 3.203125-12.53125 3.203125-19.09375 0-9.945313-2.484375-19.554687-7.230468-28.144531zm-286.007813 145.164062 12.496094 11.085938c11.003906 9.761718 25.167969 15.136718 39.882812 15.136718 0 0 0-.003906.003907-.007812 4.429687 0 8.476562-2.949219 9.664062-7.433594 2.636719-9.96875 13.042969-18.082031 23.199219-18.082031 6.632812 0 12.902343 2.914063 17.203125 7.988281 1.839844 2.175782 4.523437 3.460938 7.371094 3.535156 8.75.226563 15.601562 7.261719 15.601562 16.015626 0 7.046874-4.714844 13.363281-11.464844 15.363281-3.714844 1.097656-6.457031 4.242187-7.046875 8.066406-.589843 3.824219 1.082031 7.648437 4.292969 9.8125 4.4375 2.992187 7.085938 7.964844 7.085938 13.304687 0 8.835938-7.191407 16.023438-16.027344 16.023438-.847656 0-1.714844-.070312-2.574219-.207031-3.277344-.527344-6.597656.609375-8.871094 3.023437-2.269531 2.417969-3.195312 5.804688-2.46875 9.042969.605469 2.695313.910157 5.4375.910157 8.152344 0 20.429687-16.617188 37.046875-37.046876 37.046875-2.808593 0-5.640624-.328125-8.425781-.972656-2.375-.554688-4.871093-.21875-7.019531.941406-2.496094 1.351562-5.214844 2.035156-8.078125 2.035156-5.722656 0-11.03125-2.855469-14.203125-7.640625-1.730469-2.609375-4.582031-4.257813-7.710938-4.453125-3.121093-.199219-6.160156 1.082031-8.203124 3.457031-3.625 4.214844-8.886719 6.632813-14.425782 6.632813-8.246094 0-15.511718-5.261719-18.082031-13.089844-1.558594-4.746094-6.375-7.609375-11.289063-6.71875-1.066406.191406-2.128906.289062-3.164062.289062-9.664062 0-17.527344-7.863281-17.527344-17.527343 0-6.300781 3.414063-12.148438 8.914063-15.261719 3.644531-2.0625 5.613281-6.175781 4.941406-10.308594-.671875-4.132812-3.84375-7.40625-7.953125-8.207031-6.320312-1.234375-10.90625-6.816406-10.90625-13.269531 0-6.796875 5.042969-12.421875 11.582031-13.371094 3.246094 3.414062 6.890625 6.5 10.90625 9.179688 1.707031 1.136718 3.632813 1.679687 5.539063 1.679687 3.230468 0 6.402344-1.5625 8.332031-4.453125 3.0625-4.597656 1.820313-10.804688-2.773437-13.867188-12.257813-8.171874-19.574219-21.84375-19.574219-36.570312v-16.183594h31.066406c9.53125 0 18.710937 3.484375 25.84375 9.8125zm90.5-173.71875c1.105469-3.121094.589844-6.585937-1.367187-9.253906-1.960938-2.667969-5.113282-4.191406-8.421876-4.074219-2.527343.089844-5.023437-.332031-7.40625-1.257812-7.929687-3.078125-12.761718-11.117188-11.757812-19.546875.425781-3.585938-1.113281-7.128906-4.03125-9.257813-2.921875-2.132812-6.761719-2.523437-10.050781-1.023437-4.617188 2.105468-9.757813 2.253906-14.476563.421875-4.304687-1.675781-7.820312-4.867188-9.890625-8.992188-1.402343-2.789062-4.019531-4.761719-7.085937-5.339843-3.0625-.578126-6.222656.308593-8.542969 2.398437-5.265625 4.742187-12.636719 6.097656-19.226563 3.535156-2.796874-1.085937-5.21875-2.773437-7.199218-5.015625-3.421875-3.875-9.234375-4.503906-13.40625-1.449218-5.171875 3.792968-11.816406 4.671874-17.773438 2.355468-1.804687-.699218-3.480468-1.671875-4.980468-2.886718-1.296876-1.050782-2.773438-1.714844-4.304688-2.023438.6875-3.453125 1.429688-6.894531 2.242188-10.320312.007812-.039063.011718-.082032.023437-.121094.039063-.1875.074219-.378906.105469-.574219.023437-.148437.050781-.304687.070312-.457031.015625-.148438.023438-.296875.035156-.449219.015626-.199219.027344-.394531.03125-.59375 0-.039063.003907-.078125.003907-.117187 0-8.46875 6.890625-15.359376 15.359375-15.359376 1.324218 0 2.640625.171876 3.914062.503907 3.042969.800781 6.285156.117187 8.75-1.835938s3.867188-4.957031 3.785156-8.101562l-.019531-.566407c0-11.964843 9.734375-21.699218 21.699219-21.699218 4.066406 0 8.03125 1.136718 11.464844 3.28125 2.8125 1.753906 6.304687 2.003906 9.335937.664062.097657-.042968.1875-.097656.28125-.144531 5.144531 11.1875 13.710938 20.535156 24.789063 26.699219 2.328125 1.296875 4.71875 2.421875 7.15625 3.378906 2.984375 17.328125 13.328125 32.132812 28.492187 40.894531-.058593.6875-.054687 1.390625.03125 2.097657 2.234375 18.054687 12.449219 33.789062 28.023438 43.164062 5.058593 3.042969 10.445312 5.265625 15.996093 6.667969-.917968 1.515625-1.753906 3.09375-2.496093 4.734375-.058594.125-.109375.246094-.160157.371094l-9.386718 23.214843c-1.574219-.292969-3.121094-.722656-4.640625-1.3125-13.0625-5.078125-19.636719-19.402343-14.964844-32.609375zm25.964844-18.203125c-7.769531-4.679687-13.519531-11.757812-16.496094-20.085937.9375-.136719 1.875-.230469 2.8125-.296875 1.5625.128906 3.128906.214843 4.695313.214843.804687 0 1.609374-.027343 2.414062-.058593 5.417969.625 10.710938 2.40625 15.550781 5.316406 7.769531 4.675781 13.515625 11.757813 16.496094 20.085937-8.753906 1.261719-17.699219-.5-25.472656-5.175781zm-1.863281-40.84375c-1.433594.269531-2.875.445313-4.316407.550781-2.375-.195312-4.757812-.234374-7.144531-.136718-4.90625-.558594-9.722656-2.070313-14.207031-4.515625-7.957031-4.347657-14-11.179688-17.324219-19.378907 8.691406-1.632812 17.707031-.242187 25.667969 4.105469 7.957031 4.34375 14 11.175781 17.324219 19.375zm-36.792969-44.722656c-8.707031 1.5625-17.707031.105469-25.632813-4.304687-7.925781-4.410157-13.914062-11.289063-17.171875-19.511719 8.707031-1.566407 17.707031-.105469 25.632813 4.304687 7.925781 4.40625 13.910156 11.289063 17.171875 19.511719zm0 0" fill="#ffffff" data-original="#000000" class=""></path><path xmlns="http://www.w3.org/2000/svg" d="m319.949219 300.328125c-2.628907 0-5.210938 1.070313-7.070313 2.933594-1.859375 1.859375-2.929687 4.4375-2.929687 7.066406 0 2.632813 1.070312 5.210937 2.929687 7.070313 1.859375 1.863281 4.441406 2.929687 7.070313 2.929687 2.640625 0 5.21875-1.066406 7.070312-2.929687 1.871094-1.859376 2.941407-4.4375 2.941407-7.070313 0-2.628906-1.070313-5.207031-2.941407-7.066406-1.851562-1.863281-4.429687-2.933594-7.070312-2.933594zm0 0" fill="#ffffff" data-original="#000000" class=""></path></g></svg>