<svg xmlns="http://www.w3.org/2000/svg" version="1.1" xmlns:xlink="http://www.w3.org/1999/xlink" xmlns:svgjs="http://svgjs.com/svgjs" width="512" height="512" x="0" y="0" viewBox="0 0 64 64" style="enable-background:new 0 0 512 512" xml:space="preserve" class="hovered-paths"><g transform="matrix(1.0899999999999999,0,0,1.0899999999999999,-2.8799999999999955,-2.8799999999999955)"><g xmlns="http://www.w3.org/2000/svg" id="School"><path d="M56,27H45V24.89a5,5,0,0,0-2.19-4.13L34.7,15.23A4.93,4.93,0,0,0,33,14.5V11h9a1,1,0,0,0,1-1V4a1,1,0,0,0-1-1H32a1,1,0,0,0-1,1V14.45a5,5,0,0,0-2,.81l-7.88,5.5A5,5,0,0,0,19,24.86V59H5V32a3,3,0,0,1,3-3h8a1,1,0,0,0,0-2H8a5,5,0,0,0-5,5V60a1,1,0,0,0,1,1H44a1,1,0,0,0,1-1V29H56a3,3,0,0,1,3,3V59H50a1,1,0,0,0,0,2H60a1,1,0,0,0,1-1V32A5,5,0,0,0,56,27ZM41,9H33V5h8ZM21,28V24.86a3,3,0,0,1,1.28-2.46l7.88-5.5a3,3,0,0,1,3.41,0l8.12,5.53A3,3,0,0,1,43,24.89V59H38V52a5,5,0,0,0-5-5H31a5,5,0,0,0-5,5v7H21Zm7,24a3,3,0,0,1,3-3h0l.07,10H28Zm5.08,7L33,49a3,3,0,0,1,3,3v7Z" fill="#ffffff" data-original="#000000" class="hovered-path"></path><path d="M16,35a1,1,0,0,0-1-1H9a1,1,0,0,0-1,1v6a1,1,0,0,0,1,1h6a1,1,0,0,0,1-1Zm-2,5H10V36h4Z" fill="#ffffff" data-original="#000000" class="hovered-path"></path><path d="M15,46H9a1,1,0,0,0-1,1v6a1,1,0,0,0,1,1h6a1,1,0,0,0,1-1V47A1,1,0,0,0,15,46Zm-1,6H10V48h4Z" fill="#ffffff" data-original="#000000" class="hovered-path"></path><path d="M49,42h6a1,1,0,0,0,1-1V35a1,1,0,0,0-1-1H49a1,1,0,0,0-1,1v6A1,1,0,0,0,49,42Zm1-6h4v4H50Z" fill="#ffffff" data-original="#000000" class="hovered-path"></path><path d="M55,54a1,1,0,0,0,1-1V47a1,1,0,0,0-1-1H49a1,1,0,0,0-1,1v6a1,1,0,0,0,1,1Zm-5-6h4v4H50Z" fill="#ffffff" data-original="#000000" class="hovered-path"></path><path d="M32,38a5.5,5.5,0,1,0-5.5-5.5A5.51,5.51,0,0,0,32,38Zm0-9a3.5,3.5,0,1,1-3.5,3.5A3.5,3.5,0,0,1,32,29Z" fill="#ffffff" data-original="#000000" class="hovered-path"></path><circle cx="47" cy="60" r="1" fill="#ffffff" data-original="#000000" class="hovered-path"></circle></g></g></svg>