<svg width="29" height="28" viewBox="0 0 29 28" fill="none" xmlns="http://www.w3.org/2000/svg">
<path d="M21.5535 9.48208V8.7291C22.503 8.17133 23.1174 7.13946 23.1174 6.02392V4.68527C23.1174 2.95619 21.7211 1.56177 19.9896 1.56177C18.2581 1.56177 16.8338 2.95619 16.8338 4.68527V6.02392C16.8338 7.11157 17.3923 8.11555 18.3418 8.67332V9.48208C17.9229 9.59364 17.5319 9.76097 17.141 9.98408C16.5266 8.56177 15.1022 7.55778 13.4545 7.55778C11.8347 7.55778 10.4663 8.50599 9.82395 9.90041C9.46089 9.73308 9.09783 9.56575 8.73478 9.48208V8.7291C9.68431 8.17133 10.2987 7.13946 10.2987 6.02392V4.68527C10.2987 2.95619 8.90234 1.56177 7.17083 1.56177C5.43933 1.56177 4.04295 2.95619 4.04295 4.68527V6.02392C4.04295 7.11157 4.6015 8.11555 5.55104 8.67332V9.48208C3.03756 10.2072 1.33398 12.4661 1.33398 15.0877C1.33398 15.3108 1.52948 15.506 1.7529 15.506H10.0194C10.0474 15.506 10.0753 15.506 10.1032 15.506C10.4384 16.0359 10.9131 16.4821 11.4717 16.8167V18.0717C8.1483 18.9642 5.88617 21.9482 5.88617 25.4064C5.88617 25.6295 6.08166 25.8247 6.30508 25.8247H20.6878C20.9112 25.8247 21.1067 25.6295 21.1067 25.4064C21.1067 21.9761 18.7328 18.9363 15.4374 18.0717V16.8725C16.0239 16.5379 16.4986 16.0916 16.8617 15.5339H25.4354C25.6588 15.5339 25.8543 15.3387 25.8543 15.1155C25.8264 12.494 24.0391 10.1793 21.5535 9.48208ZM2.17181 14.6972C2.33937 12.5219 3.90332 10.7371 6.05373 10.2351C6.24923 10.1793 6.38886 10.012 6.38886 9.81675V8.42232C6.38886 8.25499 6.30508 8.11555 6.16544 8.05977C5.38347 7.66934 4.88078 6.88846 4.88078 6.02392V4.68527C4.88078 3.43029 5.9141 2.39842 7.17083 2.39842C8.42757 2.39842 9.46089 3.43029 9.46089 4.68527V6.02392C9.46089 6.88846 8.93027 7.69722 8.1483 8.08766C8.00866 8.14344 7.89695 8.31077 7.89695 8.4781V9.81675C7.89695 10.012 8.03659 10.1793 8.23208 10.2351C8.70685 10.3466 9.15369 10.514 9.5726 10.7371C9.51675 11.0159 9.48882 11.2948 9.48882 11.6016V13.3865C9.48882 13.8327 9.5726 14.2789 9.71224 14.6972H2.17181ZM14.823 16.2311C14.6833 16.2869 14.5716 16.4542 14.5716 16.6215V18.4064C14.5716 18.6016 14.7113 18.7689 14.9068 18.8247C17.8671 19.4661 20.0454 22.0319 20.2409 25.0159H6.72399C6.89156 22.0319 9.01405 19.5219 11.9744 18.8526C12.1699 18.7968 12.3095 18.6295 12.3095 18.4343V16.5936C12.3095 16.4263 12.2257 16.2869 12.0861 16.2311C10.9969 15.7012 10.3266 14.6136 10.3266 13.4144V11.6295C10.3266 9.87252 11.7509 8.4781 13.4825 8.4781C15.214 8.4781 16.6383 9.90041 16.6383 11.6295V13.3865C16.6383 14.5857 15.9401 15.7012 14.823 16.2311ZM17.2527 14.6972C17.3923 14.2789 17.4761 13.8327 17.4761 13.3865V11.6016C17.4761 11.3506 17.4482 11.0717 17.3923 10.8486C17.8391 10.5697 18.3418 10.3745 18.8445 10.263C19.04 10.2072 19.1797 10.0399 19.1797 9.84463V8.45021C19.1797 8.28288 19.0959 8.14344 18.9562 8.08766C18.1743 7.69722 17.6716 6.91635 17.6716 6.05181V4.71316C17.6716 3.45818 18.7049 2.42631 19.9616 2.42631C21.2184 2.42631 22.2517 3.45818 22.2517 4.71316V6.05181C22.2517 6.91635 21.7211 7.72511 20.9391 8.11555C20.7995 8.17133 20.6878 8.33866 20.6878 8.50599V9.84463C20.6878 10.0399 20.8274 10.2072 21.0229 10.263C23.1733 10.7371 24.7652 12.5777 24.9607 14.7251L17.2527 14.6972Z" fill="white"/>
</svg>
