<svg width="29" height="28" viewBox="0 0 29 28" fill="none" xmlns="http://www.w3.org/2000/svg">
<path d="M14.3527 25.4712C20.3758 25.4712 25.2586 20.5953 25.2586 14.5805C25.2586 8.56579 20.3758 3.68988 14.3527 3.68988C8.32951 3.68988 3.44678 8.56579 3.44678 14.5805C3.44678 20.5953 8.32951 25.4712 14.3527 25.4712Z" fill="black"/>
<path d="M14.3527 25.4712C20.3758 25.4712 25.2586 20.5953 25.2586 14.5805C25.2586 8.56579 20.3758 3.68988 14.3527 3.68988C8.32951 3.68988 3.44678 8.56579 3.44678 14.5805C3.44678 20.5953 8.32951 25.4712 14.3527 25.4712Z" fill="black"/>
<path d="M26.5915 14.5936H23.6388C23.6388 14.5892 23.639 14.5849 23.639 14.5804C23.639 9.45918 19.4815 5.30753 14.353 5.30753C10.9949 5.30753 8.05336 7.08771 6.42249 9.75444H3.49518C2.98686 9.75444 2.57104 10.1697 2.57104 10.6773C2.57104 10.9602 2.70039 11.2141 2.90275 11.3838H2.26841C1.57592 11.3838 1.00928 11.9496 1.00928 12.6412C1.00928 13.3328 1.57592 13.8985 2.26841 13.8985H5.09232C5.07595 14.1238 5.06713 14.351 5.06713 14.5804C5.06713 15.1102 5.11226 15.6292 5.19769 16.1347H2.88413C2.19163 16.1347 1.62494 16.5184 1.62494 16.9872C1.62494 17.4561 2.19163 17.8397 2.88413 17.8397H5.65765C6.97884 21.3529 10.3733 23.8534 14.3531 23.8534C16.9325 23.8534 19.266 22.8028 20.9488 21.1072H24.7999C25.3082 21.1072 25.7241 20.6918 25.7241 20.1843C25.7241 19.6767 25.3082 19.2614 24.7999 19.2614H22.3701C22.6346 18.8105 22.8619 18.3351 23.0483 17.8397H25.2264C25.9189 17.8397 26.4855 17.4561 26.4855 16.9872C26.4855 16.779 26.3737 16.5878 26.1889 16.4393H26.5916C27.0998 16.4393 27.5157 16.024 27.5157 15.5164C27.5157 15.0089 27.0998 14.5936 26.5915 14.5936Z" fill="black"/>
<path d="M26.5913 14.5936H23.6385C23.6385 14.5892 23.6387 14.5849 23.6387 14.5804C23.6387 9.45918 19.4812 5.30753 14.3528 5.30753C10.9947 5.30753 8.05312 7.08771 6.42225 9.75444H3.49494C2.98662 9.75444 2.5708 10.1697 2.5708 10.6773C2.5708 11.1848 2.98668 11.6001 3.49494 11.6001H5.55698C5.23924 12.5355 5.06689 13.5379 5.06689 14.5804C5.06689 19.7017 9.22431 23.8534 14.3528 23.8534C16.9322 23.8534 19.2657 22.8028 20.9485 21.1072H24.7997C25.3079 21.1072 25.7239 20.6918 25.7239 20.1843C25.7239 19.6767 25.3079 19.2614 24.7997 19.2614H22.3698C22.8754 18.3997 23.2461 17.4495 23.452 16.4393H26.5913C27.0995 16.4393 27.5154 16.024 27.5154 15.5164C27.5154 15.0089 27.0995 14.5936 26.5913 14.5936Z" fill="white"/>
<path d="M14.3527 22.5841C9.93332 22.5841 6.33789 18.9937 6.33789 14.5805C6.33789 10.1673 9.93332 6.57683 14.3527 6.57683C18.7721 6.57683 22.3676 10.1672 22.3676 14.5805C22.3676 18.9937 18.7721 22.5841 14.3527 22.5841ZM14.3527 7.34251C10.3561 7.34251 7.10459 10.5895 7.10459 14.5805C7.10459 18.5716 10.3561 21.8185 14.3527 21.8185C18.3494 21.8185 21.6009 18.5716 21.6009 14.5805C21.6009 10.5895 18.3494 7.34251 14.3527 7.34251Z" fill="black"/>
<path d="M14.3529 20.5422C11.061 20.5422 8.38281 17.8678 8.38281 14.5804C8.38281 11.2932 11.061 8.61874 14.3529 8.61874C17.6448 8.61874 20.323 11.2931 20.323 14.5804C20.323 17.8678 17.6448 20.5422 14.3529 20.5422ZM14.3529 9.38442C11.4838 9.38442 9.14951 11.7154 9.14951 14.5805C9.14951 17.4457 11.4838 19.7766 14.3529 19.7766C17.2221 19.7766 19.5563 17.4457 19.5563 14.5805C19.5563 11.7154 17.2221 9.38442 14.3529 9.38442Z" fill="black"/>
<path d="M14.3476 18.3428C16.3569 18.3428 17.9858 16.7163 17.9858 14.7098C17.9858 12.7033 16.3569 11.0767 14.3476 11.0767C12.3383 11.0767 10.7095 12.7033 10.7095 14.7098C10.7095 16.7163 12.3383 18.3428 14.3476 18.3428Z" fill="black"/>
<path d="M8.53305 22.5159C9.13109 22.5159 9.6159 22.0318 9.6159 21.4345C9.6159 20.8373 9.13109 20.3532 8.53305 20.3532C7.935 20.3532 7.4502 20.8373 7.4502 21.4345C7.4502 22.0318 7.935 22.5159 8.53305 22.5159Z" fill="black"/>
<path d="M20.2308 13.7407C20.8288 13.7407 21.3137 13.2565 21.3137 12.6593C21.3137 12.0621 20.8288 11.578 20.2308 11.578C19.6328 11.578 19.1479 12.0621 19.1479 12.6593C19.1479 13.2565 19.6328 13.7407 20.2308 13.7407Z" fill="black"/>
<path d="M10.2075 19.5201C10.4631 19.5201 10.6704 19.3132 10.6704 19.0579C10.6704 18.8026 10.4631 18.5957 10.2075 18.5957C9.95186 18.5957 9.74463 18.8026 9.74463 19.0579C9.74463 19.3132 9.95186 19.5201 10.2075 19.5201Z" fill="black"/>
<path d="M10.9912 10.2419C11.2468 10.2419 11.4541 10.0349 11.4541 9.77966C11.4541 9.52439 11.2468 9.31744 10.9912 9.31744C10.7356 9.31744 10.5283 9.52439 10.5283 9.77966C10.5283 10.0349 10.7356 10.2419 10.9912 10.2419Z" fill="black"/>
<path d="M22.3578 7.48065C22.9558 7.48065 23.4406 6.99652 23.4406 6.39931C23.4406 5.80211 22.9558 5.31798 22.3578 5.31798C21.7597 5.31798 21.2749 5.80211 21.2749 6.39931C21.2749 6.99652 21.7597 7.48065 22.3578 7.48065Z" fill="black"/>
<path d="M6.82601 7.65964C7.42406 7.65964 7.90886 7.1755 7.90886 6.5783C7.90886 5.98109 7.42406 5.49696 6.82601 5.49696C6.22797 5.49696 5.74316 5.98109 5.74316 6.5783C5.74316 7.1755 6.22797 7.65964 6.82601 7.65964Z" fill="black"/>
<path d="M18.0023 7.01346C18.6003 7.01346 19.0851 6.52933 19.0851 5.93212C19.0851 5.33492 18.6003 4.85078 18.0023 4.85078C17.4042 4.85078 16.9194 5.33492 16.9194 5.93212C16.9194 6.52933 17.4042 7.01346 18.0023 7.01346Z" fill="black"/>
<path d="M19.2074 25.2253C19.8054 25.2253 20.2902 24.7411 20.2902 24.1439C20.2902 23.5467 19.8054 23.0626 19.2074 23.0626C18.6093 23.0626 18.1245 23.5467 18.1245 24.1439C18.1245 24.7411 18.6093 25.2253 19.2074 25.2253Z" fill="black"/>
<path d="M23.0852 22.6835C23.6832 22.6835 24.168 22.1994 24.168 21.6022C24.168 21.005 23.6832 20.5209 23.0852 20.5209C22.4872 20.5209 22.0024 21.005 22.0024 21.6022C22.0024 22.1994 22.4872 22.6835 23.0852 22.6835Z" fill="black"/>
<path d="M2.93113 24.3269C3.18676 24.3269 3.39399 24.12 3.39399 23.8647C3.39399 23.6094 3.18676 23.4025 2.93113 23.4025C2.67549 23.4025 2.46826 23.6094 2.46826 23.8647C2.46826 24.12 2.67549 24.3269 2.93113 24.3269Z" fill="black"/>
<path d="M16.7558 21.2528C17.0115 21.2528 17.2187 21.0459 17.2187 20.7906C17.2187 20.5353 17.0115 20.3284 16.7558 20.3284C16.5002 20.3284 16.293 20.5353 16.293 20.7906C16.293 21.0459 16.5002 21.2528 16.7558 21.2528Z" fill="black"/>
<path d="M3.37888 6.88834C3.63452 6.88834 3.84175 6.68139 3.84175 6.42612C3.84175 6.17084 3.63452 5.9639 3.37888 5.9639C3.12325 5.9639 2.91602 6.17084 2.91602 6.42612C2.91602 6.68139 3.12325 6.88834 3.37888 6.88834Z" fill="black"/>
<path d="M25.7114 8.39743C25.967 8.39743 26.1743 8.19049 26.1743 7.93521C26.1743 7.67993 25.967 7.47299 25.7114 7.47299C25.4558 7.47299 25.2485 7.67993 25.2485 7.93521C25.2485 8.19049 25.4558 8.39743 25.7114 8.39743Z" fill="white"/>
<path d="M18.771 15.384C19.0266 15.384 19.2338 15.1771 19.2338 14.9218C19.2338 14.6665 19.0266 14.4596 18.771 14.4596C18.5153 14.4596 18.3081 14.6665 18.3081 14.9218C18.3081 15.1771 18.5153 15.384 18.771 15.384Z" fill="black"/>
<path d="M14.3528 16.1693C15.2315 16.1693 15.9438 15.458 15.9438 14.5805C15.9438 13.703 15.2315 12.9917 14.3528 12.9917C13.4741 12.9917 12.7617 13.703 12.7617 14.5805C12.7617 15.458 13.4741 16.1693 14.3528 16.1693Z" fill="white"/>
<path d="M14.3741 12.9918C14.3669 12.9917 14.3597 12.9921 14.3525 12.9921L14.3096 16.1683C14.3168 16.1685 14.3239 16.1691 14.3312 16.1692C15.2098 16.181 15.9317 15.4793 15.9436 14.6019C15.9554 13.7245 15.2528 13.0036 14.3741 12.9918Z" fill="white"/>
<path d="M23.0354 9.80229L23.3198 10.3777L23.9557 10.4699L23.4956 10.9178L23.6042 11.5502L23.0354 11.2516L22.4667 11.5502L22.5754 10.9178L22.1152 10.4699L22.7511 10.3777L23.0354 9.80229Z" fill="white"/>
<path d="M2.93735 18.9898L3.22168 19.5652L3.85749 19.6574L3.39742 20.1053L3.50602 20.7377L2.93735 20.4391L2.36857 20.7377L2.47722 20.1053L2.01709 19.6574L2.65296 19.5652L2.93735 18.9898Z" fill="white"/>
<path d="M7.97543 2.52885L8.25977 3.10428L8.89558 3.19648L8.43551 3.64437L8.5441 4.27678L7.97543 3.97818L7.40665 4.27678L7.5153 3.64437L7.05518 3.19648L7.69104 3.10428L7.97543 2.52885Z" fill="white"/>
</svg>
