<svg xmlns="http://www.w3.org/2000/svg" version="1.1" xmlns:xlink="http://www.w3.org/1999/xlink" xmlns:svgjs="http://svgjs.com/svgjs" width="512" height="512" x="0" y="0" viewBox="0 0 512 512" style="enable-background:new 0 0 512 512" xml:space="preserve" class=""><g><g xmlns="http://www.w3.org/2000/svg"><path d="m256 366c5.523 0 10-4.478 10-10v-60c0-5.522-4.477-10-10-10s-10 4.478-10 10v60c0 5.522 4.477 10 10 10z" fill="#ffffff" data-original="#000000" class=""></path><path d="m216 366c5.523 0 10-4.478 10-10v-60c0-5.522-4.477-10-10-10s-10 4.478-10 10v60c0 5.522 4.477 10 10 10z" fill="#ffffff" data-original="#000000" class=""></path><path d="m296 366c5.523 0 10-4.478 10-10v-60c0-5.522-4.477-10-10-10s-10 4.478-10 10v60c0 5.522 4.477 10 10 10z" fill="#ffffff" data-original="#000000" class=""></path><path d="m502 266h-103c-5.523 0-10 4.478-10 10v30h-43v-40h10c5.523 0 10-4.478 10-10v-40c0-5.522-4.477-10-10-10h-10.569c-3.82-34.01-26.891-63.068-59.431-74.563v-15.437c0-13.036-8.361-24.152-20-28.28v-51.72c0-5.522-4.477-10-10-10s-10 4.478-10 10v51.72c-11.639 4.128-20 15.243-20 28.28v15.438c-32.541 11.494-55.611 40.552-59.431 74.563h-10.569c-5.523 0-10 4.478-10 10v40c0 5.522 4.477 10 10 10h10v40h-43v-30c0-5.522-4.477-10-10-10h-103c-5.523 0-10 4.478-10 10v200c0 5.522 4.477 10 10 10h492c5.523 0 10-4.478 10-10 0-5.267 0-198.013 0-200 0-5.523-4.477-10.001-10-10.001zm-93 20h83v20h-83zm-243-60h45c5.523 0 10-4.478 10-10s-4.477-10-10-10h-24.278c3.991-27.426 24.168-50.337 51.785-57.489 4.412-1.143 7.493-5.123 7.493-9.681v-22.83c0-5.514 4.486-10 10-10s10 4.486 10 10v22.83c0 4.558 3.081 8.538 7.493 9.681 27.617 7.152 47.794 30.063 51.785 57.489h-24.278c-5.523 0-10 4.478-10 10s4.477 10 10 10h45v20h-180zm160 40v200h-20v-30c0-27.57-22.43-50-50-50s-50 22.43-50 50v30h-20v-200zm-40 200h-60v-30c0-16.542 13.458-30 30-30s30 13.458 30 30zm-183-180v20h-83v-20zm-83 40h146v140h-146zm472 140h-146v-140h146z" fill="#ffffff" data-original="#000000" class=""></path><path d="m133 346c-5.523 0-10 4.478-10 10v20c0 5.522 4.477 10 10 10s10-4.478 10-10v-20c0-5.522-4.477-10-10-10z" fill="#ffffff" data-original="#000000" class=""></path><path d="m133 406c-5.523 0-10 4.478-10 10v20c0 5.522 4.477 10 10 10s10-4.478 10-10v-20c0-5.522-4.477-10-10-10z" fill="#ffffff" data-original="#000000" class=""></path><path d="m93 406c-5.523 0-10 4.478-10 10v20c0 5.522 4.477 10 10 10s10-4.478 10-10v-20c0-5.522-4.477-10-10-10z" fill="#ffffff" data-original="#000000" class=""></path><path d="m93 346c-5.523 0-10 4.478-10 10v20c0 5.522 4.477 10 10 10s10-4.478 10-10v-20c0-5.522-4.477-10-10-10z" fill="#ffffff" data-original="#000000" class=""></path><path d="m53 346c-5.523 0-10 4.478-10 10v20c0 5.522 4.477 10 10 10s10-4.478 10-10v-20c0-5.522-4.477-10-10-10z" fill="#ffffff" data-original="#000000" class=""></path><path d="m53 406c-5.523 0-10 4.478-10 10v20c0 5.522 4.477 10 10 10s10-4.478 10-10v-20c0-5.522-4.477-10-10-10z" fill="#ffffff" data-original="#000000" class=""></path><path d="m459 386c5.523 0 10-4.478 10-10v-20c0-5.522-4.477-10-10-10s-10 4.478-10 10v20c0 5.522 4.477 10 10 10z" fill="#ffffff" data-original="#000000" class=""></path><path d="m459 446c5.523 0 10-4.478 10-10v-20c0-5.522-4.477-10-10-10s-10 4.478-10 10v20c0 5.522 4.477 10 10 10z" fill="#ffffff" data-original="#000000" class=""></path><path d="m419 446c5.523 0 10-4.478 10-10v-20c0-5.522-4.477-10-10-10s-10 4.478-10 10v20c0 5.522 4.477 10 10 10z" fill="#ffffff" data-original="#000000" class=""></path><path d="m419 386c5.523 0 10-4.478 10-10v-20c0-5.522-4.477-10-10-10s-10 4.478-10 10v20c0 5.522 4.477 10 10 10z" fill="#ffffff" data-original="#000000" class=""></path><path d="m379 346c-5.523 0-10 4.478-10 10v20c0 5.522 4.477 10 10 10s10-4.478 10-10v-20c0-5.522-4.477-10-10-10z" fill="#ffffff" data-original="#000000" class=""></path><path d="m379 406c-5.523 0-10 4.478-10 10v20c0 5.522 4.477 10 10 10s10-4.478 10-10v-20c0-5.522-4.477-10-10-10z" fill="#ffffff" data-original="#000000" class=""></path><circle cx="256" cy="216" r="10" fill="#ffffff" data-original="#000000" class=""></circle></g></g></svg>