<svg width="29" height="28" viewBox="0 0 29 28" fill="none" xmlns="http://www.w3.org/2000/svg">
<g clip-path="url(#clip0_25_768)">
<path d="M14.1706 7.27016C14.2177 8.68328 14.3447 21.0273 14.2012 21.8859C14.072 22.6592 13.5769 24.0559 12.6317 24.2025C11.6865 24.3491 11.0731 23.6392 10.7894 23.5463C10.5057 23.4533 9.72152 23.9324 9.10159 23.5091C8.48166 23.0858 8.61748 21.9778 8.44443 21.7897C8.27137 21.6016 7.3119 21.8236 6.85189 21.1892C6.39187 20.5548 6.79164 19.8767 6.64597 19.693C6.5003 19.5092 5.083 19.343 4.88257 17.8609C4.65475 16.1602 6.02057 15.8277 6.0129 15.563C6.00523 15.2983 4.88038 13.8513 5.44992 12.0728C6.01947 10.2944 7.51782 10.1041 7.60544 9.94438C7.69306 9.78469 7.00742 8.80469 7.90993 7.39156C8.81244 5.97844 10.1147 6.36016 10.2998 6.23438C10.4849 6.1086 10.2681 5.55188 10.8957 4.76328C11.4751 4.03485 12.5835 3.85547 13.3841 4.31594C14.1103 4.73813 14.1235 5.85703 14.1706 7.27016Z" fill="#191919"/>
<path d="M12.3719 25.0983C11.5417 25.0983 10.9393 24.6859 10.5943 24.4497L10.5855 24.4442L10.545 24.453C10.1211 24.5503 9.33141 24.7308 8.60743 24.2342C7.95683 23.7902 7.79145 23.0573 7.71368 22.5367C7.25257 22.4777 6.59321 22.3234 6.14524 21.7055C5.84185 21.2782 5.70443 20.7553 5.7586 20.2344C4.22521 19.4884 4.07406 18.4023 4.01711 17.9791C3.82215 16.5484 4.47932 15.7664 4.96343 15.3486C4.63485 14.6355 4.13102 13.3208 4.61513 11.807C4.76731 11.2984 5.023 10.8266 5.3662 10.4212C5.7094 10.0158 6.13272 9.68557 6.60964 9.45109C6.50778 8.86594 6.50011 7.97125 7.17042 6.92125C7.93712 5.72797 8.9634 5.47312 9.60742 5.41515C9.71764 4.97844 9.92295 4.57138 10.2087 4.22297C11.0466 3.17078 12.6326 2.87984 13.8232 3.56672C14.9469 4.20875 14.994 5.6175 15.0422 7.10937V7.24281C15.0773 8.29062 15.2306 21.0241 15.0619 22.0314C14.8505 23.3012 14.1211 24.8587 12.7618 25.0698C12.6328 25.0892 12.5024 25.0987 12.3719 25.0983ZM10.7049 22.6658C10.8218 22.6649 10.9381 22.6819 11.0499 22.7161C11.242 22.7846 11.4223 22.8824 11.5844 23.0059C11.913 23.2323 12.1737 23.3887 12.4979 23.3341C12.7947 23.2881 13.2109 22.4973 13.338 21.7383C13.4606 20.8436 13.3478 8.87468 13.2952 7.29531V7.16078C13.2668 6.30328 13.2328 5.23578 12.9513 5.0739C12.5132 4.82125 11.8867 4.92844 11.5855 5.30687C11.4033 5.51978 11.2929 5.78462 11.2701 6.06375C11.2383 6.28906 11.1802 6.70797 10.7816 6.96937C10.5286 7.13562 10.269 7.14 10.0401 7.14437C9.61947 7.15203 9.09593 7.16297 8.64905 7.86187C8.1748 8.60453 8.32047 9.11859 8.41247 9.45875C8.4749 9.68297 8.5691 10.022 8.36976 10.3753C8.20218 10.6717 7.9404 10.78 7.71259 10.8752C7.30076 11.0458 6.61731 11.3312 6.28872 12.3397C5.96014 13.382 6.39825 14.2887 6.66221 14.8302C6.79255 15.097 6.88674 15.2906 6.89332 15.5389C6.90755 16.0584 6.53187 16.3461 6.30734 16.5233C5.97876 16.7792 5.65893 17.0198 5.7597 17.7537C5.83966 18.3455 6.22191 18.5478 6.71369 18.7512C6.93932 18.8442 7.17152 18.9405 7.34895 19.1691C7.62606 19.5278 7.56801 19.9259 7.53515 20.1895C7.50229 20.4531 7.49134 20.5767 7.5713 20.6872C7.63811 20.7791 7.92945 20.8086 8.11894 20.8272C8.4289 20.8578 8.81554 20.8961 9.10469 21.2166C9.34127 21.4802 9.38399 21.793 9.43327 22.1244C9.45518 22.2862 9.51323 22.715 9.60742 22.7981C9.69724 22.8594 9.97653 22.7981 10.1616 22.7522C10.3389 22.7032 10.5211 22.6742 10.7049 22.6658Z" fill="#191919"/>
<path d="M15.1354 6.98031C15.062 8.40219 14.9295 20.8075 15.0587 21.6727C15.1748 22.4514 15.3873 23.3242 16.5472 23.8864C17.4234 24.3108 18.258 23.6206 18.5329 23.5309C18.8079 23.4412 19.465 23.5605 20.1014 23.1448C20.7377 22.7292 21.0148 21.7995 21.1879 21.7022C21.361 21.6048 22.1988 21.6891 22.6775 21.058C23.1561 20.4269 22.7651 19.7684 22.8199 19.5628C22.8746 19.3572 24.1254 19.1144 24.3598 17.7658C24.649 16.1066 23.2952 15.6592 23.258 15.435C23.2207 15.2108 24.2744 14.4244 23.9469 12.8592C23.5888 11.1497 22.4803 10.9462 22.396 10.7352C22.3117 10.5241 22.9612 9.98375 22.6238 9.00703C22.2865 8.03031 21.419 8.05219 21.292 7.84109C21.1649 7.63 21.4749 7.09844 20.9437 6.44219C20.3905 5.75859 19.2679 6.10422 19.0817 6.00469C18.8955 5.90516 18.8999 5.22266 18.2569 4.54234C17.7531 4.00969 16.6545 3.73406 15.9251 4.35312C15.2778 4.9 15.2131 5.56062 15.1354 6.98031Z" fill="#191919"/>
<path d="M17.1344 24.8981C16.7975 24.8986 16.4651 24.8215 16.1629 24.6728C14.4991 23.8634 14.291 22.47 14.1914 21.8006C14.0424 20.8064 14.1914 8.1725 14.2593 6.93328C14.3294 5.57703 14.3852 4.50625 15.3546 3.68266C16.4498 2.75516 18.0665 3.06578 18.8912 3.9375C19.2161 4.28134 19.4699 4.6857 19.6382 5.1275C20.1924 5.11328 21.0435 5.17563 21.6229 5.89313C21.9536 6.28724 22.1377 6.78336 22.1442 7.2975C22.4503 7.42878 22.725 7.62339 22.9503 7.86849C23.1755 8.11358 23.3461 8.40359 23.4509 8.71938C23.6489 9.26653 23.6462 9.86607 23.4432 10.4114C23.9076 10.7603 24.5385 11.4089 24.8025 12.6777C24.9974 13.5623 24.8424 14.4879 24.3698 15.2611C24.8485 15.7117 25.4651 16.5375 25.2209 17.9145C25.0171 19.0805 24.2614 19.6744 23.7652 19.9795C23.8116 20.2596 23.8008 20.5461 23.7334 20.8218C23.666 21.0976 23.5435 21.3568 23.3731 21.5841C22.866 22.2534 22.1475 22.4197 21.7127 22.4886C21.5068 22.8714 21.165 23.4905 20.578 23.8744C19.9427 24.2889 19.3118 24.3316 18.935 24.3567L18.7992 24.3666L18.7127 24.4125C18.4137 24.5809 17.831 24.8981 17.1344 24.8981ZM16.9252 4.87156C16.7662 4.86585 16.6105 4.91793 16.4871 5.01813C16.1508 5.3025 16.0796 5.60328 16.0052 7.02516C15.9307 8.44703 15.8135 20.6719 15.9252 21.5469C16.0249 22.2173 16.1563 22.7237 16.9307 23.1C17.1957 23.2291 17.5156 23.077 17.8759 22.8812C17.9985 22.8092 18.1276 22.7488 18.2614 22.7008C18.4429 22.6491 18.6303 22.6204 18.8189 22.6155C19.0895 22.5969 19.3666 22.5783 19.6207 22.4142C19.8474 22.2666 20.0489 21.8903 20.1837 21.642C20.3403 21.3511 20.475 21.0952 20.7587 20.9409C20.9343 20.8522 21.1255 20.7983 21.3217 20.7823C21.6174 20.7408 21.854 20.6959 21.9788 20.5319C22.0632 20.4225 22.0566 20.3131 21.9953 20.0277C21.9306 19.8026 21.9235 19.5649 21.9744 19.3364C22.084 18.9262 22.4038 18.7469 22.6601 18.6036C23.0785 18.3684 23.406 18.1464 23.498 17.6192C23.6261 16.8809 23.2789 16.6086 22.9394 16.3461C22.7368 16.1886 22.4597 15.972 22.3917 15.5805C22.3238 15.1889 22.5287 14.8761 22.6919 14.6366C22.9273 14.292 23.2504 13.8195 23.0872 13.0408C22.8945 12.1188 22.4651 11.8519 22.153 11.6572C21.9536 11.5336 21.7061 11.3794 21.5801 11.0589C21.4115 10.6334 21.59 10.2648 21.6962 10.0439C21.8123 9.80328 21.9043 9.61297 21.7937 9.29359C21.6962 9.01141 21.5396 8.93594 21.2461 8.81781C21.027 8.72922 20.7247 8.60672 20.5352 8.28953C20.4026 8.04409 20.3502 7.7634 20.3852 7.48672C20.3972 7.27672 20.4027 7.17172 20.2592 6.99453C20.1497 6.85344 19.7116 6.8775 19.4772 6.88516C19.1968 6.90047 18.9296 6.91578 18.6601 6.76813C18.2932 6.56906 18.1727 6.23 18.0763 5.95656C17.9887 5.65395 17.8337 5.37503 17.6229 5.14063C17.4319 4.96821 17.1838 4.87238 16.9263 4.87156H16.9252Z" fill="#191919"/>
<path d="M14.1706 7.27016C14.2177 8.68328 14.3447 21.0273 14.2012 21.8859C14.072 22.6592 13.5769 24.0559 12.6317 24.2025C11.6865 24.3491 11.0731 23.6392 10.7894 23.5463C10.5057 23.4533 9.72152 23.9324 9.10159 23.5091C8.48166 23.0858 8.61748 21.9778 8.44443 21.7897C8.27137 21.6016 7.3119 21.8236 6.85189 21.1892C6.39187 20.5548 6.79164 19.8767 6.64597 19.693C6.5003 19.5092 5.083 19.343 4.88257 17.8609C4.65475 16.1602 6.02057 15.8277 6.0129 15.563C6.00523 15.2983 4.88038 13.8513 5.44992 12.0728C6.01947 10.2944 7.51782 10.1041 7.60544 9.94438C7.69306 9.78469 7.00742 8.80469 7.90993 7.39156C8.81244 5.97844 10.1147 6.36016 10.2998 6.23438C10.4849 6.1086 10.2681 5.55188 10.8957 4.76328C11.4751 4.03485 12.5835 3.85547 13.3841 4.31594C14.1103 4.73813 14.1235 5.85703 14.1706 7.27016Z" fill="white"/>
<path d="M15.1354 6.98031C15.062 8.40219 14.9295 20.8075 15.0587 21.6727C15.1748 22.4514 15.3873 23.3242 16.5472 23.8864C17.4234 24.3108 18.258 23.6206 18.5329 23.5309C18.8079 23.4412 19.465 23.5605 20.1014 23.1448C20.7377 22.7292 21.0148 21.7995 21.1879 21.7022C21.361 21.6048 22.1988 21.6891 22.6775 21.058C23.1561 20.4269 22.7651 19.7684 22.8199 19.5628C22.8746 19.3572 24.1254 19.1144 24.3598 17.7658C24.649 16.1066 23.2952 15.6592 23.258 15.435C23.2207 15.2108 24.2744 14.4244 23.9469 12.8592C23.5888 11.1497 22.4803 10.9462 22.396 10.7352C22.3117 10.5241 22.9612 9.98375 22.6238 9.00703C22.2865 8.03031 21.419 8.05219 21.292 7.84109C21.1649 7.63 21.4749 7.09844 20.9437 6.44219C20.3905 5.75859 19.2679 6.10422 19.0817 6.00469C18.8955 5.90516 18.8999 5.22266 18.2569 4.54234C17.7531 4.00969 16.6545 3.73406 15.9251 4.35312C15.2778 4.9 15.2131 5.56062 15.1354 6.98031Z" fill="white"/>
<path d="M17.3119 8.3125C16.819 7.96797 11.6416 13.2169 11.8081 13.6467C11.9746 14.0766 13.6624 14.0514 13.8892 14.3128C14.1159 14.5742 12.0557 19.1767 12.4379 19.4753C12.7249 19.6941 17.8957 14.6377 17.819 14.1838C17.7424 13.7298 16.3557 13.8152 16.0523 13.5275C15.749 13.2398 17.6646 8.56078 17.3119 8.3125Z" fill="#E83A2A"/>
<path d="M1.86726 16.0967C2.10494 16.0967 3.56385 15.7084 3.80263 15.5619C4.0414 15.4153 3.75881 14.5873 3.5759 14.5502C3.39299 14.513 1.85083 14.9581 1.64054 15.085C1.43025 15.2119 1.63178 16.1 1.86726 16.0967Z" fill="#191919"/>
<path d="M1.56185 10.7122C1.37565 10.5219 1.62538 9.78907 1.90905 9.78578C2.19273 9.7825 3.5465 10.2331 3.71298 10.3906C3.87947 10.5481 3.68341 11.2842 3.36578 11.317C3.04815 11.3498 1.76667 10.9211 1.56185 10.7122Z" fill="#191919"/>
<path d="M4.42455 7.35219C4.30517 7.11375 4.76847 6.49359 5.03901 6.57672C5.30954 6.65984 5.90318 7.10937 6.00176 7.30734C6.10033 7.50531 5.69946 8.14844 5.3873 8.08281C5.07515 8.01719 4.55599 7.6125 4.42455 7.35219Z" fill="#191919"/>
<path d="M3.27453 21.4933C3.00838 21.4802 2.69294 20.7736 2.89776 20.5778C3.10257 20.382 3.77398 20.0889 4.00728 20.0966C4.24057 20.1042 4.59435 20.7714 4.38405 21.012C4.17376 21.2527 3.56259 21.5064 3.27453 21.4933Z" fill="#191919"/>
<path d="M27.1212 11.4177C26.9416 11.3991 25.9405 11.6222 25.7499 11.7458C25.5594 11.8694 25.8463 12.693 25.981 12.7455C26.1158 12.798 27.1859 12.5267 27.3523 12.4173C27.5188 12.308 27.3009 11.4363 27.1212 11.4177Z" fill="#191919"/>
<path d="M24.7271 9.67422C24.4609 9.66438 24.1378 8.9611 24.3415 8.76313C24.5452 8.56516 25.8377 7.9625 26.0655 7.96906C26.2933 7.97563 26.6756 8.60672 26.4675 8.84406C26.2594 9.08141 25.0195 9.68407 24.7271 9.67422Z" fill="#191919"/>
<path d="M28.028 15.5313C28.2536 15.6723 28.1825 16.4434 27.9075 16.5156C27.6326 16.5878 26.211 16.4642 26.016 16.345C25.821 16.2258 25.8353 15.47 26.1365 15.3606C26.4377 15.2513 27.7805 15.3748 28.028 15.5313Z" fill="#191919"/>
<path d="M26.7267 19.4283C26.9151 19.6164 26.6698 20.3514 26.3861 20.3569C26.1024 20.3623 25.4529 20.1184 25.2908 19.9587C25.1287 19.7991 25.3138 19.0652 25.6314 19.0302C25.9491 18.9952 26.5197 19.2216 26.7267 19.4283Z" fill="#191919"/>
</g>
<defs>
<clipPath id="clip0_25_768">
<rect width="28.0392" height="28" fill="white" transform="translate(0.645996)"/>
</clipPath>
</defs>
</svg>
