<svg width="29" height="28" viewBox="0 0 29 28" fill="none" xmlns="http://www.w3.org/2000/svg">
<g clip-path="url(#clip0_25_759)">
<path d="M14.7904 4.82754C13.819 4.82754 12.9895 5.39045 12.5892 6.20646C12.024 5.59279 11.2086 5.20762 10.3079 5.20762C8.60005 5.20762 7.22617 6.59929 7.22617 8.30486C7.22617 8.70881 7.30505 9.09023 7.4462 9.44396C6.0297 9.49809 4.88477 10.6541 4.88477 12.0819C4.88477 13.3608 5.79812 14.4128 7.00594 14.6597C6.7051 15.0889 6.52567 15.6144 6.52567 16.1783C6.52567 17.6401 7.7233 18.8163 9.18716 18.8163C9.3493 18.8163 9.49333 18.7826 9.64742 18.7546C10.0457 19.7138 10.9843 20.3932 12.0888 20.3932C12.7368 20.3932 13.3093 20.1399 13.7698 19.7537C14.2426 20.4783 15.0603 20.9528 15.991 20.9528C17.1804 20.9528 18.1768 20.1717 18.5124 19.0944C18.9199 19.3501 19.3969 19.5141 19.9132 19.5141C21.377 19.5141 22.5547 18.318 22.5547 16.8562C22.5547 16.4653 22.4668 16.1109 22.3147 15.777C23.6564 15.6466 24.696 14.5134 24.696 13.1394C24.696 12.307 24.317 11.5862 23.7155 11.101C23.9401 10.769 24.0757 10.3526 24.0757 9.92213C24.0757 8.77339 23.1447 7.84389 21.9945 7.84389C21.9665 7.84389 21.942 7.86907 21.9143 7.86907C21.9171 7.82054 21.9348 7.77662 21.9348 7.72837C21.9348 6.26649 20.7371 5.09038 19.2733 5.09038C18.3426 5.09038 17.5249 5.56488 17.052 6.28952C16.669 5.42908 15.7945 4.83084 14.7907 4.83084L14.7904 4.82754ZM10.2278 20.4547C9.44363 20.4547 8.80707 20.9166 8.80707 21.4737C8.80707 22.0306 9.44363 22.4731 10.2278 22.4731C11.0121 22.4731 11.6487 22.0306 11.6487 21.4737C11.6487 20.9169 11.0121 20.4547 10.2278 20.4547ZM7.66641 21.5339C7.21332 21.5339 6.84595 21.9007 6.84595 22.3532C6.84595 22.8057 7.21332 23.1725 7.66641 23.1725C8.11953 23.1725 8.48689 22.8057 8.48689 22.3532C8.48689 21.9007 8.11953 21.5339 7.66641 21.5339Z" fill="white"/>
</g>
<defs>
<clipPath id="clip0_25_759">
<rect width="28.0392" height="28" fill="white" transform="translate(0.770508)"/>
</clipPath>
</defs>
</svg>
