<svg xmlns="http://www.w3.org/2000/svg" version="1.1" xmlns:xlink="http://www.w3.org/1999/xlink" xmlns:svgjs="http://svgjs.com/svgjs" width="512" height="512" x="0" y="0" viewBox="0 0 256 256" style="enable-background:new 0 0 512 512" xml:space="preserve" class=""><g><path xmlns="http://www.w3.org/2000/svg" d="m128 256a128 128 0 1 1 128-128 128.145 128.145 0 0 1 -128 128zm0-246a118 118 0 1 0 118 118 118.134 118.134 0 0 0 -118-118z" fill="#ffffff" data-original="#000000"></path><path xmlns="http://www.w3.org/2000/svg" d="m128 33.665a5 5 0 0 1 -5-5v-23.665a5 5 0 0 1 10 0v23.665a5 5 0 0 1 -5 5z" fill="#ffffff" data-original="#000000"></path><path xmlns="http://www.w3.org/2000/svg" d="m28.7 133h-23.7a5 5 0 0 1 0-10h23.7a5 5 0 1 1 0 10z" fill="#ffffff" data-original="#000000"></path><path xmlns="http://www.w3.org/2000/svg" d="m128 256a5 5 0 0 1 -5-5v-23.665a5 5 0 0 1 10 0v23.665a5 5 0 0 1 -5 5z" fill="#ffffff" data-original="#000000"></path><path xmlns="http://www.w3.org/2000/svg" d="m251 133h-23.665a5 5 0 0 1 0-10h23.665a5 5 0 0 1 0 10z" fill="#ffffff" data-original="#000000"></path><path xmlns="http://www.w3.org/2000/svg" d="m128 133a5 5 0 0 1 -3.536-1.465l-49.773-49.772a5 5 0 1 1 7.072-7.071l47.731 47.731 30.111-8.069a5 5 0 0 1 2.588 9.661l-32.9 8.815a5.021 5.021 0 0 1 -1.293.17z" fill="#ffffff" data-original="#000000"></path></g></svg>