<svg xmlns="http://www.w3.org/2000/svg" version="1.1" xmlns:xlink="http://www.w3.org/1999/xlink" xmlns:svgjs="http://svgjs.com/svgjs" width="512" height="512" x="0" y="0" viewBox="0 0 512 512" style="enable-background:new 0 0 512 512" xml:space="preserve" class=""><g><path xmlns="http://www.w3.org/2000/svg" d="m406.001 151.998c-19.568 0-37.286 8.07-50.001 21.058v-93.055c0-22.057-17.944-40-40-40-7.28 0-14.113 1.955-20 5.368v-5.369c0-22.056-17.944-40-40-40s-40 17.944-40 40v5.369c-5.887-3.413-12.72-5.368-20-5.368-22.056 0-40 17.943-40 40 0 5.522 4.477 10 10 10s10-4.478 10-10c0-11.028 8.972-20 20-20s20 8.972 20 20v161.998c0 5.522 4.477 10 10 10s10-4.478 10-10v-161.998-40.001c0-11.028 8.972-20 20-20s20 8.972 20 20v40.001 161.998c0 5.522 4.478 10 10 10s10-4.478 10-10v-161.998c0-11.028 8.972-20 20-20s20 8.972 20 20v141.998 20c0 5.522 4.478 10 10 10s10-4.478 10-10v-20c0-24.146 17.207-44.35 40.001-48.996v178.996c0 77.196-62.804 140.001-140.001 140.001s-140.001-62.805-140.001-140.001v-178.996c22.794 4.646 40 24.85 40 48.996v20c0 5.522 4.477 10 10 10s10-4.478 10-10v-20-51.998c0-5.522-4.477-10-10-10s-10 4.478-10 10v3.055c-12.715-12.987-30.433-21.058-50-21.058-5.523 0-10 4.478-10 10v190.001c0 42.572 16.688 82.706 46.992 113.009 30.303 30.304 70.437 46.992 113.009 46.992s82.707-16.688 113.009-46.992c30.304-30.303 46.992-70.437 46.992-113.009v-190.001c0-5.522-4.477-10-10-10z" fill="#ffffff" data-original="#000000" class=""></path><path xmlns="http://www.w3.org/2000/svg" d="m157.343 346.934c-1.792 3.099-1.792 6.918 0 10.016 20.32 35.124 58.123 56.944 98.656 56.944s78.336-21.82 98.657-56.944c1.792-3.098 1.792-6.917 0-10.016-20.319-35.125-58.123-56.945-98.657-56.945-40.533-.001-78.336 21.82-98.656 56.945zm98.657-36.946c31.448 0 60.905 15.936 78.233 41.953-17.328 26.018-46.785 41.952-78.233 41.952s-60.904-15.935-78.233-41.952c17.328-26.017 46.785-41.953 78.233-41.953z" fill="#ffffff" data-original="#000000" class=""></path><path xmlns="http://www.w3.org/2000/svg" d="m256 384.44c17.92 0 32.5-14.579 32.5-32.5s-14.579-32.5-32.5-32.5-32.5 14.579-32.5 32.5 14.579 32.5 32.5 32.5zm0-45c6.892 0 12.5 5.607 12.5 12.5s-5.607 12.5-12.5 12.5-12.5-5.607-12.5-12.5 5.608-12.5 12.5-12.5z" fill="#ffffff" data-original="#000000" class=""></path><path xmlns="http://www.w3.org/2000/svg" d="m165.999 115.001c-5.523 0-10 4.481-10 10.004s4.477 10 10 10 10-4.478 10-10v-.008c0-5.522-4.477-9.996-10-9.996z" fill="#ffffff" data-original="#000000" class=""></path></g></svg>