<svg width="29" height="28" viewBox="0 0 29 28" fill="none" xmlns="http://www.w3.org/2000/svg">
<path d="M14.9281 2.61332L14.1687 1.95999L13.4093 2.61332C13.0004 2.91666 4.82227 10.0333 4.82227 16.3333C4.82227 18.8087 5.80697 21.1826 7.55976 22.933C9.31255 24.6833 11.6898 25.6667 14.1687 25.6667C16.6475 25.6667 19.0248 24.6833 20.7776 22.933C22.5304 21.1826 23.5151 18.8087 23.5151 16.3333C23.5151 10.0333 15.337 2.91666 14.9281 2.61332ZM16.774 21.5483L15.7342 19.46C16.3162 19.1699 16.8058 18.7237 17.1483 18.1715C17.4908 17.6193 17.6727 16.9829 17.6736 16.3333H20.0102C20.009 17.417 19.7057 18.4789 19.1341 19.4C18.5625 20.3211 17.7452 21.065 16.774 21.5483Z" fill="white"/>
</svg>
