<svg xmlns="http://www.w3.org/2000/svg" version="1.1" xmlns:xlink="http://www.w3.org/1999/xlink" xmlns:svgjs="http://svgjs.com/svgjs" width="512" height="512" x="0" y="0" viewBox="0 0 682.66666 682.66666" style="enable-background:new 0 0 512 512" xml:space="preserve" class=""><g transform="matrix(1.05,0,0,1.05,4.000000000000057,4.000000000000057)"><path xmlns="http://www.w3.org/2000/svg" d="m624 256h-96c-8.835938 0-16 7.164062-16 16v10.101562c-12.046875-2.007812-33.503906-26.101562-80-26.101562-8.835938 0-16 7.164062-16 16s7.164062 16 16 16c20.351562-1.507812 40.539062 4.601562 56.640625 17.140625 7.046875 5.382813 14.945313 9.550781 23.359375 12.339844v163.683593c-61.828125 5.734376-92.171875 45.132813-95.65625 126.132813-31.226562-3.40625-32.34375-20.53125-32.34375-79.296875 0-8.839844-7.164062-16.003906-16-16.003906h-48c-17.660156-.019532-31.976562-14.335938-31.996094-31.996094v-48c0-8.835938-7.167968-16-16.003906-16s-16 7.164062-16 16v48c.035156 35.332031 28.667969 63.964844 64 64h32.050781c.5625 54.796875 6.902344 96 79.949219 96 8.839844 0 16.003906-7.164062 16.003906-15.996094 0-82.679687 24.128906-106.699218 63.996094-111.105468v15.105468c0 8.835938 7.164062 16 16.003906 16h96c8.832032 0 15.996094-7.164062 15.996094-16v-256.003906c0-8.835938-7.164062-16-16-16zm-15.996094 256h-64.003906v-223.996094h64.003906zm0 0" fill="#ffffff" data-original="#000000" class=""></path><path xmlns="http://www.w3.org/2000/svg" d="m384 304v-144c-.035156-35.332031-28.667969-63.964844-64-64h-32.046875c-.5625-54.792969-6.90625-96-79.949219-96-8.839844 0-16.003906 7.164062-16.003906 16 0 82.675781-24.132812 106.695312-63.996094 111.105469v-15.105469c0-8.835938-7.167968-16-16.003906-16h-96c-8.835938 0-16 7.164062-16 16v256c0 8.835938 7.164062 16 16 16h96c8.835938 0 16-7.164062 16-16v-10.101562c12.046875 3.136718 30.121094 26.101562 80 26.101562h96c44.164062-.050781 79.949219-35.835938 80-80zm-288 48h-64v-223.996094h64zm55.359375-17.140625c-7.046875-5.382813-14.945313-9.550781-23.359375-12.34375v-163.683594c61.828125-5.730469 92.171875-45.136719 95.65625-126.128906 31.226562 3.40625 32.34375 20.53125 32.34375 79.296875 0 8.835938 7.164062 16 16 16h48c17.660156.023438 31.976562 14.339844 31.996094 32v144c-.027344 26.5-21.496094 47.96875-47.996094 47.996094h-96c-20.351562 1.511718-40.539062-4.597656-56.640625-17.136719zm0 0" fill="#ffffff" data-original="#000000" class=""></path></g></svg>