<svg xmlns="http://www.w3.org/2000/svg" version="1.1" xmlns:xlink="http://www.w3.org/1999/xlink" xmlns:svgjs="http://svgjs.com/svgjs" width="512" height="512" x="0" y="0" viewBox="0 0 32 32" style="enable-background:new 0 0 512 512" xml:space="preserve" class=""><g transform="matrix(1.1300000000000001,0,0,1.1300000000000001,-2.080000030994409,-2.080000092983248)"><path xmlns="http://www.w3.org/2000/svg" d="m28.666 7.044-5.404-3.94c-.872-.636-2.07-.575-2.873.145-.804.72-.994 1.905-.457 2.84l1.509 2.627c.078.137.078.305 0 .442l-1.509 2.626c-.537.936-.347 2.12.457 2.841.803.72 2.001.781 2.873.145l5.404-3.941c.605-.441.963-1.144.963-1.892 0-.749-.358-1.452-.963-1.893zm-.883 1.212c.217.159.346.412.346.681s-.129.522-.346.68c0 0-5.405 3.941-5.405 3.941-.3.218-.712.198-.988-.05s-.342-.655-.157-.977c0 0 1.508-2.626 1.508-2.626.345-.6.345-1.337 0-1.936 0 0-1.508-2.627-1.508-2.627-.185-.321-.119-.729.157-.976.276-.248.688-.269.988-.05z" fill="#ffffff" data-original="#000000"></path><path xmlns="http://www.w3.org/2000/svg" d="m8.738 17.23-5.404 3.941c-.605.441-.963 1.144-.963 1.892 0 .749.358 1.452.963 1.893l5.404 3.94c.872.636 2.07.575 2.873-.145.804-.72.994-1.905.457-2.84l-1.509-2.627c-.078-.137-.078-.305 0-.442l1.509-2.626c.537-.936.347-2.12-.457-2.841-.803-.72-2.001-.781-2.873-.145zm-4.521 5.153 5.405-3.941c.3-.218.712-.198.988.05s.342.655.157.977c0 0-1.508 2.626-1.508 2.626-.345.6-.345 1.337 0 1.936 0 0 1.508 2.627 1.508 2.627.185.321.119.729-.157.976-.276.248-.688.269-.988.05 0 0-5.405-3.94-5.405-3.94-.217-.159-.346-.412-.346-.681s.129-.522.346-.68z" fill="#ffffff" data-original="#000000"></path><path xmlns="http://www.w3.org/2000/svg" d="m10.935 19.973c-.277-.008-.536.136-.674.376l-1.002 1.746c-.345.6-.345 1.337 0 1.936 0 0 1.002 1.746 1.002 1.746.138.24.397.385.674.376.803-.024 1.713-.053 2.728-.088 6.148-.21 13.201-.597 13.607-.62 1.304-.012 2.359-1.075 2.359-2.382 0-1.308-1.057-2.371-2.362-2.382-.403-.022-7.456-.409-13.604-.619-1.015-.035-1.925-.064-2.728-.089zm.403 1.513c.687.022 1.445.046 2.274.075 6.317.216 13.593.619 13.593.619.014.001.028.001.041.001.487 0 .883.395.883.882s-.396.883-.883.883c-.013 0-.027 0-.041.001 0 0-7.276.403-13.593.619-.829.028-1.587.053-2.274.074l-.779-1.356c-.078-.137-.078-.305 0-.442z" fill="#ffffff" data-original="#000000"></path><path xmlns="http://www.w3.org/2000/svg" d="m21.739 6.223c-.138-.24-.397-.385-.674-.376-.803.024-1.713.053-2.728.088-6.148.21-13.201.597-13.607.62-1.304.012-2.359 1.075-2.359 2.382 0 1.308 1.057 2.371 2.362 2.382.403.022 7.456.409 13.604.619 1.015.035 1.925.064 2.728.089.277.008.536-.136.674-.376l1.002-1.746c.345-.6.345-1.337 0-1.936 0 0-1.002-1.746-1.002-1.746zm-1.077 1.137.779 1.356c.078.137.078.305 0 .442l-.779 1.356c-.687-.022-1.445-.046-2.274-.075-6.317-.216-13.593-.619-13.593-.619-.014-.001-.028-.001-.041-.001-.487 0-.883-.395-.883-.882s.396-.883.883-.883c.013 0 .027 0 .041-.001 0 0 7.276-.403 13.593-.619z" fill="#ffffff" data-original="#000000"></path></g></svg>