<svg xmlns="http://www.w3.org/2000/svg" version="1.1" xmlns:xlink="http://www.w3.org/1999/xlink" xmlns:svgjs="http://svgjs.com/svgjs" width="512" height="512" x="0" y="0" viewBox="0 0 512.00002 512" style="enable-background:new 0 0 512 512" xml:space="preserve" class=""><g transform="matrix(1,0,0,1,0,35)"><path xmlns="http://www.w3.org/2000/svg" d="m504.203125 358.589844c-.0625-.117188-.128906-.230469-.195313-.339844l-195.847656-327.863281c-10.785156-19.03125-30.269531-30.386719-52.160156-30.386719s-41.378906 11.355469-52.164062 30.386719l-195.851563 327.863281c-.066406.113281-.128906.226562-.195313.339844-22.476562 39.957031 6.359376 89.363281 52.265626 89.363281h391.886718c45.84375 0 74.769532-49.355469 52.261719-89.363281zm-52.261719 59.378906h-391.886718c-22.859376 0-37.3125-24.542969-26.21875-44.527344l195.832031-327.835937c.070312-.113281.132812-.226563.199219-.339844 5.382812-9.570313 15.148437-15.28125 26.128906-15.28125 10.980468 0 20.75 5.710937 26.132812 15.28125.0625.113281.128906.226563.195313.339844l195.832031 327.835937c11.09375 19.984375-3.355469 44.527344-26.214844 44.527344zm0 0" fill="#ffffff" data-original="#000000"></path><path xmlns="http://www.w3.org/2000/svg" d="m285.980469 118.144531h-59.964844c-8.277344 0-14.992187 6.710938-14.992187 14.992188v119.929687c0 8.277344 6.714843 14.988282 14.992187 14.988282h59.964844c8.28125 0 14.992187-6.710938 14.992187-14.988282v-119.929687c0-8.28125-6.710937-14.992188-14.992187-14.992188zm-14.992188 119.929688h-29.980469v-89.949219h29.980469zm0 0" fill="#ffffff" data-original="#000000"></path><path xmlns="http://www.w3.org/2000/svg" d="m256 298.039062c-24.800781 0-44.976562 20.175782-44.976562 44.972657 0 24.800781 20.175781 44.976562 44.976562 44.976562 24.796875 0 44.972656-20.175781 44.972656-44.976562 0-24.796875-20.175781-44.972657-44.972656-44.972657zm0 59.964844c-8.269531 0-14.992188-6.726562-14.992188-14.992187s6.722657-14.988281 14.992188-14.988281c8.265625 0 14.988281 6.722656 14.988281 14.988281s-6.722656 14.992187-14.988281 14.992187zm0 0" fill="#ffffff" data-original="#000000"></path></g></svg>