<svg version="1.1" xmlns="http://www.w3.org/2000/svg" xmlns:xlink="http://www.w3.org/1999/xlink" viewBox="0 0 172 172"><g fill="none" fill-rule="nonzero" stroke="none" stroke-width="1" stroke-linecap="butt" stroke-linejoin="miter" stroke-miterlimit="10" stroke-dasharray="" stroke-dashoffset="0" font-family="none" font-weight="none" font-size="none" text-anchor="none" style="mix-blend-mode: normal"><path d="M0,172v-172h172v172z" fill="none"></path><g fill="#ffffff"><path d="M8.0625,5.375c-1.48427,0 -2.6875,1.20323 -2.6875,2.6875v112.875c0,1.48427 1.20323,2.6875 2.6875,2.6875h72.61499c-3.53226,4.63238 -5.43977,10.29956 -5.42749,16.125c0.02368,14.83283 12.04217,26.85132 26.875,26.875c3.1579,-0.00642 6.28891,-0.5807 9.24353,-1.69543c1.38173,1.08404 3.08344,1.68019 4.8396,1.69543h41.70874c2.79584,0.00492 5.39466,-1.43896 6.8674,-3.81546c1.47275,-2.3765 1.60917,-5.34635 0.3605,-7.84787l-17.33228,-34.6698v-18.64978c3.66958,-1.33027 5.85923,-5.09815 5.19829,-8.94505c-0.66094,-3.8469 -3.98263,-6.66786 -7.88579,-6.69704h-16.125c-3.90315,0.02919 -7.22484,2.85015 -7.88579,6.69704c-0.66094,3.8469 1.5287,7.61477 5.19829,8.94505v18.64978l-2.09436,4.19397c-2.84085,-4.10914 -6.76811,-7.34762 -11.34314,-9.35376v-13.48999c3.66958,-1.33027 5.85923,-5.09815 5.19829,-8.94505c-0.66094,-3.8469 -3.98263,-6.66786 -7.88579,-6.69704h-16.125c-3.90315,0.02919 -7.22484,2.85015 -7.88579,6.69704c-0.66094,3.8469 1.5287,7.61477 5.19829,8.94505v0.69812c-4.01613,0.55105 -7.7379,2.41286 -10.58728,5.29626l-0.16272,0.15747v-83.60645c0,-7.42133 6.01617,-13.4375 13.4375,-13.4375h51.0625v53.75h5.375v-56.4375c0,-1.48427 -1.20323,-2.6875 -2.6875,-2.6875h-53.75c-6.61408,0.00138 -12.73952,3.48284 -16.125,9.16479c-3.38548,-5.68196 -9.51092,-9.16341 -16.125,-9.16479zM10.75,10.75h51.0625c7.42133,0 13.4375,6.01617 13.4375,13.4375v83.60645c-3.52941,-3.62736 -8.37643,-5.6722 -13.4375,-5.66895h-51.0625zM43,16.125c-4.39944,0 -6.40608,7.11322 -7.31714,14.24585c-1.677,-0.69337 -3.30092,-1.32229 -4.78711,-1.78992c-3.85387,-1.21206 -9.20536,-2.41787 -11.16992,0.97107c-2.193,3.80281 2.93408,9.08106 8.65039,13.4375c-5.71631,4.35644 -10.84339,9.63469 -8.65039,13.4375c1.03498,1.55984 2.85223,2.41382 4.71362,2.21509c2.19738,-0.10138 4.36851,-0.5204 6.4458,-1.24402c1.48619,-0.46762 3.11536,-1.09654 4.79236,-1.78992c0.91913,7.15413 2.92295,14.26685 7.32239,14.26685c4.39944,0 6.40608,-7.11322 7.31714,-14.24585c1.677,0.69337 3.30092,1.32229 4.78711,1.78992c2.07897,0.72411 4.2519,1.14314 6.45105,1.24402c1.86521,0.19793 3.68519,-0.66044 4.71887,-2.22559c2.193,-3.80281 -2.93408,-9.08106 -8.65039,-13.4375c5.71631,-4.35644 10.84339,-9.63469 8.65039,-13.4375c-1.96725,-3.40237 -7.31605,-2.18313 -11.16992,-0.97107c-1.48619,0.46762 -3.11011,1.09654 -4.78711,1.78992c-0.91106,-7.14338 -2.9177,-14.25635 -7.31714,-14.25635zM91.375,21.5v5.375h43v-5.375zM43,22.53406c1.15919,3.2948 1.88269,6.72699 2.1521,10.20935c-0.72025,0.35475 -1.43185,0.69174 -2.1521,1.07605c-0.731,-0.38431 -1.4426,-0.7213 -2.1521,-1.07605c0.26941,-3.48236 0.99291,-6.91456 2.1521,-10.20935zM91.375,32.25v5.375h43v-5.375zM60.73645,32.75391c-2.26241,2.64569 -4.85977,4.98544 -7.72656,6.96021h-0.00525c-0.70275,-0.46667 -1.3786,-0.90796 -2.03137,-1.31751c-0.02956,-0.76863 -0.06698,-1.57336 -0.12073,-2.41455c3.14086,-1.49973 6.46333,-2.58487 9.88391,-3.22815zM25.26355,32.7644c3.42034,0.64161 6.7428,1.72498 9.88391,3.2229c-0.05375,0.84387 -0.09117,1.65386 -0.12073,2.4198c-0.65396,0.41208 -1.33249,0.85167 -2.03662,1.3175c-2.86679,-1.97477 -5.46416,-4.31451 -7.72656,-6.96021zM42.88977,40.3125c0.73167,-0.03004 1.44391,0.23979 1.97202,0.74709c0.5281,0.5073 0.82633,1.20812 0.82571,1.94041c0,1.48427 -1.20323,2.6875 -2.6875,2.6875c-1.48427,0.03044 -2.71218,-1.14812 -2.74262,-2.63238c-0.03044,-1.48427 1.14812,-2.71218 2.63238,-2.74262zM91.375,43v5.375h43v-5.375zM53.00989,46.27539c2.86679,1.97477 5.46416,4.31451 7.72656,6.96021c-3.42034,-0.64161 -6.7428,-1.72498 -9.88391,-3.2229c0.05375,-0.84387 0.09117,-1.65386 0.12073,-2.4198c0.65396,-0.41029 1.33249,-0.84988 2.03662,-1.3175zM32.99011,46.28589c0.70412,0.46762 1.38266,0.90721 2.03662,1.31751c0.02956,0.76863 0.06698,1.57336 0.12073,2.41455c-3.14137,1.49611 -6.46382,2.57772 -9.88391,3.21765c2.26308,-2.64199 4.86042,-4.97819 7.72656,-6.94971zM43,52.19629c0.731,0.38431 1.4426,0.71605 2.1521,1.0708c-0.26995,3.47886 -0.99344,6.90752 -2.1521,10.19885c-1.15865,-3.29133 -1.88215,-6.71999 -2.1521,-10.19885c0.72025,-0.35475 1.43185,-0.68649 2.1521,-1.0708zM91.375,53.75v5.375h43v-5.375zM91.375,64.5v5.375h43v-5.375zM150.5,69.875v2.6875h-10.75c-2.96853,0 -5.375,2.40647 -5.375,5.375v2.6875h5.375v-2.6875h10.75c2.96853,0 5.375,-2.40647 5.375,-5.375v-2.6875zM94.0625,72.5625v5.375h5.375v-5.375zM21.5,75.25v5.375h5.375v-5.375zM32.25,75.25v5.375h32.25v-5.375zM104.8125,75.25v5.375h5.375v-5.375zM21.5,86v5.375h43v-5.375zM93.95227,91.375c0.03674,-0.00075 0.07349,-0.00075 0.11023,0h16.125c1.48427,0 2.6875,1.20323 2.6875,2.6875c0,1.48427 -1.20323,2.6875 -2.6875,2.6875h-16.125c-1.48427,0.03044 -2.71218,-1.14812 -2.74262,-2.63238c-0.03044,-1.48427 1.14812,-2.71218 2.63238,-2.74262zM128.88977,91.375c0.03674,-0.00075 0.07349,-0.00075 0.11023,0h16.125c1.48427,0 2.6875,1.20323 2.6875,2.6875c0,1.48427 -1.20323,2.6875 -2.6875,2.6875h-16.125c-1.48427,0.03044 -2.71218,-1.14812 -2.74262,-2.63238c-0.03044,-1.48427 1.14812,-2.71218 2.63238,-2.74262zM96.75,102.125h10.75v14.83374c0.0029,1.13981 0.72449,2.15381 1.80042,2.53003c4.99357,1.77946 9.1556,5.33783 11.68957,9.99414c-0.29563,-0.1075 -0.6177,-0.18582 -0.91333,-0.32019c-3.43696,-1.3549 -7.1089,-2.01328 -10.80249,-1.93689c-3.67641,-0.07479 -7.33088,0.58365 -10.75,1.93689c-2.84171,1.14317 -5.88761,1.69161 -8.94958,1.61145c-2.21262,0.04282 -4.42008,-0.22936 -6.55603,-0.80835c1.38458,-2.68937 3.31542,-5.06002 5.66895,-6.96021c1.88174,-1.50573 3.997,-2.69368 6.26208,-3.51684c1.07593,-0.37622 1.79751,-1.39022 1.80042,-2.53003zM131.6875,102.125h10.75v18.8125c0.00233,0.41986 0.103,0.83334 0.29395,1.20728l7.44836,14.91772h-26.23462l7.44836,-14.91772c0.19094,-0.37394 0.29162,-0.78741 0.29395,-1.20728zM10.75,107.5h51.0625c6.38348,0.00756 11.88393,4.49737 13.1698,10.75h-64.2323zM91.375,107.7677v7.36438c-1.85834,0.8381 -3.61573,1.88408 -5.23853,3.11792h-5.24377c0.51943,-2.59146 1.8028,-4.96807 3.68482,-6.82373c1.85078,-1.86944 4.21779,-3.14342 6.79749,-3.65857zM96.75,120.9375v5.375h5.375v-5.375zM137.0625,126.3125v5.375h5.375v-5.375zM109.08521,132.59558c0.06299,0.00148 0.12598,0.00323 0.18896,0.00525c3.07023,-0.07671 6.12402,0.47154 8.97583,1.61145c0.30693,0.13333 0.62054,0.25071 0.93957,0.35168l-10.20935,20.39771c-0.80703,1.66163 -1.01651,3.55069 -0.59314,5.34876c-2.02886,0.62359 -4.13956,0.94028 -6.26208,0.93957c-11.86737,-0.01628 -21.48372,-9.63263 -21.5,-21.5c0.00098,-1.59152 0.18057,-3.17791 0.5354,-4.72937c2.7301,0.80617 5.56814,1.18682 8.41418,1.12854c3.68512,0.07714 7.34863,-0.58133 10.77625,-1.93689c2.77404,-1.1176 5.7441,-1.66734 8.73438,-1.6167zM104.8125,137.0625v5.375h5.375v-5.375zM88.6875,142.4375v5.375h5.375v-5.375zM121.25769,142.4375h31.60962l7.46936,14.91772c0.41227,0.84122 0.36066,1.83574 -0.13647,2.62976c-0.47837,0.80147 -1.35015,1.28446 -2.28332,1.26501h-41.70874c-0.93317,0.01944 -1.80496,-0.46354 -2.28332,-1.26501c-0.49714,-0.79402 -0.54875,-1.78854 -0.13647,-2.62976zM142.4375,147.8125v5.375h5.375v-5.375zM102.125,150.5v5.375h5.375v-5.375zM131.6875,150.5v5.375h5.375v-5.375z"></path></g></g></svg>