<svg xmlns="http://www.w3.org/2000/svg" version="1.1" xmlns:xlink="http://www.w3.org/1999/xlink" xmlns:svgjs="http://svgjs.com/svgjs" width="512" height="512" x="0" y="0" viewBox="0 0 52 60" style="enable-background:new 0 0 512 512" xml:space="preserve" class=""><g><g xmlns="http://www.w3.org/2000/svg" id="Page-1" fill="none" fill-rule="evenodd"><g id="059---Spirit-Leaving-Body" fill="rgb(0,0,0)" fill-rule="nonzero" transform="translate(0 -1)"><path id="Shape" d="m26 42v4c0 .5522847.4477153 1 1 1s1-.4477153 1-1v-4c0-.5522847-.4477153-1-1-1s-1 .4477153-1 1z" fill="#ffffff" data-original="#000000"></path><path id="Shape" d="m30 42v4c0 .5522847.4477153 1 1 1s1-.4477153 1-1v-4c0-.5522847-.4477153-1-1-1s-1 .4477153-1 1z" fill="#ffffff" data-original="#000000"></path><path id="Shape" d="m35 41c-.5522847 0-1 .4477153-1 1v3c0 .5522847.4477153 1 1 1s1-.4477153 1-1v-3c0-.5522847-.4477153-1-1-1z" fill="#ffffff" data-original="#000000"></path><path id="Shape" d="m16 30c0-.5522847-.4477153-1-1-1s-1 .4477153-1 1v2c0 .5522847.4477153 1 1 1s1-.4477153 1-1z" fill="#ffffff" data-original="#000000"></path><path id="Shape" d="m15 35c-.5522847 0-1 .4477153-1 1v11c0 .5522847.4477153 1 1 1s1-.4477153 1-1v-11c0-.5522847-.4477153-1-1-1z" fill="#ffffff" data-original="#000000"></path><path id="Shape" d="m18 38v8c0 .5522847.4477153 1 1 1s1-.4477153 1-1v-8c0-.5522847-.4477153-1-1-1s-1 .4477153-1 1z" fill="#ffffff" data-original="#000000"></path><path id="Shape" d="m22 42v3c0 .5522847.4477153 1 1 1s1-.4477153 1-1v-3c0-.5522847-.4477153-1-1-1s-1 .4477153-1 1z" fill="#ffffff" data-original="#000000"></path><path id="Shape" d="m38 29v17c0 .5522847.4477153 1 1 1s1-.4477153 1-1v-17c0-.5522847-.4477153-1-1-1s-1 .4477153-1 1z" fill="#ffffff" data-original="#000000"></path><path id="Shape" d="m10.764 19.8c-1.37309214 1.1978927-1.63460141 3.2328557-.609 4.739.5854309.8070951 1.4847981 1.3290622 2.476 1.437.9796477.106377 1.9585112-.2071936 2.694-.863l3.675-3.265v8.152c0 3.113 1.672 9 8 9h7.038c.8981733.0005635 1.6786586-.617001 1.8846414-1.491236.2059828-.8742349-.2166947-1.7752826-1.0206414-2.175764l-.586-.293c-2.0376944-1.0104883-3.3237036-3.0915273-3.316-5.366v-7.826l3.682 3.275c1.4652878 1.2202991 3.6273546 1.0888398 4.934-.3.6214285-.6919379.9382303-1.6048603.879-2.533-.0549554-.9262057-.4754292-1.792691-1.169-2.409l-7.668-6.851c-.7754458-.6902766-1.678388-1.2222583-2.658-1.566 1.8564328-1.6574588 2.4969662-4.28888723 1.6099907-6.61413713-.8869755-2.32524989-3.1173138-3.86157332-5.6059907-3.86157332s-4.7190152 1.53632343-5.6059907 3.86157332c-.8869755 2.3252499-.2464421 4.95667833 1.6099907 6.61413713-.9812682.34417-1.885625.8772038-2.662 1.569zm14.236-16.8c2.209139 0 4 1.790861 4 4s-1.790861 4-4 4-4-1.790861-4-4 1.790861-4 4-4zm-1.328 10h2.656c1.4754877-.0007878 2.8995321.5421291 4 1.525l7.668 6.851c.299465.2646002.4809682.6377567.5042473 1.0366936.0232792.3989368-.1135904.7906714-.3802473 1.0883064-.5621848.5910218-1.4865292.6443915-2.113.122l-5.34-4.75c-.294137-.2633224-.7156647-.3289492-1.075932-.1675097-.3602674.1614396-.5918355.5197253-.591068.9145097v10.054c-.010561 3.0332577 1.7049854 5.8084634 4.423 7.155l.342.171h-6.765c-5.9 0-6-6.716-6-7v-10.38c-.0002105-.393859-.2315901-.7509117-.591-.912-.12839-.058491-.2679152-.0885111-.409-.088-.245187-.0000431-.4818453.0899938-.665.253l-5.341 4.751c-.3122086.2829738-.7315115.4171507-1.15.368-.430073-.0443896-.8200761-.2721952-1.07-.625-.427608-.6727332-.2879032-1.5585303.326-2.067l7.578-6.771c1.098335-.9829444 2.5200542-1.5272129 3.994-1.529z" fill="#ffffff" data-original="#000000"></path><path id="Shape" d="m2 51c-1.1045695 0-2 .8954305-2 2v6c0 1.1045695.8954305 2 2 2h36c1.4494929-.0051851 2.7819796-.7966362 3.48-2.067 1.7275147 1.9902292 4.5514932 2.6202096 6.9610919 1.5528982 2.4095986-1.0673113 3.8406611-3.5820261 3.5275612-6.1987583s-2.2970564-4.7228297-4.8904421-5.1915189c-2.5933858-.4686892-5.1890146.8097635-6.398211 3.151379-1.1375177-1.4212269-2.8596068-2.2480505-4.68-2.247h-.371c-1.2767603.0199321-2.5506215-.1276596-3.789-.439-1.4628444-.3796632-2.9687074-.5682322-4.48-.561-5.393 0-9.525 2.117-9.957 5h-11.545c-.45459333-1.7606851-2.03958838-2.9931852-3.858-3zm0 2c1.1045695 0 2 .8954305 2 2v4h-2zm16.36 3c-.2692033.5283538-.3921211 1.1191188-.356 1.711.0280681.447393.1425081.8851173.337 1.289h-12.341v-3zm3.14 3c-.3982054-.000226-.7802241-.1576335-1.063-.438-.2591262-.258894-.4136552-.6042698-.434-.97-.0182796-.3894737.1266882-.768927.4-1.047.3266315-.3462167.7810263-.5432295 1.257-.545h1.34v3zm24.5-8c2.209139 0 4 1.790861 4 4s-1.790861 4-4 4-4-1.790861-4-4 1.790861-4 4-4zm-18.64 0c1.3363283-.0070474 2.6679835.1583172 3.962.492 1.4070991.3578975 2.8552459.5287028 4.307.508h.371c2.209139 0 4 1.790861 4 4v1c0 1.1045695-.8954305 2-2 2h-13v-3h8c.5522847 0 1-.4477153 1-1s-.4477153-1-1-1h-13.534c.574-1.506 3.651-3 7.894-3z" fill="#ffffff" data-original="#000000"></path></g></g></g></svg>