<svg version="1.1" xmlns="http://www.w3.org/2000/svg" xmlns:xlink="http://www.w3.org/1999/xlink" viewBox="0 0 172 172"><g fill="none" fill-rule="nonzero" stroke="none" stroke-width="1" stroke-linecap="butt" stroke-linejoin="miter" stroke-miterlimit="10" stroke-dasharray="" stroke-dashoffset="0" font-family="none" font-weight="none" font-size="none" text-anchor="none" style="mix-blend-mode: normal"><path d="M0,172v-172h172v172z" fill="none"></path><g fill="#ffffff"><path d="M65.36,6.88c-18.46256,0 -33.22321,14.76708 -34.00359,33.0361c-12.48045,7.09254 -21.03641,20.38125 -21.03641,35.7639c0,22.7572 18.5228,41.28 41.28,41.28c7.73913,0 14.8313,-2.41881 21.02969,-6.13422c2.16438,2.35219 4.37105,4.69041 7.04797,6.46344c6.24824,4.14163 13.7622,6.55078 21.80235,6.55078c15.13934,0 28.16034,-8.64829 34.80313,-21.18422c16.16098,-1.95641 28.83687,-15.4597 28.83687,-32.13578c0,-13.97922 -8.93005,-25.7183 -21.29844,-30.37547c-2.29727,-16.7595 -16.37485,-29.82453 -33.74156,-29.82453c-7.77327,0 -14.73567,2.92088 -20.4989,7.29656c-6.24572,-6.37497 -14.61191,-10.73656 -24.2211,-10.73656zM65.36,13.76c8.63021,0 16.29067,3.953 21.33875,10.14531l2.2911,2.80844l2.6875,-2.43219c4.8677,-4.40906 11.29824,-7.08156 18.40265,-7.08156c14.58514,0 26.45188,11.26772 27.45281,25.57156l0.16797,2.35828l2.26422,0.69203c10.55028,3.20965 18.275,13.02141 18.275,24.69813c0,13.78954 -10.73512,24.98843 -24.295,25.7664l-2.03578,0.11422l-0.87344,1.84765c-5.2357,11.05628 -16.47625,18.71172 -29.55578,18.71172c-6.66929,0 -12.84745,-1.9891 -18.00625,-5.4086c-2.8762,-1.90502 -5.43338,-4.25441 -7.57203,-6.94719l-2.0089,-2.52625l-2.64719,1.84766c-5.57152,3.88223 -12.32449,6.15437 -19.64563,6.15437c-19.0388,0 -34.4,-15.3612 -34.4,-34.4c0,-13.41311 7.65673,-24.99306 18.77219,-30.6711l1.92156,-0.98094l-0.04703,-2.15672c-0.3252,-15.52039 12.07583,-28.11125 27.51328,-28.11125zM68.8,123.84c-9.45855,0 -17.2,7.74145 -17.2,17.2c0,9.45855 7.74145,17.2 17.2,17.2c9.45855,0 17.2,-7.74145 17.2,-17.2c0,-9.45855 -7.74145,-17.2 -17.2,-17.2zM68.8,130.72c5.74032,0 10.32,4.57968 10.32,10.32c0,5.74032 -4.57968,10.32 -10.32,10.32c-5.74032,0 -10.32,-4.57968 -10.32,-10.32c0,-5.74032 4.57968,-10.32 10.32,-10.32zM30.96,137.6c-7.55869,0 -13.76,6.20131 -13.76,13.76c0,7.55869 6.20131,13.76 13.76,13.76c7.55869,0 13.76,-6.20131 13.76,-13.76c0,-7.55869 -6.20131,-13.76 -13.76,-13.76zM30.96,144.48c3.84046,0 6.88,3.03954 6.88,6.88c0,3.84046 -3.03954,6.88 -6.88,6.88c-3.84046,0 -6.88,-3.03954 -6.88,-6.88c0,-3.84046 3.03954,-6.88 6.88,-6.88z"></path></g></g></svg>