<svg xmlns="http://www.w3.org/2000/svg" version="1.1" xmlns:xlink="http://www.w3.org/1999/xlink" xmlns:svgjs="http://svgjs.com/svgjs" width="512" height="512" x="0" y="0" viewBox="0 0 128 128" style="enable-background:new 0 0 512 512" xml:space="preserve" class=""><g><path xmlns="http://www.w3.org/2000/svg" d="m65.634 78.375c-4.028 0-7.572-1.25-9.547-3.609-1.891-2.259-2-5.211-.305-8.1 2.163-3.682 7.3-4.891 10.284-3.473 1.782.847 3.253 2.915 2.038 6.178a1.5 1.5 0 1 1 -2.811-1.047c.688-1.849-.155-2.251-.516-2.422-1.743-.83-5.113.078-6.409 2.284-1.06 1.806-1.055 3.372.019 4.654 2.02 2.411 7.728 3.566 13.784 1.325 9.6-3.554 14.219-11.281 13.815-17.078-.357-5.139-4.263-8.781-11-10.256a1.5 1.5 0 0 1 .643-2.931c8.033 1.759 12.9 6.49 13.35 12.979.561 8.059-6.071 16.511-15.767 20.1a22.047 22.047 0 0 1 -7.578 1.396z" fill="#ffffff" data-original="#000000"></path><path xmlns="http://www.w3.org/2000/svg" d="m63.173 88.577a32.786 32.786 0 0 1 -8.683-1.127c-6.711-1.842-11.434-6.339-12.636-12.029-1.232-5.837 1.316-11.838 6.99-16.464 6.936-5.657 18.495-8.867 26.256-3.687a7.183 7.183 0 0 1 3.261 5.911 12.686 12.686 0 0 1 -4.651 9.788 1.5 1.5 0 1 1 -1.867-2.348 9.8 9.8 0 0 0 3.521-7.314 4.245 4.245 0 0 0 -1.929-3.542c-6.33-4.221-16.51-1.526-22.7 3.517-4.769 3.892-6.935 8.818-5.946 13.518.965 4.571 4.889 8.218 10.494 9.756 12.265 3.366 24.87-2.8 25-2.863a1.5 1.5 0 0 1 1.341 2.684 45.327 45.327 0 0 1 -18.451 4.2z" fill="#ffffff" data-original="#000000"></path><path xmlns="http://www.w3.org/2000/svg" d="m87.818 80.482a1.5 1.5 0 0 1 -.9-2.7c6.192-4.657 10.193-9.982 12.231-16.282a1.5 1.5 0 1 1 2.854.924c-2.233 6.906-6.579 12.714-13.284 17.757a1.493 1.493 0 0 1 -.901.301z" fill="#ffffff" data-original="#000000"></path><path xmlns="http://www.w3.org/2000/svg" d="m34.853 61.167a1.5 1.5 0 0 1 -1.141-2.473c8.732-10.245 24.428-16.167 33.613-15.269a1.5 1.5 0 1 1 -.291 2.985c-8.256-.8-23.033 4.838-31.039 14.231a1.5 1.5 0 0 1 -1.142.526z" fill="#ffffff" data-original="#000000"></path><path xmlns="http://www.w3.org/2000/svg" d="m43.617 101.068a1.5 1.5 0 0 1 -.581-.118c-7.536-3.171-13-8.64-15.4-15.4-2.356-6.655-1.617-14.12 2.082-21.022a1.5 1.5 0 1 1 2.644 1.417c-3.3 6.148-3.969 12.755-1.9 18.6 2.107 5.953 6.985 10.8 13.733 13.635a1.5 1.5 0 0 1 -.583 2.883z" fill="#ffffff" data-original="#000000"></path><path xmlns="http://www.w3.org/2000/svg" d="m61.368 103.922a40.641 40.641 0 0 1 -10.727-1.369 1.5 1.5 0 1 1 .791-2.893c12.817 3.5 29.526-.324 45.844-10.495a1.5 1.5 0 1 1 1.587 2.546c-12.828 7.996-25.969 12.211-37.495 12.211z" fill="#ffffff" data-original="#000000"></path><path xmlns="http://www.w3.org/2000/svg" d="m101.369 56.32h-.037a1.5 1.5 0 0 1 -1.464-1.536c.162-6.65-2.2-12.294-6.84-16.322-7.341-6.377-19.644-8.517-34.64-6.023a1.5 1.5 0 1 1 -.492-2.959c15.894-2.646 29.07-.258 37.104 6.72 5.334 4.634 8.057 11.086 7.872 18.659a1.5 1.5 0 0 1 -1.503 1.461z" fill="#ffffff" data-original="#000000"></path><path xmlns="http://www.w3.org/2000/svg" d="m9 65.443a1.5 1.5 0 0 1 -1.327-2.2c8.847-16.843 30.357-29.268 42.482-31.76a1.5 1.5 0 1 1 .6 2.938c-11.537 2.373-32.01 14.194-40.43 30.219a1.5 1.5 0 0 1 -1.325.803z" fill="#ffffff" data-original="#000000"></path><path xmlns="http://www.w3.org/2000/svg" d="m6.467 101.494a1.5 1.5 0 0 1 -1.212-.615c-6.162-8.433-3.962-24.563.328-32.415a1.5 1.5 0 0 1 2.633 1.436c-3.816 6.989-5.924 21.839-.539 29.209a1.5 1.5 0 0 1 -1.21 2.385z" fill="#ffffff" data-original="#000000"></path><path xmlns="http://www.w3.org/2000/svg" d="m105.079 87.045a1.5 1.5 0 0 1 -.893-2.706c8.233-6.092 19.666-21.41 19.3-36.388a1.5 1.5 0 0 1 3-.072c.386 16.052-11.766 32.394-20.519 38.871a1.493 1.493 0 0 1 -.888.295z" fill="#ffffff" data-original="#000000"></path><path xmlns="http://www.w3.org/2000/svg" d="m125.052 43.883h-.076a1.5 1.5 0 0 1 -1.423-1.573 27.548 27.548 0 0 0 -3.044-12.923 1.5 1.5 0 1 1 2.621-1.46 30.47 30.47 0 0 1 3.419 14.533 1.5 1.5 0 0 1 -1.497 1.423z" fill="#ffffff" data-original="#000000"></path><path xmlns="http://www.w3.org/2000/svg" d="m36.309 22.861a6.861 6.861 0 1 1 6.861-6.861 6.869 6.869 0 0 1 -6.861 6.861zm0-10.722a3.861 3.861 0 1 0 3.861 3.861 3.866 3.866 0 0 0 -3.861-3.861z" fill="#ffffff" data-original="#000000"></path><path xmlns="http://www.w3.org/2000/svg" d="m109.338 66.235a4.649 4.649 0 1 1 4.649-4.65 4.655 4.655 0 0 1 -4.649 4.65zm0-6.3a1.649 1.649 0 1 0 1.649 1.648 1.651 1.651 0 0 0 -1.649-1.646z" fill="#ffffff" data-original="#000000"></path><path xmlns="http://www.w3.org/2000/svg" d="m71.4 42.011a4.65 4.65 0 1 1 4.65-4.649 4.655 4.655 0 0 1 -4.65 4.649zm0-6.3a1.65 1.65 0 1 0 1.65 1.65 1.651 1.651 0 0 0 -1.65-1.649z" fill="#ffffff" data-original="#000000"></path><path xmlns="http://www.w3.org/2000/svg" d="m16.371 87.052a4.65 4.65 0 1 1 4.65-4.649 4.655 4.655 0 0 1 -4.65 4.649zm0-6.3a1.65 1.65 0 1 0 1.65 1.65 1.651 1.651 0 0 0 -1.65-1.649z" fill="#ffffff" data-original="#000000"></path><path xmlns="http://www.w3.org/2000/svg" d="m102.576 31.721a5.5 5.5 0 1 1 5.5-5.5 5.507 5.507 0 0 1 -5.5 5.5zm0-8a2.5 2.5 0 1 0 2.5 2.5 2.5 2.5 0 0 0 -2.5-2.5z" fill="#ffffff" data-original="#000000"></path><path xmlns="http://www.w3.org/2000/svg" d="m79.759 121.5a4.371 4.371 0 1 1 4.371-4.371 4.375 4.375 0 0 1 -4.371 4.371zm0-5.742a1.371 1.371 0 1 0 1.371 1.371 1.372 1.372 0 0 0 -1.371-1.375z" fill="#ffffff" data-original="#000000"></path><path xmlns="http://www.w3.org/2000/svg" d="m49.966 98.921a6.039 6.039 0 1 1 6.039-6.039 6.046 6.046 0 0 1 -6.039 6.039zm0-9.078a3.039 3.039 0 1 0 3.039 3.039 3.042 3.042 0 0 0 -3.039-3.039z" fill="#ffffff" data-original="#000000"></path><path xmlns="http://www.w3.org/2000/svg" d="m17.5 25.475-.709-.388-.387-.708a3.624 3.624 0 0 0 -6.36 0l-.388.708-.708.388a3.625 3.625 0 0 0 0 6.36l.708.387.388.709a3.624 3.624 0 0 0 6.36 0l.387-.708.709-.387a3.625 3.625 0 0 0 0-6.36zm-1.442 3.725-1.319.721a.636.636 0 0 0 -.248.248l-.721 1.319a.625.625 0 0 1 -1.1 0l-.721-1.319a.632.632 0 0 0 -.249-.248l-1.315-.721a.625.625 0 0 1 0-1.1l1.319-.722a.625.625 0 0 0 .249-.248l.721-1.319a.625.625 0 0 1 1.1 0l.721 1.319a.629.629 0 0 0 .248.248l1.319.722a.624.624 0 0 1 -.004 1.1z" fill="#ffffff" data-original="#000000"></path><path xmlns="http://www.w3.org/2000/svg" d="m125.1 89.419-.709-.387-.391-.709a3.625 3.625 0 0 0 -6.36 0l-.388.709-.708.387a3.624 3.624 0 0 0 0 6.36l.708.388.388.708a3.625 3.625 0 0 0 6.36 0l.387-.708.709-.388a3.625 3.625 0 0 0 0-6.36zm-1.44 3.728-1.319.721a.625.625 0 0 0 -.248.249l-.721 1.319a.625.625 0 0 1 -1.1 0l-.722-1.319a.625.625 0 0 0 -.248-.249l-1.319-.721a.625.625 0 0 1 0-1.1l1.319-.721a.623.623 0 0 0 .248-.248l.722-1.319a.625.625 0 0 1 1.1 0l.721 1.319a.623.623 0 0 0 .248.248l1.319.721a.625.625 0 0 1 -.004 1.1z" fill="#ffffff" data-original="#000000"></path><path xmlns="http://www.w3.org/2000/svg" d="m32.062 111.438-.709-.388-.387-.708a3.625 3.625 0 0 0 -6.36 0l-.388.708-.708.388a3.624 3.624 0 0 0 0 6.36l.708.387.388.709a3.625 3.625 0 0 0 6.36 0l.387-.709.709-.387a3.625 3.625 0 0 0 0-6.36zm-1.44 3.728-1.319.721a.629.629 0 0 0 -.248.248l-.721 1.319a.625.625 0 0 1 -1.1 0l-.722-1.319a.623.623 0 0 0 -.248-.248l-1.319-.721a.625.625 0 0 1 0-1.1l1.319-.721a.625.625 0 0 0 .248-.249l.722-1.319a.625.625 0 0 1 1.1 0l.721 1.319a.632.632 0 0 0 .248.249l1.319.721a.625.625 0 0 1 0 1.1z" fill="#ffffff" data-original="#000000"></path><path xmlns="http://www.w3.org/2000/svg" d="m114.824 106.968-1.861-1.018-1.018-1.861a4.112 4.112 0 0 0 -7.214 0l-1.018 1.861-1.861 1.018a4.112 4.112 0 0 0 0 7.214l1.861 1.018 1.018 1.861a4.111 4.111 0 0 0 7.214 0l1.018-1.861 1.861-1.018a4.111 4.111 0 0 0 0-7.214zm-1.439 4.582-2.347 1.283a1.119 1.119 0 0 0 -.442.442l-1.283 2.347a1.111 1.111 0 0 1 -1.95 0l-1.283-2.347a1.112 1.112 0 0 0 -.442-.442l-2.346-1.283a1.111 1.111 0 0 1 0-1.95l2.346-1.283a1.106 1.106 0 0 0 .442-.442l1.283-2.346a1.111 1.111 0 0 1 1.95 0l1.283 2.346a1.112 1.112 0 0 0 .442.442l2.347 1.283a1.112 1.112 0 0 1 0 1.95z" fill="#ffffff" data-original="#000000"></path><path xmlns="http://www.w3.org/2000/svg" d="m90.4 10.363-.967-.529-.533-.967a3.734 3.734 0 0 0 -6.552 0l-.529.967-.966.529a3.734 3.734 0 0 0 0 6.551l.967.529.529.967a3.734 3.734 0 0 0 6.552 0l.528-.967.967-.529a3.733 3.733 0 0 0 0-6.551zm-1.44 3.919-1.55.847a.736.736 0 0 0 -.291.292l-.847 1.549a.734.734 0 0 1 -1.288 0l-.847-1.549a.739.739 0 0 0 -.292-.292l-1.545-.847a.733.733 0 0 1 0-1.282l1.549-.847a.739.739 0 0 0 .292-.292l.847-1.549a.734.734 0 0 1 1.288 0l.847 1.549a.736.736 0 0 0 .291.292l1.546.847a.734.734 0 0 1 0 1.282z" fill="#ffffff" data-original="#000000"></path></g></svg>