<svg width="28" height="28" viewBox="0 0 28 28" fill="none" xmlns="http://www.w3.org/2000/svg">
    <path d="M21.4461 9.48208V8.7291C22.3943 8.17133 23.0079 7.13946 23.0079 6.02392V4.68527C23.0079 2.95619 21.6135 1.56177 19.8844 1.56177C18.1553 1.56177 16.733 2.95619 16.733 4.68527V6.02392C16.733 7.11157 17.2907 8.11555 18.2389 8.67332V9.48208C17.8206 9.59364 17.4302 9.76097 17.0397 9.98408C16.4262 8.56177 15.0039 7.55778 13.3585 7.55778C11.7409 7.55778 10.3744 8.50599 9.73297 9.90041C9.37042 9.73308 9.00787 9.56575 8.64532 9.48208V8.7291C9.59353 8.17133 10.2071 7.13946 10.2071 6.02392V4.68527C10.2071 2.95619 8.81265 1.56177 7.08357 1.56177C5.35449 1.56177 3.96006 2.95619 3.96006 4.68527V6.02392C3.96006 7.11157 4.51783 8.11555 5.46604 8.67332V9.48208C2.95608 10.2072 1.25488 12.4661 1.25488 15.0877C1.25488 15.3108 1.4501 15.506 1.67321 15.506H9.92819C9.95608 15.506 9.98397 15.506 10.0119 15.506C10.3465 16.0359 10.8206 16.4821 11.3784 16.8167V18.0717C8.05966 18.9642 5.8007 21.9482 5.8007 25.4064C5.8007 25.6295 5.99592 25.8247 6.21903 25.8247H20.5816C20.8047 25.8247 20.9999 25.6295 20.9999 25.4064C20.9999 21.9761 18.6294 18.9363 15.3385 18.0717V16.8725C15.9242 16.5379 16.3983 16.0916 16.7609 15.5339H25.3226C25.5457 15.5339 25.7409 15.3387 25.7409 15.1155C25.7131 12.494 23.9282 10.1793 21.4461 9.48208ZM2.09154 14.6972C2.25887 12.5219 3.82062 10.7371 5.96803 10.2351C6.16325 10.1793 6.30269 10.012 6.30269 9.81675V8.42232C6.30269 8.25499 6.21903 8.11555 6.07958 8.05977C5.29871 7.66934 4.79672 6.88846 4.79672 6.02392V4.68527C4.79672 3.43029 5.82859 2.39842 7.08357 2.39842C8.33855 2.39842 9.37042 3.43029 9.37042 4.68527V6.02392C9.37042 6.88846 8.84054 7.69722 8.05966 8.08766C7.92022 8.14344 7.80867 8.31077 7.80867 8.4781V9.81675C7.80867 10.012 7.94811 10.1793 8.14333 10.2351C8.61743 10.3466 9.06365 10.514 9.48198 10.7371C9.4262 11.0159 9.39831 11.2948 9.39831 11.6016V13.3865C9.39831 13.8327 9.48198 14.2789 9.62142 14.6972H2.09154ZM14.725 16.2311C14.5856 16.2869 14.474 16.4542 14.474 16.6215V18.4064C14.474 18.6016 14.6135 18.7689 14.8087 18.8247C17.7648 19.4661 19.9401 22.0319 20.1354 25.0159H6.63735C6.80468 22.0319 8.92421 19.5219 11.8804 18.8526C12.0756 18.7968 12.215 18.6295 12.215 18.4343V16.5936C12.215 16.4263 12.1314 16.2869 11.9919 16.2311C10.9043 15.7012 10.235 14.6136 10.235 13.4144V11.6295C10.235 9.87252 11.6573 8.4781 13.3864 8.4781C15.1154 8.4781 16.5378 9.90041 16.5378 11.6295V13.3865C16.5378 14.5857 15.8405 15.7012 14.725 16.2311ZM17.1513 14.6972C17.2907 14.2789 17.3744 13.8327 17.3744 13.3865V11.6016C17.3744 11.3506 17.3465 11.0717 17.2907 10.8486C17.737 10.5697 18.2389 10.3745 18.7409 10.263C18.9362 10.2072 19.0756 10.0399 19.0756 9.84463V8.45021C19.0756 8.28288 18.9919 8.14344 18.8525 8.08766C18.0716 7.69722 17.5696 6.91635 17.5696 6.05181V4.71316C17.5696 3.45818 18.6015 2.42631 19.8565 2.42631C21.1115 2.42631 22.1433 3.45818 22.1433 4.71316V6.05181C22.1433 6.91635 21.6135 7.72511 20.8326 8.11555C20.6931 8.17133 20.5816 8.33866 20.5816 8.50599V9.84463C20.5816 10.0399 20.721 10.2072 20.9162 10.263C23.0637 10.7371 24.6533 12.5777 24.8485 14.7251L17.1513 14.6972Z" fill="white"/>
</svg>
