<svg width="332" height="247" viewBox="0 0 332 247" fill="none" xmlns="http://www.w3.org/2000/svg">
<rect opacity="0.5" x="2.5" y="2.5" width="327" height="242" rx="52.5" fill="black" stroke="#FF0000" stroke-width="5"/>
<path d="M152.074 157.258L152.535 157.143V155.107C152.443 155.158 152.353 155.196 152.266 155.222C152.046 155.299 151.802 155.337 151.536 155.337C150.906 155.337 150.44 155.219 150.137 154.984C149.84 154.748 149.692 154.417 149.692 153.992V152.225L149.23 152.109V151.994H151.421V152.109L150.96 152.225V153.992C150.96 154.407 151.031 154.704 151.175 154.884C151.318 155.058 151.541 155.145 151.843 155.145C152.018 155.145 152.182 155.107 152.335 155.03C152.412 154.994 152.479 154.955 152.535 154.914V152.225L152.074 152.109V151.994H154.264V152.109L153.803 152.225V157.143L154.264 157.258V157.374H152.074V157.258Z" fill="white"/>
<path d="M157.028 157.489C156.372 157.489 155.862 157.31 155.499 156.951C155.135 156.587 154.953 156.088 154.953 155.452C154.953 155.037 155.032 154.676 155.191 154.369C155.35 154.061 155.57 153.826 155.852 153.662C156.139 153.498 156.467 153.416 156.836 153.416C157.205 153.416 157.528 153.485 157.804 153.623C158.086 153.762 158.301 153.949 158.45 154.184C158.604 154.415 158.68 154.671 158.68 154.953C158.68 155.081 158.668 155.191 158.642 155.283L158.604 155.414C158.383 155.46 158.145 155.499 157.889 155.529C157.351 155.606 156.808 155.645 156.26 155.645C156.26 156.239 156.341 156.664 156.505 156.92C156.669 157.171 156.895 157.297 157.182 157.297C157.382 157.297 157.566 157.251 157.735 157.159C157.909 157.061 158.045 156.936 158.142 156.782C158.245 156.623 158.296 156.462 158.296 156.298H158.488C158.488 156.503 158.427 156.697 158.304 156.882C158.181 157.066 158.009 157.215 157.789 157.328C157.569 157.435 157.315 157.489 157.028 157.489ZM156.26 155.452C156.587 155.452 156.854 155.44 157.059 155.414C157.146 155.409 157.238 155.396 157.335 155.376C157.341 155.35 157.353 155.294 157.374 155.206C157.399 155.078 157.412 154.943 157.412 154.799C157.412 154.374 157.356 154.064 157.243 153.869C157.131 153.669 156.995 153.57 156.836 153.57C156.452 153.57 156.26 154.197 156.26 155.452Z" fill="white"/>
<path d="M159.524 157.489C159.294 157.489 159.114 157.428 158.986 157.305C158.858 157.182 158.794 157.013 158.794 156.797C158.794 156.628 158.851 156.485 158.963 156.367C159.081 156.244 159.217 156.183 159.371 156.183C159.412 156.183 159.453 156.188 159.494 156.198C159.535 156.203 159.563 156.206 159.578 156.206L159.678 156.221V157.258C159.801 157.202 159.909 157.089 160.001 156.92C160.093 156.751 160.152 156.467 160.178 156.067L160.331 153.8L159.793 153.646V153.531H163.367V153.646L162.906 153.762V157.143L163.367 157.258V157.374H161.215V157.258L161.676 157.143V153.723H160.562L160.408 156.067C160.377 156.554 160.28 156.913 160.116 157.143C159.952 157.374 159.755 157.489 159.524 157.489Z" fill="white"/>
<path d="M166.018 157.489C165.383 157.489 164.883 157.31 164.52 156.951C164.161 156.587 163.982 156.088 163.982 155.452C163.982 154.817 164.161 154.32 164.52 153.961C164.883 153.598 165.383 153.416 166.018 153.416C166.654 153.416 167.151 153.598 167.509 153.961C167.873 154.32 168.055 154.817 168.055 155.452C168.055 156.088 167.873 156.587 167.509 156.951C167.151 157.31 166.654 157.489 166.018 157.489ZM166.018 157.335C166.223 157.335 166.395 157.192 166.533 156.905C166.677 156.618 166.748 156.134 166.748 155.452C166.748 154.771 166.677 154.287 166.533 154C166.395 153.713 166.223 153.57 166.018 153.57C165.813 153.57 165.639 153.713 165.496 154C165.357 154.287 165.288 154.771 165.288 155.452C165.288 156.134 165.357 156.618 165.496 156.905C165.639 157.192 165.813 157.335 166.018 157.335Z" fill="white"/>
<path d="M168.672 157.258L169.134 157.143V153.762L168.672 153.646V153.531H170.632C171.078 153.531 171.444 153.577 171.731 153.669C172.023 153.762 172.233 153.882 172.361 154.031C172.489 154.174 172.554 154.328 172.554 154.492C172.554 154.697 172.487 154.863 172.354 154.991C172.226 155.119 172.062 155.212 171.862 155.268C171.647 155.335 171.416 155.37 171.17 155.376V155.414C171.472 155.419 171.741 155.458 171.977 155.529C172.213 155.606 172.405 155.709 172.554 155.837C172.707 155.96 172.784 156.126 172.784 156.336C172.784 156.639 172.625 156.887 172.308 157.082C171.995 157.276 171.488 157.374 170.786 157.374H168.672V157.258ZM170.632 155.299C170.812 155.299 170.965 155.224 171.093 155.076C171.221 154.927 171.285 154.733 171.285 154.492C171.285 154.266 171.221 154.082 171.093 153.938C170.965 153.795 170.812 153.723 170.632 153.723H170.363V155.299H170.632ZM170.786 157.182C171.006 157.182 171.183 157.107 171.316 156.959C171.449 156.81 171.516 156.603 171.516 156.336C171.516 156.07 171.449 155.862 171.316 155.714C171.183 155.565 171.006 155.491 170.786 155.491H170.363V157.182H170.786Z" fill="white"/>
<path d="M175.401 157.489C174.745 157.489 174.235 157.31 173.871 156.951C173.508 156.587 173.326 156.088 173.326 155.452C173.326 155.037 173.405 154.676 173.564 154.369C173.723 154.061 173.943 153.826 174.225 153.662C174.512 153.498 174.84 153.416 175.209 153.416C175.577 153.416 175.9 153.485 176.177 153.623C176.459 153.762 176.674 153.949 176.822 154.184C176.976 154.415 177.053 154.671 177.053 154.953C177.053 155.081 177.04 155.191 177.015 155.283L176.976 155.414C176.756 155.46 176.518 155.499 176.261 155.529C175.723 155.606 175.18 155.645 174.632 155.645C174.632 156.239 174.714 156.664 174.878 156.92C175.042 157.171 175.267 157.297 175.554 157.297C175.754 157.297 175.939 157.251 176.108 157.159C176.282 157.061 176.418 156.936 176.515 156.782C176.618 156.623 176.669 156.462 176.669 156.298H176.861C176.861 156.503 176.799 156.697 176.676 156.882C176.553 157.066 176.382 157.215 176.162 157.328C175.941 157.435 175.688 157.489 175.401 157.489ZM174.632 155.452C174.96 155.452 175.226 155.44 175.431 155.414C175.519 155.409 175.611 155.396 175.708 155.376C175.713 155.35 175.726 155.294 175.747 155.206C175.772 155.078 175.785 154.943 175.785 154.799C175.785 154.374 175.729 154.064 175.616 153.869C175.503 153.669 175.367 153.57 175.209 153.57C174.824 153.57 174.632 154.197 174.632 155.452Z" fill="white"/>
<path d="M177.626 157.258L178.087 157.143V153.762L177.626 153.646V153.531H179.778V153.646L179.317 153.762V155.26H179.586C179.734 155.26 179.863 155.214 179.97 155.122C180.078 155.025 180.155 154.904 180.201 154.761L180.393 154.069C180.516 153.659 180.746 153.454 181.085 153.454C181.315 153.454 181.494 153.516 181.622 153.639C181.751 153.762 181.815 153.931 181.815 154.146C181.815 154.341 181.761 154.492 181.653 154.599C181.551 154.707 181.412 154.761 181.238 154.761C181.166 154.761 181.095 154.756 181.023 154.745L180.931 154.722V153.685C180.777 153.726 180.675 153.854 180.623 154.069L180.431 154.761C180.38 154.94 180.295 155.084 180.178 155.191C180.137 155.232 180.08 155.268 180.009 155.299H180.239C180.541 155.299 180.777 155.36 180.946 155.483C181.12 155.601 181.243 155.757 181.315 155.952L181.699 157.143L182.084 157.258V157.374H181.277C181.005 157.374 180.785 157.312 180.616 157.189C180.452 157.066 180.339 156.91 180.278 156.72L179.855 155.452H179.317V157.143L179.778 157.258V157.374H177.626V157.258Z" fill="white"/>
<path d="M165.547 146.395C159.595 146.395 154.77 141.492 154.77 135.43C154.77 129.346 159.595 124.437 165.547 124.437C171.498 124.437 176.319 129.346 176.319 135.43C176.319 141.492 171.498 146.395 165.547 146.395Z" fill="#230505" fill-opacity="0.7"/>
<path fill-rule="evenodd" clip-rule="evenodd" d="M156.417 135.43C156.417 140.609 160.53 144.748 165.547 144.748C170.562 144.748 174.672 140.61 174.672 135.43C174.672 130.225 170.558 126.084 165.547 126.084C160.534 126.084 156.417 130.225 156.417 135.43ZM154.77 135.43C154.77 141.492 159.595 146.395 165.547 146.395C171.498 146.395 176.319 141.492 176.319 135.43C176.319 129.346 171.498 124.437 165.547 124.437C159.595 124.437 154.77 129.346 154.77 135.43Z" fill="#05FF00"/>
<g clip-path="url(#clip0_117_1510)">
<path d="M199 143.857V143.827C199 143.586 198.924 143.352 198.784 143.157C198.643 142.962 198.445 142.816 198.217 142.74L180.51 136.06C180.308 135.993 180.091 135.983 179.884 136.032C179.677 136.081 179.488 136.187 179.337 136.337C179.187 136.488 179.081 136.677 179.032 136.884C178.983 137.091 178.993 137.308 179.06 137.51L185.727 155.217C185.804 155.447 185.952 155.647 186.149 155.787C186.347 155.928 186.584 156.003 186.827 156H186.857C187.16 156 187.452 155.881 187.667 155.667L190.85 150.817L194.777 155.72C194.842 155.802 194.925 155.869 195.018 155.917C195.111 155.964 195.214 155.992 195.318 155.998C195.423 156.003 195.528 155.987 195.626 155.949C195.724 155.912 195.813 155.854 195.887 155.78L198.783 152.883C198.858 152.809 198.915 152.72 198.953 152.622C198.99 152.524 199.007 152.42 199.001 152.315C198.995 152.21 198.968 152.108 198.92 152.015C198.872 151.921 198.805 151.839 198.723 151.773L193.813 147.853L198.667 144.667C198.881 144.451 199.001 144.16 199 143.857Z" fill="white"/>
</g>
<path d="M271.253 231.367L271.714 231.251V229.215C271.622 229.266 271.532 229.304 271.445 229.33C271.225 229.407 270.981 229.445 270.715 229.445C270.085 229.445 269.618 229.327 269.316 229.092C269.019 228.856 268.87 228.526 268.87 228.1V226.333L268.409 226.217V226.102H270.599V226.217L270.138 226.333V228.1C270.138 228.515 270.21 228.813 270.354 228.992C270.497 229.166 270.72 229.253 271.022 229.253C271.196 229.253 271.36 229.215 271.514 229.138C271.591 229.102 271.657 229.064 271.714 229.023V226.333L271.253 226.217V226.102H273.443V226.217L272.982 226.333V231.251L273.443 231.367V231.482H271.253V231.367Z" fill="white"/>
<path d="M274.977 233.134C274.747 233.134 274.567 233.073 274.439 232.95C274.311 232.827 274.247 232.658 274.247 232.443C274.247 232.248 274.298 232.097 274.401 231.989C274.508 231.882 274.649 231.828 274.823 231.828C274.864 231.828 274.905 231.83 274.946 231.835C274.987 231.846 275.016 231.851 275.031 231.851L275.131 231.866V232.904C275.279 232.878 275.41 232.796 275.523 232.658C275.635 232.519 275.761 232.281 275.899 231.943L276.053 231.559L274.055 227.87L273.671 227.755V227.639H274.631C274.898 227.639 275.108 227.696 275.261 227.808C275.42 227.916 275.556 228.077 275.669 228.292L276.629 230.068L277.436 227.985L276.86 227.755V227.639H278.282V227.755L277.667 227.985L276.13 231.943C275.966 232.363 275.792 232.665 275.607 232.85C275.423 233.039 275.213 233.134 274.977 233.134Z" fill="white"/>
<path d="M278.432 231.367L278.893 231.251V227.87L278.432 227.755V227.639H280.392C280.838 227.639 281.204 227.685 281.491 227.778C281.783 227.87 281.993 227.99 282.121 228.139C282.249 228.282 282.313 228.436 282.313 228.6C282.313 228.805 282.247 228.971 282.113 229.099C281.985 229.228 281.821 229.32 281.622 229.376C281.406 229.443 281.176 229.479 280.93 229.484V229.522C281.232 229.527 281.501 229.566 281.737 229.637C281.973 229.714 282.165 229.817 282.313 229.945C282.467 230.068 282.544 230.234 282.544 230.444C282.544 230.747 282.385 230.995 282.067 231.19C281.755 231.385 281.248 231.482 280.546 231.482H278.432V231.367ZM280.392 229.407C280.571 229.407 280.725 229.333 280.853 229.184C280.981 229.035 281.045 228.841 281.045 228.6C281.045 228.374 280.981 228.19 280.853 228.047C280.725 227.903 280.571 227.831 280.392 227.831H280.123V229.407H280.392ZM280.546 231.29C280.766 231.29 280.943 231.215 281.076 231.067C281.209 230.918 281.276 230.711 281.276 230.444C281.276 230.178 281.209 229.97 281.076 229.822C280.943 229.673 280.766 229.599 280.546 229.599H280.123V231.29H280.546Z" fill="white"/>
<path d="M285.16 231.597C284.505 231.597 283.995 231.418 283.631 231.059C283.267 230.695 283.085 230.196 283.085 229.561C283.085 228.925 283.267 228.428 283.631 228.07C283.995 227.706 284.505 227.524 285.16 227.524C285.632 227.524 285.985 227.606 286.221 227.77C286.462 227.934 286.582 228.134 286.582 228.369C286.582 228.544 286.528 228.684 286.421 228.792C286.318 228.894 286.18 228.946 286.006 228.946C285.934 228.946 285.862 228.941 285.791 228.93L285.698 228.907V227.755L285.591 227.716C285.514 227.69 285.422 227.678 285.314 227.678C285.022 227.678 284.794 227.816 284.63 228.093C284.471 228.369 284.392 228.859 284.392 229.561C284.392 230.242 284.471 230.721 284.63 230.998C284.794 231.269 285.022 231.405 285.314 231.405C285.514 231.405 285.698 231.359 285.867 231.267C286.042 231.169 286.177 231.044 286.275 230.89C286.377 230.731 286.428 230.57 286.428 230.406H286.621C286.621 230.611 286.559 230.806 286.436 230.99C286.313 231.174 286.142 231.323 285.921 231.436C285.701 231.543 285.447 231.597 285.16 231.597Z" fill="white"/>
<path d="M287.891 231.367L288.352 231.251V227.831H287.776C287.776 228.113 287.691 228.398 287.522 228.684C287.455 228.792 287.373 228.892 287.276 228.984H287.045V227.639H290.888V228.984H290.658C290.56 228.897 290.476 228.797 290.404 228.684C290.24 228.408 290.158 228.123 290.158 227.831H289.582V231.251L290.043 231.367V231.482H287.891V231.367Z" fill="white"/>
<path d="M291.386 231.367L291.847 231.251V227.87L291.386 227.755V227.639H293.346C293.792 227.639 294.158 227.685 294.445 227.778C294.737 227.87 294.947 227.99 295.075 228.139C295.203 228.282 295.267 228.436 295.267 228.6C295.267 228.805 295.201 228.971 295.067 229.099C294.939 229.228 294.775 229.32 294.576 229.376C294.36 229.443 294.13 229.479 293.884 229.484V229.522C294.186 229.527 294.455 229.566 294.691 229.637C294.926 229.714 295.119 229.817 295.267 229.945C295.421 230.068 295.498 230.234 295.498 230.444C295.498 230.747 295.339 230.995 295.021 231.19C294.709 231.385 294.201 231.482 293.5 231.482H291.386V231.367ZM293.346 229.407C293.525 229.407 293.679 229.333 293.807 229.184C293.935 229.035 293.999 228.841 293.999 228.6C293.999 228.374 293.935 228.19 293.807 228.047C293.679 227.903 293.525 227.831 293.346 227.831H293.077V229.407H293.346ZM293.5 231.29C293.72 231.29 293.897 231.215 294.03 231.067C294.163 230.918 294.23 230.711 294.23 230.444C294.23 230.178 294.163 229.97 294.03 229.822C293.897 229.673 293.72 229.599 293.5 229.599H293.077V231.29H293.5Z" fill="white"/>
<path d="M298.076 231.597C297.441 231.597 296.941 231.418 296.577 231.059C296.219 230.695 296.039 230.196 296.039 229.561C296.039 228.925 296.219 228.428 296.577 228.07C296.941 227.706 297.441 227.524 298.076 227.524C298.711 227.524 299.208 227.706 299.567 228.07C299.931 228.428 300.113 228.925 300.113 229.561C300.113 230.196 299.931 230.695 299.567 231.059C299.208 231.418 298.711 231.597 298.076 231.597ZM298.076 231.443C298.281 231.443 298.452 231.3 298.591 231.013C298.734 230.726 298.806 230.242 298.806 229.561C298.806 228.879 298.734 228.395 298.591 228.108C298.452 227.821 298.281 227.678 298.076 227.678C297.871 227.678 297.697 227.821 297.553 228.108C297.415 228.395 297.346 228.879 297.346 229.561C297.346 230.242 297.415 230.726 297.553 231.013C297.697 231.3 297.871 231.443 298.076 231.443Z" fill="white"/>
<path d="M284.286 220.503C278.334 220.503 273.51 215.601 273.51 209.538C273.51 203.454 278.334 198.545 284.286 198.545C290.238 198.545 295.059 203.454 295.059 209.538C295.059 215.601 290.238 220.503 284.286 220.503Z" fill="#230505" fill-opacity="0.7"/>
<path fill-rule="evenodd" clip-rule="evenodd" d="M275.156 209.538C275.156 214.717 279.27 218.856 284.286 218.856C289.302 218.856 293.412 214.718 293.412 209.538C293.412 204.333 289.298 200.192 284.286 200.192C279.273 200.192 275.156 204.334 275.156 209.538ZM273.51 209.538C273.51 215.601 278.334 220.503 284.286 220.503C290.238 220.503 295.059 215.601 295.059 209.538C295.059 203.454 290.238 198.545 284.286 198.545C278.334 198.545 273.51 203.454 273.51 209.538Z" fill="#05FF00"/>
<path d="M32.2975 227.063V231.136L32.9124 231.367V231.482H31.4521V231.367L32.067 231.136V226.333L31.529 226.217V226.102H32.5665C32.8329 226.102 33.043 226.159 33.1967 226.271C33.3555 226.379 33.4913 226.54 33.604 226.755L35.2794 229.96L36.5629 226.755C36.65 226.53 36.7678 226.366 36.9164 226.264C37.065 226.156 37.293 226.102 37.6004 226.102H38.4073V226.217L37.9462 226.333V231.251L38.4073 231.367V231.482H36.217V231.367L36.6782 231.251V227.063L34.8721 231.559H34.6415L32.2975 227.063Z" fill="white"/>
<path d="M39.1017 231.367L39.5628 231.251V227.87L39.1017 227.755V227.639H41.2536V227.755L40.7925 227.87V229.176H41.1768C42.5089 229.176 43.1749 229.561 43.1749 230.329C43.1749 231.098 42.5089 231.482 41.1768 231.482H39.1017V231.367ZM43.3286 231.482V231.367L43.7898 231.251V227.87L43.3286 227.755V227.639H45.4805V227.755L45.0194 227.87V231.251L45.4805 231.367V231.482H43.3286ZM41.1768 231.29C41.4022 231.29 41.5789 231.21 41.707 231.052C41.8402 230.888 41.9069 230.647 41.9069 230.329C41.9069 230.011 41.8402 229.773 41.707 229.614C41.5789 229.45 41.4022 229.368 41.1768 229.368H40.7925V231.29H41.1768Z" fill="white"/>
<path d="M48.1716 231.597C47.5158 231.597 47.006 231.418 46.6422 231.059C46.2784 230.695 46.0965 230.196 46.0965 229.561C46.0965 228.925 46.2784 228.428 46.6422 228.07C47.006 227.706 47.5158 227.524 48.1716 227.524C48.6429 227.524 48.9965 227.606 49.2321 227.77C49.4729 227.934 49.5934 228.134 49.5934 228.369C49.5934 228.544 49.5396 228.684 49.432 228.792C49.3295 228.894 49.1912 228.946 49.017 228.946C48.9452 228.946 48.8735 228.941 48.8018 228.93L48.7095 228.907V227.755L48.6019 227.716C48.5251 227.69 48.4329 227.678 48.3253 227.678C48.0332 227.678 47.8052 227.816 47.6413 228.093C47.4825 228.369 47.403 228.859 47.403 229.561C47.403 230.242 47.4825 230.721 47.6413 230.998C47.8052 231.269 48.0332 231.405 48.3253 231.405C48.5251 231.405 48.7095 231.359 48.8786 231.267C49.0528 231.169 49.1886 231.044 49.2859 230.89C49.3884 230.731 49.4396 230.57 49.4396 230.406H49.6318C49.6318 230.611 49.5703 230.806 49.4473 230.99C49.3244 231.174 49.1527 231.323 48.9324 231.436C48.7121 231.543 48.4585 231.597 48.1716 231.597Z" fill="white"/>
<path d="M50.5177 231.597C50.2871 231.597 50.1078 231.536 49.9797 231.413C49.8516 231.29 49.7876 231.121 49.7876 230.905C49.7876 230.736 49.8439 230.593 49.9567 230.475C50.0745 230.352 50.2103 230.291 50.364 230.291C50.405 230.291 50.446 230.296 50.4869 230.306C50.5279 230.311 50.5561 230.314 50.5715 230.314L50.6714 230.329V231.367C50.7944 231.31 50.902 231.198 50.9942 231.028C51.0864 230.859 51.1453 230.575 51.1709 230.175L51.3246 227.908L50.7867 227.755V227.639H54.3603V227.755L53.8992 227.87V231.251L54.3603 231.367V231.482H52.2085V231.367L52.6696 231.251V227.831H51.5552L51.4015 230.175C51.3708 230.662 51.2734 231.021 51.1095 231.251C50.9455 231.482 50.7482 231.597 50.5177 231.597Z" fill="white"/>
<path d="M54.9752 231.367L55.4363 231.251V227.87L54.9752 227.755V227.639H57.127V227.755L56.6659 227.87V229.176H57.0502C58.3823 229.176 59.0484 229.561 59.0484 230.329C59.0484 231.098 58.3823 231.482 57.0502 231.482H54.9752V231.367ZM57.0502 231.29C57.2756 231.29 57.4524 231.21 57.5805 231.052C57.7137 230.888 57.7803 230.647 57.7803 230.329C57.7803 230.011 57.7137 229.773 57.5805 229.614C57.4524 229.45 57.2756 229.368 57.0502 229.368H56.6659V231.29H57.0502Z" fill="white"/>
<path d="M45.1583 220.503C39.2065 220.503 34.3817 215.601 34.3817 209.538C34.3817 203.454 39.2065 198.545 45.1583 198.545C51.1102 198.545 55.9307 203.454 55.9307 209.538C55.9307 215.601 51.1102 220.503 45.1583 220.503Z" fill="#230505" fill-opacity="0.7"/>
<path fill-rule="evenodd" clip-rule="evenodd" d="M36.0286 209.538C36.0286 214.717 40.1421 218.856 45.1583 218.856C50.1737 218.856 54.2838 214.718 54.2838 209.538C54.2838 204.333 50.1703 200.192 45.1583 200.192C40.1455 200.192 36.0286 204.334 36.0286 209.538ZM34.3817 209.538C34.3817 215.601 39.2065 220.503 45.1583 220.503C51.1102 220.503 55.9307 215.601 55.9307 209.538C55.9307 203.454 51.1102 198.545 45.1583 198.545C39.2065 198.545 34.3817 203.454 34.3817 209.538Z" fill="#05FF00"/>
<g clip-path="url(#clip1_117_1510)">
<path d="M167.16 135.3C168.443 134.512 169.271 132.955 169.271 131.517C169.271 129.467 167.594 127.182 165.325 127.182C163.055 127.182 161.378 129.467 161.378 131.517C161.378 132.955 162.207 134.512 163.49 135.3C160.451 136.108 158.221 138.887 158.221 142.158C158.221 142.375 158.398 142.552 158.615 142.552H172.034C172.251 142.552 172.429 142.375 172.429 142.158C172.429 138.887 170.199 136.108 167.16 135.3ZM162.167 131.517C162.167 129.487 163.845 127.97 165.325 127.97C166.805 127.97 168.482 129.487 168.482 131.517C168.482 133.547 166.805 135.064 165.325 135.064C163.845 135.064 162.167 133.547 162.167 131.517ZM159.03 141.764C159.227 138.473 161.99 135.852 165.325 135.852C168.66 135.852 171.422 138.473 171.62 141.764H159.03Z" fill="white"/>
</g>
<g clip-path="url(#clip2_117_1510)">
<path d="M44.9362 204.489C44.403 204.489 43.9476 204.798 43.7279 205.246C43.4176 204.909 42.97 204.698 42.4756 204.698C41.538 204.698 40.7838 205.461 40.7838 206.398C40.7838 206.62 40.8272 206.829 40.9046 207.023C40.127 207.053 39.4985 207.687 39.4985 208.471C39.4985 209.173 39.9999 209.751 40.663 209.886C40.4978 210.122 40.3993 210.41 40.3993 210.72C40.3993 211.522 41.0567 212.168 41.8603 212.168C41.9493 212.168 42.0284 212.15 42.113 212.134C42.3316 212.661 42.8469 213.034 43.4532 213.034C43.8089 213.034 44.1232 212.895 44.3759 212.683C44.6355 213.08 45.0844 213.341 45.5953 213.341C46.2482 213.341 46.7952 212.912 46.9794 212.321C47.2031 212.461 47.4649 212.551 47.7484 212.551C48.552 212.551 49.1984 211.894 49.1984 211.092C49.1984 210.877 49.1502 210.683 49.0667 210.5C49.8032 210.428 50.3739 209.806 50.3739 209.052C50.3739 208.595 50.1658 208.199 49.8356 207.933C49.959 207.75 50.0334 207.522 50.0334 207.286C50.0334 206.655 49.5223 206.145 48.8909 206.145C48.8756 206.145 48.8621 206.159 48.8469 206.159C48.8484 206.132 48.8581 206.108 48.8581 206.081C48.8581 205.279 48.2007 204.633 47.3971 204.633C46.8862 204.633 46.4373 204.894 46.1777 205.291C45.9675 204.819 45.4874 204.491 44.9364 204.491L44.9362 204.489ZM42.4316 213.067C42.0011 213.067 41.6517 213.321 41.6517 213.627C41.6517 213.933 42.0011 214.175 42.4316 214.175C42.8621 214.175 43.2116 213.933 43.2116 213.627C43.2116 213.321 42.8621 213.067 42.4316 213.067ZM41.0255 213.66C40.7768 213.66 40.5751 213.861 40.5751 214.11C40.5751 214.358 40.7768 214.559 41.0255 214.559C41.2743 214.559 41.4759 214.358 41.4759 214.11C41.4759 213.861 41.2743 213.66 41.0255 213.66Z" fill="white"/>
</g>
<g clip-path="url(#clip3_117_1510)">
<path d="M287.912 203.391C286.309 203.391 285.096 204.33 284.064 205.312C283.081 204.27 281.819 203.391 280.216 203.391C277.958 203.391 276.368 205.329 276.368 207.443C276.368 208.577 276.833 209.394 277.343 210.161L283.323 217.321C283.994 218.031 284.121 218.031 284.792 217.321L290.786 210.161C291.385 209.394 291.76 208.577 291.76 207.443C291.76 205.329 290.17 203.391 287.912 203.391ZM289.836 209.963L284.064 216.84L278.292 209.934C277.602 208.976 277.33 208.329 277.33 207.443C277.33 205.792 278.511 204.305 280.216 204.291C281.619 204.28 283.209 205.71 284.064 206.788C284.897 205.748 286.51 204.291 287.912 204.291C289.572 204.291 290.798 205.792 290.798 207.443C290.798 208.329 290.583 209.024 289.836 209.963Z" fill="white"/>
</g>
<g clip-path="url(#clip4_117_1510)">
<g opacity="0.7">
<path d="M166.369 24.4182C168.237 24.4182 170.062 24.9719 171.615 26.0094C173.168 27.0469 174.378 28.5215 175.092 30.2468C175.807 31.9721 175.994 33.8706 175.63 35.7021C175.265 37.5337 174.366 39.2161 173.046 40.5365C171.725 41.857 170.043 42.7563 168.211 43.1206C166.38 43.4849 164.481 43.2979 162.756 42.5833C161.031 41.8687 159.556 40.6585 158.518 39.1057C157.481 37.553 156.927 35.7275 156.927 33.8601C156.927 31.3559 157.922 28.9543 159.693 27.1836C161.463 25.4129 163.865 24.4182 166.369 24.4182ZM166.369 22.8811C164.198 22.8811 162.075 23.525 160.27 24.7314C158.464 25.9378 157.057 27.6525 156.226 29.6586C155.395 31.6648 155.177 33.8723 155.601 36.002C156.025 38.1317 157.07 40.088 158.606 41.6234C160.141 43.1588 162.098 44.2045 164.227 44.6281C166.357 45.0518 168.564 44.8343 170.571 44.0034C172.577 43.1724 174.291 41.7652 175.498 39.9597C176.704 38.1542 177.348 36.0315 177.348 33.8601C177.348 30.9483 176.191 28.1557 174.132 26.0968C172.073 24.0378 169.281 22.8811 166.369 22.8811Z" fill="white"/>
</g>
<g opacity="0.7">
<path d="M79.0859 24.4182C80.9534 24.4182 82.7789 24.9719 84.3316 26.0094C85.8843 27.0469 87.0945 28.5215 87.8091 30.2468C88.5238 31.9721 88.7108 33.8706 88.3464 35.7021C87.9821 37.5337 87.0829 39.2161 85.7624 40.5365C84.4419 41.857 82.7595 42.7563 80.928 43.1206C79.0964 43.4849 77.1979 43.2979 75.4727 42.5833C73.7474 41.8687 72.2727 40.6585 71.2352 39.1058C70.1978 37.553 69.644 35.7275 69.644 33.8601C69.644 31.3559 70.6388 28.9543 72.4095 27.1836C74.1802 25.4129 76.5818 24.4182 79.0859 24.4182ZM79.0859 22.8811C76.9145 22.8811 74.7918 23.525 72.9863 24.7314C71.1808 25.9378 69.7736 27.6525 68.9427 29.6586C68.1117 31.6648 67.8943 33.8723 68.3179 36.002C68.7415 38.1317 69.7872 40.088 71.3226 41.6234C72.858 43.1589 74.8143 44.2045 76.944 44.6281C79.0737 45.0518 81.2813 44.8343 83.2874 44.0034C85.2936 43.1724 87.0082 41.7652 88.2146 39.9597C89.421 38.1542 90.0649 36.0315 90.0649 33.8601C90.0649 30.9483 88.9082 28.1557 86.8492 26.0968C84.7903 24.0378 81.9977 22.8811 79.0859 22.8811Z" fill="white"/>
</g>
<g opacity="0.7">
<path d="M253.103 24.4182C254.97 24.4182 256.796 24.9719 258.349 26.0094C259.901 27.0469 261.112 28.5215 261.826 30.2468C262.541 31.9721 262.728 33.8706 262.364 35.7021C261.999 37.5337 261.1 39.2161 259.779 40.5365C258.459 41.857 256.777 42.7563 254.945 43.1206C253.113 43.4849 251.215 43.2979 249.49 42.5833C247.764 41.8687 246.29 40.6585 245.252 39.1058C244.215 37.553 243.661 35.7275 243.661 33.8601C243.661 31.3559 244.656 28.9543 246.427 27.1836C248.197 25.4129 250.599 24.4182 253.103 24.4182ZM253.103 22.8811C250.932 22.8811 248.809 23.525 247.003 24.7314C245.198 25.9378 243.791 27.6525 242.96 29.6586C242.129 31.6648 241.911 33.8723 242.335 36.002C242.759 38.1317 243.804 40.088 245.34 41.6234C246.875 43.1589 248.831 44.2045 250.961 44.6281C253.091 45.0518 255.298 44.8343 257.304 44.0034C259.311 43.1724 261.025 41.7652 262.232 39.9597C263.438 38.1542 264.082 36.0315 264.082 33.8601C264.082 30.9483 262.925 28.1557 260.866 26.0968C258.807 24.0378 256.015 22.8811 253.103 22.8811Z" fill="white"/>
</g>
<path d="M238.268 20.2509C237.054 21.6015 236.026 23.1099 235.212 24.7356C235.212 24.7356 233.025 29.1116 233.096 33.9409C233.126 35.4611 233.363 36.97 233.801 38.4255V38.4255C234.204 40.155 234.836 41.8222 235.682 43.3822C236.628 45.0454 237.817 46.5571 239.208 47.8668C240.457 49.047 245.744 53.7535 253.314 53.5316C254.447 53.4881 255.574 53.3459 256.683 53.1067C258.147 52.7952 263.218 51.641 267.419 47.1587C272.667 41.5624 272.827 34.7882 272.827 33.7048C272.827 32.9708 272.754 24.4335 266.009 18.5987C261.15 14.3926 255.329 13.7553 253.079 13.642C231.406 12.5539 209.587 28.9842 209.587 28.9842C183.202 45.641 178.503 54.327 166.095 53.5316C163.899 53.39 157.373 53.0312 152.224 48.1028C146.18 42.3129 146.112 34.4483 146.112 33.4688C146.192 26.1211 150.306 21.332 151.284 20.2509C157.053 13.8781 164.785 13.6562 166.095 13.642" stroke="#FF0000" stroke-width="2" stroke-linejoin="round"/>
<path d="M243.675 18.8347C241.843 20.0225 240.249 21.5434 238.973 23.3194C236.785 26.4213 235.633 30.14 235.682 33.9409C235.706 35.5294 235.992 40.6938 239.914 45.2704C240.544 46.0069 245.493 51.5843 253.549 51.4073C260.092 51.2633 264.302 47.4207 265.304 46.4506C270.603 41.3216 270.711 34.7693 270.711 33.7048C270.711 32.8858 270.603 26.0149 265.304 20.959C263.893 19.6089 260.332 16.6963 253.079 16.0024C249.736 15.6813 236.811 14.7703 209.587 31.3445C203.474 35.0714 197.256 39.2941 185.843 45.5065C178.703 49.3916 173.166 52.0753 166.095 51.4073C163.662 51.1713 158.471 50.6095 154.105 46.4506C153.031 45.4262 148.385 40.7858 148.463 33.4688C148.548 25.7363 153.832 21.0794 154.81 20.2509C159.392 16.3729 164.506 16.0425 166.095 16.0024" stroke="#FF0000" stroke-width="2" stroke-linejoin="round"/>
<path d="M253.079 18.3627C249.478 18.3568 245.987 19.6085 243.205 21.9032C242.657 22.3611 238.341 26.0928 237.798 32.2886C237.649 34.0338 237.808 35.7917 238.268 37.4814C239.196 40.7817 241.178 43.6843 243.91 45.7425C246.675 47.8553 250.085 48.9397 253.558 48.8105C257.03 48.6814 260.35 47.3468 262.953 45.0344C268.066 40.5167 268.125 34.2548 268.125 33.4688C268.125 32.9967 267.972 26.2981 262.717 21.9032C259.661 19.3399 256.102 18.5987 253.079 18.3627ZM253.079 18.3627C242.382 17.5106 229.828 22.1959 209.587 33.4688C201.222 38.1281 195.667 41.6143 185.842 45.5065C179.438 48.0415 173.222 49.9581 165.859 48.8109C162.596 48.3011 157.807 47.4844 154.34 43.3822C150.872 39.2799 150.813 34.4908 150.813 33.4688C150.866 29.8229 152.198 26.3124 154.575 23.5554C158.995 18.5114 165.112 18.3627 166.094 18.3627" stroke="#FF0000" stroke-width="2" stroke-linejoin="round"/>
<path d="M93.9214 20.2509C95.1357 21.6015 96.1636 23.1099 96.9776 24.7356C96.9776 24.7356 99.1639 29.1116 99.0934 33.9409C99.065 35.4612 98.8276 36.9703 98.3881 38.4255V38.4255C97.9868 40.1553 97.3541 41.8227 96.5074 43.3822C95.5623 45.046 94.3736 46.5577 92.981 47.8668C91.7327 49.047 86.4454 53.7535 78.8755 53.5316C77.7424 53.4881 76.6152 53.3459 75.5066 53.1067C74.0443 52.7952 68.971 51.641 64.7699 47.1587C59.525 41.5624 59.3628 34.7882 59.3628 33.7048C59.3628 32.9708 59.4357 24.4335 66.1805 18.5987C71.0398 14.3926 76.8607 13.7553 79.1105 13.642C100.784 12.5539 122.603 28.9842 122.603 28.9842C148.987 45.641 153.689 54.327 166.095 53.5316C168.29 53.39 174.819 53.0312 179.965 48.1028C186.009 42.3129 186.078 34.4483 186.078 33.4688C185.998 26.1211 181.884 21.332 180.906 20.2509C175.139 13.8781 167.404 13.6562 166.095 13.642" stroke="#FF0000" stroke-width="2" stroke-linejoin="round"/>
<path d="M88.5141 18.8347C90.346 20.0225 91.9407 21.5434 93.216 23.3194C95.4043 26.4213 96.5566 30.14 96.5073 33.9409C96.4838 35.5294 96.197 40.6938 92.2756 45.2704C91.6456 46.0069 86.6969 51.5843 78.6403 51.4073C72.0976 51.2633 67.8871 47.4207 66.8856 46.4506C61.5867 41.3216 61.4785 34.7693 61.4785 33.7048C61.4785 32.8858 61.5867 26.0149 66.8856 20.959C68.2962 19.6089 71.8578 16.6963 79.1104 16.0024C82.4535 15.6813 95.3788 14.7703 122.603 31.3445C128.715 35.0714 134.933 39.2941 146.347 45.5065C153.487 49.3916 159.023 52.0753 166.095 51.4073C168.53 51.1713 173.719 50.6095 178.084 46.4506C179.159 45.4262 183.806 40.7858 183.727 33.4688C183.642 25.7363 178.357 21.0794 177.379 20.2509C172.799 16.3729 167.684 16.0425 166.095 16.0024" stroke="#FF0000" stroke-width="2" stroke-linejoin="round"/>
<path d="M79.1104 18.3627C82.7111 18.3568 86.2018 19.6085 88.9842 21.9032C89.532 22.3611 93.8507 26.0928 94.3914 32.2886C94.54 34.0338 94.3808 35.7917 93.9212 37.4814C92.9944 40.7821 91.0117 43.6851 88.279 45.7425C85.5137 47.8553 82.1041 48.9397 78.6315 48.8105C75.1589 48.6814 71.8385 47.3468 69.2365 45.0344C64.1232 40.5167 64.0645 34.2548 64.0645 33.4688C64.0645 32.9967 64.2196 26.2981 69.4716 21.9032C72.5278 19.3399 76.0871 18.5987 79.1104 18.3627ZM79.1104 18.3627C89.8071 17.5106 102.361 22.1959 122.602 33.4688C130.969 38.1281 136.522 41.6143 146.347 45.5065C152.751 48.0415 158.967 49.9581 166.33 48.8109C169.593 48.3011 174.382 47.4844 177.849 43.3822C181.317 39.2799 181.376 34.4908 181.376 33.4688C181.324 29.8226 179.992 26.3118 177.614 23.5554C173.194 18.5114 167.077 18.3627 166.095 18.3627" stroke="#FF0000" stroke-width="2" stroke-linejoin="round"/>
<path d="M79.193 44.8391C73.2411 44.8391 68.4164 39.9368 68.4164 33.8743C68.4164 27.79 73.2411 22.8811 79.193 22.8811C85.1448 22.8811 89.9653 27.79 89.9653 33.8743C89.9653 39.9368 85.1448 44.8391 79.193 44.8391Z" fill="#230505" fill-opacity="0.7"/>
<path fill-rule="evenodd" clip-rule="evenodd" d="M70.0632 33.8743C70.0632 39.0536 74.1768 43.1922 79.193 43.1922C84.2083 43.1922 88.3185 39.0544 88.3185 33.8743C88.3185 28.6689 84.205 24.528 79.193 24.528C74.1802 24.528 70.0632 28.6697 70.0632 33.8743ZM68.4164 33.8743C68.4164 39.9368 73.2411 44.8391 79.193 44.8391C85.1448 44.8391 89.9653 39.9368 89.9653 33.8743C89.9653 27.79 85.1448 22.8811 79.193 22.8811C73.2411 22.8811 68.4164 27.79 68.4164 33.8743Z" fill="#05FF00"/>
<g clip-path="url(#clip5_117_1510)">
<path d="M80.806 33.7447C82.0886 32.9564 82.9174 31.3997 82.9174 29.9611C82.9174 27.9117 81.2401 25.6259 78.9708 25.6259C76.7014 25.6259 75.0241 27.9117 75.0241 29.9611C75.0241 31.3997 75.8529 32.9564 77.1355 33.7447C74.0966 34.5526 71.8667 37.3311 71.8667 40.6023C71.8667 40.8191 72.0443 40.9964 72.2614 40.9964H85.6801C85.8972 40.9964 86.0748 40.8191 86.0748 40.6023C86.0748 37.3311 83.8449 34.5526 80.806 33.7447ZM75.8134 29.9611C75.8134 27.9314 77.4907 26.4141 78.9708 26.4141C80.4508 26.4141 82.1281 27.9314 82.1281 29.9611C82.1281 31.9909 80.4508 33.5082 78.9708 33.5082C77.4907 33.5082 75.8134 31.9909 75.8134 29.9611ZM72.6758 40.2082C72.8731 36.9173 75.6358 34.2964 78.9708 34.2964C82.3057 34.2964 85.0684 36.9173 85.2657 40.2082H72.6758Z" fill="white"/>
</g>
</g>
<path d="M153.842 124.953C154.368 125.593 155.313 125.685 155.953 125.158C156.593 124.632 156.685 123.687 156.158 123.047L153.842 124.953ZM90.1451 43.507C89.3206 43.4269 88.5872 44.0303 88.507 44.8549L87.2007 58.2915C87.1205 59.116 87.724 59.8494 88.5485 59.9296C89.3731 60.0098 90.1065 59.4063 90.1866 58.5818L91.3478 46.6381L103.291 47.7993C104.116 47.8795 104.849 47.276 104.93 46.4515C105.01 45.6269 104.406 44.8935 103.582 44.8134L90.1451 43.507ZM156.158 123.047L91.1583 44.047L88.8417 45.953L153.842 124.953L156.158 123.047Z" fill="white"/>
<defs>
<clipPath id="clip0_117_1510">
<rect width="20" height="20" fill="white" transform="translate(179 136)"/>
</clipPath>
<clipPath id="clip1_117_1510">
<rect width="15.3921" height="15.3706" fill="white" transform="translate(157.629 127.182)"/>
</clipPath>
<clipPath id="clip2_117_1510">
<rect width="15.3921" height="15.3706" fill="white" transform="translate(37.2402 201.839)"/>
</clipPath>
<clipPath id="clip3_117_1510">
<rect width="15.3921" height="15.3706" fill="white" transform="translate(276.368 202.937)"/>
</clipPath>
<clipPath id="clip4_117_1510">
<rect width="214.639" height="41.1712" fill="white" transform="translate(58.7749 13)"/>
</clipPath>
<clipPath id="clip5_117_1510">
<rect width="15.3921" height="15.3706" fill="white" transform="translate(71.2749 25.6259)"/>
</clipPath>
</defs>
</svg>
